SplineFontDB: 3.0
FontName: Comme-SemiBold
FullName: Comme SemiBold
FamilyName: Comme
Weight: SemiBold
Copyright: Digitized data Copyright (c) 2011-2014, vernon adams.
Version: 2
ItalicAngle: 0
UnderlinePosition: 0
UnderlineWidth: 0
Ascent: 1638
Descent: 410
UFOAscent: 1560
UFODescent: -556
LayerCount: 2
Layer: 0 0 "Back"  1
Layer: 1 0 "Fore"  0
FSType: 0
OS2Version: 0
OS2_WeightWidthSlopeOnly: 0
OS2_UseTypoMetrics: 1
CreationTime: 1392158776
ModificationTime: 1392242686
PfmFamily: 17
TTFWeight: 600
TTFWidth: 5
LineGap: 0
VLineGap: 0
OS2TypoAscent: 2390
OS2TypoAOffset: 0
OS2TypoDescent: -512
OS2TypoDOffset: 0
OS2TypoLinegap: 0
OS2WinAscent: 2390
OS2WinAOffset: 0
OS2WinDescent: 512
OS2WinDOffset: 0
HheadAscent: 2390
HheadAOffset: 0
HheadDescent: -512
HheadDOffset: 0
OS2Vendor: 'NeWT'
Lookup: 4 0 1 "ligaStandardLigatureslookup0"  {"ligaStandardLigatureslookup0 subtable"  } ['liga' ('latn' <'dflt' > 'grek' <'dflt' > 'DFLT' <'dflt' > ) ]
Lookup: 4 0 0 "fracDiagonalFractionslookup11"  {"fracDiagonalFractionslookup11 subtable"  } ['frac' ('latn' <'dflt' 'CAT ' 'MOL ' 'ROM ' 'TRK ' > 'grek' <'dflt' > 'DFLT' <'dflt' > ) ]
Lookup: 6 0 0 "ordnOrdinalslookup12"  {"ordnOrdinalslookup12 contextual 0"  "ordnOrdinalslookup12 contextual 1"  } ['ordn' ('latn' <'dflt' 'CAT ' 'MOL ' 'ROM ' 'TRK ' > 'grek' <'dflt' > 'DFLT' <'dflt' > ) ]
Lookup: 1 0 0 "Single Substitution lookup 3"  {"Single Substitution lookup 3 subtable"  } []
Lookup: 1 0 0 "Single Substitution lookup 4"  {"Single Substitution lookup 4 subtable"  } []
Lookup: 4 0 0 "dligDiscretionaryLigatureslooku"  {"dligDiscretionaryLigatureslooku subtable"  } ['dlig' ('latn' <'dflt' 'CAT ' 'MOL ' 'ROM ' 'TRK ' > 'grek' <'dflt' > 'DFLT' <'dflt' > ) ]
MarkAttachClasses: 1
DEI: 91125
ChainSub2: coverage "ordnOrdinalslookup12 contextual 1"  0 0 0 1
 1 1 0
  Coverage: 3 O o
  BCoverage: 49 zero one two three four five six seven eight nine
 1
  SeqLookup: 0 "Single Substitution lookup 4" 
EndFPST

StartChar: A
Encoding: 33 65 0
Width: 1479
VWidth: 0
GlyphClass: 2
Flags: W
PickledData: "(dp1
S'org.pippin.gimp.org.kernagic'
p2
(dp3
S'lstem'
p4
I0
sS'rstem'
p5
I0
ssS'com.typemytype.robofont.layerData'
p6
(dp7
sS'org.robofab.postScriptHintData'
p8
(dp9
s."
AnchorPoint: "bot" 742 0 basechar 0
AnchorPoint: "top" 742 1456 basechar 0
LayerCount: 2
Fore
SplineSet
571 1456 m 257
 58 0 l 257
 346 0 l 257
 485.556 408 l 257
 988.947 408 l 257
 1133 0 l 257
 1421 0 l 257
 909 1456 l 257
 571 1456 l 257
543.51 590 m 257
 739.451 1211.17 l 257
 934.606 590 l 257
 543.51 590 l 257
EndSplineSet
Substitution2: "Single Substitution lookup 3 subtable" ordfeminine
EndChar

StartChar: AE
Encoding: 133 198 1
Width: 1826
VWidth: 0
GlyphClass: 2
Flags: W
PickledData: "(dp1
S'org.pippin.gimp.org.kernagic'
p2
(dp3
S'lstem'
p4
I0
sS'rstem'
p5
I0
ssS'com.typemytype.robofont.layerData'
p6
(dp7
sS'org.robofab.postScriptHintData'
p8
(dp9
s."
LayerCount: 2
Fore
SplineSet
873 587 m 257
 558 587 l 257
 873 1170 l 257
 873 587 l 257
795 1456 m 257
 -41 0 l 257
 248 0 l 257
 473 410 l 257
 873 410 l 257
 873 0 l 257
 1735 0 l 257
 1746 198 l 257
 1108 198 l 257
 1108 652 l 257
 1674 652 l 257
 1674 846 l 257
 1108 846 l 257
 1108 1264 l 257
 1713 1264 l 257
 1726 1456 l 257
 795 1456 l 257
EndSplineSet
EndChar

StartChar: B
Encoding: 34 66 13
Width: 1409
VWidth: 0
GlyphClass: 2
Flags: W
PickledData: "(dp1
S'org.pippin.gimp.org.kernagic'
p2
(dp3
S'lstem'
p4
I0
sS'rstem'
p5
I0
ssS'com.typemytype.robofont.layerData'
p6
(dp7
sS'org.robofab.postScriptHintData'
p8
(dp9
s."
AnchorPoint: "top" 679 1456 basechar 0
LayerCount: 2
Fore
SplineSet
584 -4 m 256
 1133 -4 1301 137 1301 433 c 256
 1301 629.185 1207.63 738.726 987.333 785.508 c 257
 1167.83 840.814 1256 950.741 1256 1091 c 256
 1256 1359 1071 1466 622 1466 c 256
 499 1466 354 1459 187 1444 c 257
 187 14 l 257
 337 2 470 -4 584 -4 c 256
475 1273.96 m 257
 530.868 1278.1 589.265 1280 641 1280 c 256
 882 1280 967 1226 967 1065 c 256
 967 906 846 863 688 863 c 258
 475 863 l 257
 475 1273.96 l 257
475 685 m 257
 679 685 l 258
 908 685 1015 633 1015 444 c 256
 1015 276 952 191 618 191 c 256
 572.025 191 522.277 193.096 475 196.475 c 257
 475 685 l 257
EndSplineSet
EndChar

StartChar: C
Encoding: 35 67 14
Width: 1513
VWidth: 0
GlyphClass: 2
Flags: W
PickledData: "(dp1
S'org.pippin.gimp.org.kernagic'
p2
(dp3
S'lstem'
p4
I0
sS'rstem'
p5
I0
ssS'com.typemytype.robofont.layerData'
p6
(dp7
sS'org.robofab.postScriptHintData'
p8
(dp9
s."
AnchorPoint: "bot" 826 0 basechar 0
AnchorPoint: "top" 828 1456 basechar 0
LayerCount: 2
Fore
SplineSet
1413 1062 m 257
 1368.6 1271.59 1167.5 1477.17 825.339 1477.17 c 256
 399.242 1477.17 134 1206.1 134 731 c 256
 134 250.969 399.243 -20.1716 825.341 -20.1716 c 256
 1175.38 -20.1716 1369.6 182.474 1415 394 c 257
 1206 476 l 257
 1184 476 l 257
 1147.69 325.562 1025.95 185.786 834.159 185.786 c 256
 598.174 185.786 436 350.916 436 731 c 256
 436 1113.68 592.319 1270.01 850.835 1270.01 c 256
 1030.79 1270.01 1147.12 1123.51 1182 980 c 257
 1204 980 l 257
 1413 1062 l 257
EndSplineSet
EndChar

StartChar: D
Encoding: 36 68 21
Width: 1527
VWidth: 0
GlyphClass: 2
Flags: W
PickledData: "(dp1
S'org.pippin.gimp.org.kernagic'
p2
(dp3
S'lstem'
p4
I0
sS'rstem'
p5
I0
ssS'com.fontlab.hintData'
p6
(dp7
S'vhints'
p8
((dp9
S'position'
p10
I1280
sS'width'
p11
I122
stp12
sS'hhints'
p13
((dp14
g10
I0
sg11
I94
s(dp15
g10
I1355
sg11
I94
stp16
ssS'com.typemytype.robofont.layerData'
p17
(dp18
sS'org.robofab.postScriptHintData'
p19
(dp20
s."
HStem: 0 94 1355 94
VStem: 1280 122
AnchorPoint: "bot" 774 0 basechar 0
AnchorPoint: "top" 776 1456 basechar 0
LayerCount: 2
Fore
SplineSet
187 8 m 257
 301.905 -4.86347 406.836 -11.0568 502.502 -11.0568 c 256
 1180.29 -11.0568 1393 299.823 1393 752 c 256
 1393 1222.85 1200.95 1465.13 556.651 1465.13 c 256
 446.968 1465.13 324.179 1458.11 187 1444 c 257
 187 8 l 257
475 197.197 m 257
 475 1263.48 l 257
 520.064 1267.1 562.028 1268.86 601.098 1268.86 c 256
 1037.96 1268.86 1113 1048.89 1113 747 c 256
 1113 416.308 996.972 193.135 577.829 193.135 c 256
 545.396 193.135 511.149 194.471 475 197.197 c 257
EndSplineSet
EndChar

StartChar: uni0394
Encoding: 413 916 24
Width: 1334
VWidth: 0
Flags: W
PickledData: "(dp1
S'org.pippin.gimp.org.kernagic'
p2
(dp3
S'lstem'
p4
I0
sS'rstem'
p5
I0
ssS'com.typemytype.robofont.layerData'
p6
(dp7
S'b'
(dp8
S'name'
p9
S'Delta'
p10
sS'lib'
p11
(dp12
sS'unicodes'
p13
(tsS'width'
p14
I1334
sS'contours'
p15
(tsS'components'
p16
(tsS'anchors'
p17
(tsssS'org.robofab.postScriptHintData'
p18
(dp19
s."
LayerCount: 2
Fore
SplineSet
296 182 m 257
 655 1276 l 257
 1020 182 l 257
 296 182 l 257
31 0 m 257
 1283 0 l 257
 760 1507 l 257
 551 1507 l 257
 31 0 l 257
EndSplineSet
EndChar

StartChar: E
Encoding: 37 69 25
Width: 1335
VWidth: 0
GlyphClass: 2
Flags: W
PickledData: "(dp1
S'org.pippin.gimp.org.kernagic'
p2
(dp3
S'lstem'
p4
I0
sS'rstem'
p5
I0
ssS'com.typemytype.robofont.layerData'
p6
(dp7
sS'org.robofab.postScriptHintData'
p8
(dp9
s."
AnchorPoint: "bot" 688 0 basechar 0
AnchorPoint: "top" 747 1456 basechar 0
LayerCount: 2
Fore
SplineSet
187 1456 m 257
 187 0 l 257
 1198 0 l 257
 1206 204 l 257
 474 204 l 257
 474 650 l 257
 1136 650 l 257
 1136 849 l 257
 474 849 l 257
 474 1258 l 257
 1175 1258 l 257
 1188 1456 l 257
 187 1456 l 257
EndSplineSet
EndChar

StartChar: Eng
Encoding: 265 330 34
Width: 1577
VWidth: 0
GlyphClass: 2
Flags: W
PickledData: "(dp1
S'org.robofab.postScriptHintData'
p2
(dp3
s."
LayerCount: 2
Fore
SplineSet
1128 992 m 257
 1128 -10 l 258
 1128 -231 1088 -287 790 -287 c 257
 804 -470 l 257
 1241 -460 1393 -348 1393 -31 c 258
 1393 992 l 257
 1128 992 l 257
EndSplineSet
Refer: 70 78 N 1 0 0 1 0 0 2
EndChar

StartChar: Euro
Encoding: 461 8364 37
Width: 1391
VWidth: 0
GlyphClass: 2
Flags: W
PickledData: "(dp1
S'org.pippin.gimp.org.kernagic'
p2
(dp3
S'lstem'
p4
I0
sS'rstem'
p5
I0
ssS'com.typemytype.robofont.layerData'
p6
(dp7
S'b'
(dp8
S'name'
p9
S'Euro'
p10
sS'lib'
p11
(dp12
sS'unicodes'
p13
(tsS'width'
p14
I1391
sS'contours'
p15
(tsS'components'
p16
(tsS'anchors'
p17
(tsssS'org.robofab.postScriptHintData'
p18
(dp19
s."
LayerCount: 2
Fore
SplineSet
-71 527 m 257
 806 527 l 257
 809 661 l 257
 240 661 l 257
 240 810 l 257
 809 810 l 257
 813 943 l 257
 -66 943 l 257
 -68 810 l 257
 104 810 l 257
 104 661 l 257
 -69 661 l 257
 -71 527 l 257
EndSplineSet
Refer: 14 67 N 1 0 0 1 -56 0 2
EndChar

StartChar: F
Encoding: 38 70 38
Width: 1234
VWidth: 0
GlyphClass: 2
Flags: W
PickledData: "(dp1
S'org.pippin.gimp.org.kernagic'
p2
(dp3
S'lstem'
p4
I0
sS'rstem'
p5
I705
ssS'com.typemytype.robofont.layerData'
p6
(dp7
sS'org.robofab.postScriptHintData'
p8
(dp9
s."
AnchorPoint: "top" 733 1456 basechar 0
LayerCount: 2
Fore
SplineSet
187 1456 m 257
 187 0 l 257
 475 0 l 257
 475 624 l 257
 1105 624 l 257
 1105 821 l 257
 475 821 l 257
 475 1250 l 257
 1162 1250 l 257
 1176 1456 l 257
 187 1456 l 257
EndSplineSet
EndChar

StartChar: G
Encoding: 39 71 39
Width: 1536
VWidth: 0
GlyphClass: 2
Flags: W
PickledData: "(dp1
S'org.pippin.gimp.org.kernagic'
p2
(dp3
S'lstem'
p4
I0
sS'rstem'
p5
I0
ssS'com.typemytype.robofont.layerData'
p6
(dp7
sS'org.robofab.postScriptHintData'
p8
(dp9
s."
AnchorPoint: "bot" 783 0 basechar 0
AnchorPoint: "top" 818 1456 basechar 0
LayerCount: 2
Fore
SplineSet
831 -20 m 256
 1055 -20 1236 12 1389 79 c 257
 1389 796 l 257
 838 796 l 257
 829 612 l 257
 1145 591.107 l 257
 1145 225.876 l 257
 1081.63 203.771 993.091 185 879 185 c 256
 593 185 436 351 436 732 c 256
 436 1081 581 1270 866 1270 c 256
 1042 1270 1141 1174 1197 1084 c 257
 1219 1084 l 257
 1394 1203 l 257
 1311 1360 1130 1476 846 1476 c 256
 402 1476 134 1197 134 732 c 256
 134 265 384 -20 831 -20 c 256
EndSplineSet
EndChar

StartChar: H
Encoding: 40 72 45
Width: 1568
VWidth: 0
GlyphClass: 2
Flags: W
PickledData: "(dp1
S'org.pippin.gimp.org.kernagic'
p2
(dp3
S'lstem'
p4
I0
sS'rstem'
p5
I0
ssS'com.typemytype.robofont.layerData'
p6
(dp7
sS'org.robofab.postScriptHintData'
p8
(dp9
s."
AnchorPoint: "top" 796 1456 basechar 0
LayerCount: 2
Fore
SplineSet
1091 647 m 257
 1091 -3 l 257
 1379 -3 l 257
 1379 1456 l 257
 1091 1456 l 257
 1091 848 l 257
 477 848 l 257
 477 1456 l 257
 189 1456 l 257
 189 -3 l 257
 477 -3 l 257
 477 647 l 257
 1091 647 l 257
EndSplineSet
EndChar

StartChar: Hbar
Encoding: 229 294 46
Width: 1538
VWidth: 0
GlyphClass: 2
Flags: W
PickledData: "(dp1
S'org.pippin.gimp.org.kernagic'
p2
(dp3
S'lstem'
p4
I0
sS'rstem'
p5
I0
ssS'com.typemytype.robofont.layerData'
p6
(dp7
sS'org.robofab.postScriptHintData'
p8
(dp9
s."
LayerCount: 2
Fore
SplineSet
63 1285 m 257
 63 1122 l 257
 1468 1122 l 257
 1468 1285 l 257
 63 1285 l 257
EndSplineSet
Refer: 45 72 N 1 0 0 1 0 0 2
EndChar

StartChar: I
Encoding: 41 73 48
Width: 1012
VWidth: 0
GlyphClass: 2
Flags: W
PickledData: "(dp1
S'org.pippin.gimp.org.kernagic'
p2
(dp3
S'lstem'
p4
I0
sS'rstem'
p5
I0
ssS'com.fontlab.hintData'
p6
(dp7
S'vhints'
p8
((dp9
S'position'
p10
I111
sS'width'
p11
I529
stp12
sS'hhints'
p13
((dp14
g10
I0
sg11
I86
s(dp15
g10
I1363
sg11
I86
stp16
ssS'com.typemytype.robofont.layerData'
p17
(dp18
sS'org.robofab.postScriptHintData'
p19
(dp20
s."
HStem: 0 86 1363 86
VStem: 111 529
AnchorPoint: "top" 506 1456 basechar 0
LayerCount: 2
Fore
SplineSet
155 1456 m 257
 155 1295 l 257
 362 1295 l 257
 362 158 l 257
 155 158 l 257
 155 -3 l 257
 852 -3 l 257
 852 158 l 257
 649 158 l 257
 649 1295 l 257
 852 1295 l 257
 852 1456 l 257
 155 1456 l 257
EndSplineSet
EndChar

StartChar: J
Encoding: 42 74 59
Width: 807
VWidth: 0
GlyphClass: 2
Flags: W
PickledData: "(dp1
S'org.pippin.gimp.org.kernagic'
p2
(dp3
S'lstem'
p4
I132
sS'rstem'
p5
I0
ssS'com.typemytype.robofont.layerData'
p6
(dp7
sS'org.robofab.postScriptHintData'
p8
(dp9
s."
AnchorPoint: "top" 465 1456 basechar 0
LayerCount: 2
Fore
SplineSet
317 1456 m 257
 317 155 l 258
 317 -113 309 -155 200 -204 c 257
 41 -278 l 257
 138 -497 l 257
 266 -444 l 258
 598 -306 604 -206 604 150 c 258
 604 1456 l 257
 317 1456 l 257
EndSplineSet
EndChar

StartChar: K
Encoding: 43 75 61
Width: 1386
VWidth: 0
GlyphClass: 2
Flags: W
PickledData: "(dp1
S'org.pippin.gimp.org.kernagic'
p2
(dp3
S'lstem'
p4
I0
sS'rstem'
p5
I851
ssS'com.typemytype.robofont.layerData'
p6
(dp7
sS'org.robofab.postScriptHintData'
p8
(dp9
s."
AnchorPoint: "bot" 734 0 basechar 0
AnchorPoint: "top" 734 1456 basechar 0
LayerCount: 2
Fore
SplineSet
1347 1456 m 257
 1032 1456 l 257
 475 829.259 l 257
 475 1456 l 257
 187 1456 l 257
 187 0 l 257
 475 0 l 257
 475 553.159 l 257
 577.894 661.9 l 257
 1071 0 l 257
 1393 0 l 257
 1393 13 l 257
 789.798 815.722 l 257
 1347 1445 l 257
 1347 1456 l 257
EndSplineSet
EndChar

StartChar: L
Encoding: 44 76 63
Width: 1154
VWidth: 0
GlyphClass: 2
Flags: W
PickledData: "(dp1
S'org.pippin.gimp.org.kernagic'
p2
(dp3
S'lstem'
p4
I0
sS'rstem'
p5
I597
ssS'com.typemytype.robofont.layerData'
p6
(dp7
sS'org.robofab.postScriptHintData'
p8
(dp9
s."
AnchorPoint: "bot" 595 0 basechar 0
AnchorPoint: "top" 408 1456 basechar 0
LayerCount: 2
Fore
SplineSet
187 1456 m 257
 187 0 l 257
 1131 0 l 257
 1144 193 l 257
 475 193 l 257
 475 1456 l 257
 187 1456 l 257
EndSplineSet
EndChar

StartChar: M
Encoding: 45 77 69
Width: 1860
VWidth: 0
GlyphClass: 2
Flags: W
PickledData: "(dp1
S'org.pippin.gimp.org.kernagic'
p2
(dp3
S'lstem'
p4
I0
sS'rstem'
p5
I0
ssS'org.robofab.postScriptHintData'
p6
(dp7
sS'com.typemytype.robofont.guides'
p8
((dp9
S'y'
I378
sS'x'
I548
sS'magnetic'
p10
I5
sS'angle'
p11
I0
sS'isGlobal'
p12
I00
stp13
sS'com.typemytype.robofont.layerData'
p14
(dp15
sS'com.fontlab.hintData'
p16
(dp17
S'vhints'
p18
((dp19
S'position'
p20
I185
sS'width'
p21
I166
s(dp22
g20
I214
sg21
I151
s(dp23
g20
I332
sg21
I33
s(dp24
g20
I1463
sg21
I149
s(dp25
g20
I1463
sg21
I39
s(dp26
g20
I1477
sg21
I164
stp27
ss."
VStem: 185 166 214 151 332 33 1463 149 1463 39 1477 164
AnchorPoint: "top" 938 1456 basechar 0
LayerCount: 2
Fore
SplineSet
168 -3 m 257
 437 -3 l 257
 437 517 l 257
 445.89 1046.72 l 257
 831 205 l 257
 1024 205 l 257
 1413.96 1040.51 l 257
 1422 520 l 257
 1422 -3 l 257
 1692 -3 l 257
 1692 553 l 257
 1669 1456 l 257
 1368 1456 l 257
 933.542 531.172 l 257
 500 1456 l 257
 191 1456 l 257
 168 549 l 257
 168 -3 l 257
EndSplineSet
EndChar

StartChar: N
Encoding: 46 78 70
Width: 1581
VWidth: 0
GlyphClass: 2
Flags: W
PickledData: "(dp1
S'org.pippin.gimp.org.kernagic'
p2
(dp3
S'lstem'
p4
I0
sS'rstem'
p5
I0
ssS'com.typemytype.robofont.layerData'
p6
(dp7
sS'org.robofab.postScriptHintData'
p8
(dp9
s."
AnchorPoint: "bot" 776 0 basechar 0
AnchorPoint: "top" 775 1456 basechar 0
LayerCount: 2
Fore
SplineSet
1128 1456 m 257
 1128 785 l 257
 1142.03 387.537 l 257
 464 1456 l 257
 187 1456 l 257
 187 0 l 257
 458 0 l 257
 458 635 l 257
 441.594 1042.02 l 257
 1107 0 l 257
 1394 0 l 257
 1394 1456 l 257
 1128 1456 l 257
EndSplineSet
EndChar

StartChar: O
Encoding: 47 79 75
Width: 1641
VWidth: 0
GlyphClass: 2
Flags: W
PickledData: "(dp1
S'org.pippin.gimp.org.kernagic'
p2
(dp3
S'lstem'
p4
I0
sS'rstem'
p5
I0
ssS'org.robofab.postScriptHintData'
p6
(dp7
sS'com.typemytype.robofont.guides'
p8
(tsS'com.typemytype.robofont.layerData'
p9
(dp10
sS'com.fontlab.hintData'
p11
(dp12
S'vhints'
p13
((dp14
S'position'
p15
I150
sS'width'
p16
I122
s(dp17
g15
I1390
sg16
I122
stp18
sS'hhints'
p19
((dp20
g15
I-19
sg16
I96
s(dp21
g15
I1372
sg16
I96
stp22
ss."
HStem: -19 96 1372 96
VStem: 150 122 1390 122
AnchorPoint: "top" 817 1456 basechar 0
LayerCount: 2
Fore
SplineSet
1203 721 m 256
 1203 395 1091 192 822 192 c 256
 553 192 438 395 438 721 c 256
 438 1054 559 1263 823 1263 c 256
 1088 1263 1203 1053 1203 721 c 256
136 722 m 256
 136 257 371 -21 823 -21 c 256
 1274 -21 1505 259 1505 722 c 256
 1505 1191 1267 1476 823 1476 c 256
 375 1476 136 1193 136 722 c 256
EndSplineSet
Substitution2: "Single Substitution lookup 4 subtable" ordmasculine
EndChar

StartChar: OE
Encoding: 273 338 76
Width: 2294
VWidth: 0
GlyphClass: 2
Flags: W
PickledData: "(dp1
S'org.pippin.gimp.org.kernagic'
p2
(dp3
S'lstem'
p4
I0
sS'rstem'
p5
I0
ssS'com.typemytype.robofont.layerData'
p6
(dp7
S'b'
(dp8
S'name'
p9
S'OE'
p10
sS'lib'
p11
(dp12
sS'unicodes'
p13
(tsS'width'
p14
I2367
sS'contours'
p15
(tsS'components'
p16
(tsS'anchors'
p17
(tsssS'org.robofab.postScriptHintData'
p18
(dp19
s."
LayerCount: 2
Fore
SplineSet
1173 724 m 256
 1173 400 1059 189 770 189 c 256
 481 189 364 400 364 724 c 256
 364 1060 487 1273 771 1273 c 256
 1056 1273 1173 1059 1173 724 c 256
106 725 m 256
 106 258 336 -18 771 -18 c 256
 953 -18 1083 31 1174 121 c 257
 1174 0 l 257
 2148 0 l 257
 2156 198 l 257
 1417 198 l 257
 1417 653 l 257
 2086 653 l 257
 2086 846 l 257
 1417 846 l 257
 1417 1264 l 257
 2125 1264 l 257
 2138 1456 l 257
 1174 1456 l 257
 1174 1337 l 257
 1082 1431 952 1480 771 1480 c 256
 340 1480 106 1202 106 725 c 256
EndSplineSet
EndChar

StartChar: Oslash
Encoding: 151 216 84
Width: 1643
VWidth: 0
GlyphClass: 2
Flags: W
PickledData: "(dp1
S'org.pippin.gimp.org.kernagic'
p2
(dp3
S'lstem'
p4
I0
sS'rstem'
p5
I0
ssS'com.typemytype.robofont.layerData'
p6
(dp7
sS'org.robofab.postScriptHintData'
p8
(dp9
s."
AnchorPoint: "top" 823 1456 basechar 0
LayerCount: 2
Fore
SplineSet
822 192 m 256
 780 192 742 197 708 207 c 257
 1072 1159 l 257
 1163 1068 1203 915 1203 721 c 256
 1203 395 1091 192 822 192 c 256
595 275 m 257
 484 359 438 517 438 721 c 256
 438 1054 559 1263 823 1263 c 256
 874 1263 920 1255 960 1240 c 257
 595 275 l 257
531 -254 m 257
 628 -2 l 257
 688 -15 753 -21 823 -21 c 256
 1274 -21 1505 259 1505 722 c 256
 1505 1050 1388 1289 1165 1402 c 257
 1265 1663 l 257
 1139 1711 l 257
 1039 1449 l 257
 974 1467 902 1476 823 1476 c 256
 375 1476 136 1193 136 722 c 256
 136 382 261 142 505 38 c 257
 411 -210 l 257
 531 -254 l 257
EndSplineSet
EndChar

StartChar: P
Encoding: 48 80 87
Width: 1382
VWidth: 0
GlyphClass: 2
Flags: W
PickledData: "(dp1
S'org.pippin.gimp.org.kernagic'
p2
(dp3
S'lstem'
p4
I0
sS'rstem'
p5
I807
ssS'com.typemytype.robofont.layerData'
p6
(dp7
sS'org.robofab.postScriptHintData'
p8
(dp9
s."
AnchorPoint: "top" 712 1456 basechar 0
LayerCount: 2
Fore
SplineSet
187 1444 m 257
 187 0 l 257
 475 0 l 257
 475 566.755 l 257
 538.737 562.258 597.885 560.066 652.734 560.066 c 256
 1160.88 560.066 1300 748.229 1300 1035 c 256
 1300 1325.63 1136.31 1465.81 608.224 1465.81 c 256
 487.619 1465.81 348.008 1458.5 187 1444 c 257
475 757.17 m 257
 475 1269.99 l 257
 535.272 1274.36 589.17 1276.47 637.34 1276.47 c 256
 968.559 1276.47 1029 1176.74 1029 1025 c 256
 1029 862.804 962.656 751.087 624.822 751.087 c 256
 579.853 751.087 530.073 753.067 475 757.17 c 257
EndSplineSet
EndChar

StartChar: Q
Encoding: 49 81 88
Width: 1630
VWidth: 0
GlyphClass: 2
Flags: W
PickledData: "(dp1
S'org.pippin.gimp.org.kernagic'
p2
(dp3
S'lstem'
p4
I0
sS'rstem'
p5
I0
ssS'com.typemytype.robofont.layerData'
p6
(dp7
sS'org.robofab.postScriptHintData'
p8
(dp9
s."
LayerCount: 2
Fore
SplineSet
786 62 m 257
 803 7 1117 -415 1206 -489 c 257
 1387 -344 l 257
 1301 -270 1088 19 1038 97 c 257
 786 62 l 257
EndSplineSet
Refer: 75 79 N 1 0 0 1 0 0 2
EndChar

StartChar: R
Encoding: 50 82 89
Width: 1418
VWidth: 0
GlyphClass: 2
Flags: W
PickledData: "(dp1
S'org.pippin.gimp.org.kernagic'
p2
(dp3
S'lstem'
p4
I0
sS'rstem'
p5
I839
ssS'com.fontlab.hintData'
p6
(dp7
S'vhints'
p8
((dp9
S'position'
p10
I1122
sS'width'
p11
I117
stp12
sS'hhints'
p13
((dp14
g10
I722
sg11
I96
s(dp15
g10
I1355
sg11
I94
stp16
ssS'com.typemytype.robofont.layerData'
p17
(dp18
sS'org.robofab.postScriptHintData'
p19
(dp20
s."
HStem: 722 96 1355 94
VStem: 1122 117
AnchorPoint: "bot" 733 0 basechar 0
AnchorPoint: "top" 733 1456 basechar 0
LayerCount: 2
Fore
SplineSet
1300.04 1052.77 m 256
 1300.04 1366.58 1134.82 1471.68 689.407 1471.68 c 256
 550.501 1471.68 384.23 1461.43 187 1444 c 257
 187 0 l 257
 475 0 l 257
 475 634.142 l 257
 724.858 634.864 l 257
 1047 0 l 257
 1358 0 l 257
 1358 18 l 257
 1011.02 671.525 l 257
 1169.4 716.767 1300.04 818.902 1300.04 1052.77 c 256
475 1262.99 m 257
 561.89 1270.42 637.208 1274.57 701.964 1274.57 c 256
 944.266 1274.57 1038.01 1216.95 1038.01 1054.54 c 256
 1038.01 878.175 961.306 815 701 815 c 258
 475 815 l 257
 475 1262.99 l 257
EndSplineSet
EndChar

StartChar: S
Encoding: 51 83 93
Width: 1225
VWidth: 0
GlyphClass: 2
Flags: W
PickledData: "(dp1
S'org.pippin.gimp.org.kernagic'
p2
(dp3
S'lstem'
p4
I185
sS'rstem'
p5
I826
ssS'com.typemytype.robofont.guides'
p6
((dp7
S'y'
I973
sS'x'
I1035
sS'magnetic'
p8
I5
sS'angle'
p9
F90
sS'isGlobal'
p10
I00
s(dp11
S'y'
I382
sS'x'
I75
sg8
I5
sg9
F90
sg10
I00
stp12
sS'com.typemytype.robofont.layerData'
p13
(dp14
sS'org.robofab.postScriptHintData'
p15
(dp16
s."
AnchorPoint: "bot" 614 0 basechar 0
AnchorPoint: "top" 619 1466 basechar 0
LayerCount: 2
Fore
SplineSet
840.066 385.508 m 256
 840.066 244.617 737.817 191 598 191 c 256
 481 191 358 257 285 339 c 257
 262 339 l 257
 94 203 l 257
 174 94 345 -20 606 -20 c 256
 883.484 -20 1124.02 105.276 1124.02 399.843 c 256
 1124.02 659.202 991.324 739.667 767 829 c 257
 579 905 l 258
 434.048 963.764 386.938 997.589 386.938 1096.66 c 256
 386.938 1230.86 495.851 1276.07 620.709 1276.07 c 256
 727.684 1276.07 840.292 1227.81 898 1133 c 257
 917 1133 l 257
 1094 1248 l 257
 1022 1365 856 1476 614 1476 c 256
 612.677 1476.01 611.354 1476.01 610.032 1476.01 c 256
 342.852 1476.01 103.602 1373.34 103.602 1066.53 c 256
 103.602 853.615 215.254 775.438 397 701 c 258
 610 614 l 258
 794.9 537.692 840.066 496.796 840.066 385.508 c 256
EndSplineSet
EndChar

StartChar: T
Encoding: 52 84 99
Width: 1215
VWidth: 0
GlyphClass: 2
Flags: W
PickledData: "(dp1
S'org.pippin.gimp.org.kernagic'
p2
(dp3
S'lstem'
p4
I285
sS'rstem'
p5
I844
ssS'com.typemytype.robofont.layerData'
p6
(dp7
sS'org.robofab.postScriptHintData'
p8
(dp9
s."
AnchorPoint: "bot" 613 0 basechar 0
AnchorPoint: "top" 613 1456 basechar 0
LayerCount: 2
Fore
SplineSet
24 1456 m 257
 24 1264 l 257
 464 1264 l 257
 464 -3 l 257
 751 -3 l 257
 751 1264 l 257
 1191 1264 l 257
 1191 1456 l 257
 24 1456 l 257
EndSplineSet
EndChar

StartChar: Thorn
Encoding: 157 222 104
Width: 1333
VWidth: 0
GlyphClass: 2
Flags: W
PickledData: "(dp1
S'org.pippin.gimp.org.kernagic'
p2
(dp3
S'lstem'
p4
I0
sS'rstem'
p5
I0
ssS'com.typemytype.robofont.layerData'
p6
(dp7
S'b'
(dp8
S'name'
p9
S'Thorn'
p10
sS'lib'
p11
(dp12
sS'unicodes'
p13
(tsS'width'
p14
I1192
sS'contours'
p15
(tsS'components'
p16
(tsS'anchors'
p17
(tsssS'org.robofab.postScriptHintData'
p18
(dp19
s."
LayerCount: 2
Fore
SplineSet
180 0 m 257
 468 0 l 257
 468 385 l 257
 628 385 l 258
 1061 385 1211 543 1211 833 c 256
 1211 1118 1023 1227 604 1227 c 258
 468 1227 l 257
 468 1476 l 257
 180 1476 l 257
 180 0 l 257
468 1038 m 257
 615 1038 l 258
 616.785 1038.01 618.562 1038.01 620.329 1038.01 c 256
 859.083 1038.01 932 970.898 932 822 c 256
 932 660 861 578 597 578 c 258
 468 578 l 257
 468 1038 l 257
EndSplineSet
EndChar

StartChar: U
Encoding: 53 85 105
Width: 1492
VWidth: 0
GlyphClass: 2
Flags: W
PickledData: "(dp1
S'org.pippin.gimp.org.kernagic'
p2
(dp3
S'lstem'
p4
I0
sS'rstem'
p5
I0
ssS'com.typemytype.robofont.layerData'
p6
(dp7
sS'org.robofab.postScriptHintData'
p8
(dp9
s."
AnchorPoint: "bot" 751 1 basechar 0
AnchorPoint: "top" 750 1456 basechar 0
LayerCount: 2
Fore
SplineSet
1045 1457 m 257
 1045 552 l 258
 1045 310 949 193 742 193 c 256
 535 193 444 309 444 551 c 258
 444 1457 l 257
 157 1457 l 257
 157 538 l 258
 157 198 344 -20 742 -20 c 256
 1138 -20 1332 202 1332 536 c 258
 1332 1457 l 257
 1045 1457 l 257
EndSplineSet
EndChar

StartChar: V
Encoding: 54 86 116
Width: 1411
VWidth: 0
GlyphClass: 2
Flags: W
PickledData: "(dp1
S'org.pippin.gimp.org.kernagic'
p2
(dp3
S'lstem'
p4
I0
sS'rstem'
p5
I0
ssS'com.typemytype.robofont.layerData'
p6
(dp7
sS'org.robofab.postScriptHintData'
p8
(dp9
s."
LayerCount: 2
Fore
SplineSet
541 -3 m 257
 845 -3 l 257
 1369 1456 l 257
 1082 1456 l 257
 784 543 l 257
 699.452 262.082 l 257
 579.621 665.041 449.832 1058.04 325 1456 c 257
 42 1456 l 257
 541 -3 l 257
EndSplineSet
EndChar

StartChar: W
Encoding: 55 87 117
Width: 2013
VWidth: 0
GlyphClass: 2
Flags: W
PickledData: "(dp1
S'org.pippin.gimp.org.kernagic'
p2
(dp3
S'lstem'
p4
I0
sS'rstem'
p5
I0
ssS'com.typemytype.robofont.layerData'
p6
(dp7
sS'org.robofab.postScriptHintData'
p8
(dp9
s."
AnchorPoint: "bot" 1001 0 basechar 0
AnchorPoint: "top" 1015 1456 basechar 0
LayerCount: 2
Fore
SplineSet
1008.77 1082.89 m 257
 1307 0 l 257
 1572 0 l 257
 1950 1456 l 257
 1673 1456 l 257
 1430.41 367.141 l 257
 1128 1439 l 257
 887 1439 l 257
 583.899 376.765 l 257
 333 1456 l 257
 63 1456 l 257
 431 0 l 257
 696 0 l 257
 1008.77 1082.89 l 257
EndSplineSet
EndChar

StartChar: X
Encoding: 56 88 122
Width: 1356
VWidth: 0
GlyphClass: 2
Flags: W
PickledData: "(dp1
S'org.pippin.gimp.org.kernagic'
p2
(dp3
S'lstem'
p4
I0
sS'rstem'
p5
I0
ssS'com.typemytype.robofont.layerData'
p6
(dp7
sS'org.robofab.postScriptHintData'
p8
(dp9
s."
LayerCount: 2
Fore
SplineSet
842.673 735.256 m 257
 1317 1456 l 257
 1010 1456 l 257
 693.285 959.723 l 257
 363 1456 l 257
 48 1456 l 257
 515.452 752.894 l 257
 18 -3 l 257
 314 -3 l 257
 665.592 527.065 l 257
 1018 -3 l 257
 1334 -3 l 257
 842.673 735.256 l 257
EndSplineSet
EndChar

StartChar: Y
Encoding: 57 89 123
Width: 1356
VWidth: 0
GlyphClass: 2
Flags: W
PickledData: "(dp1
S'org.pippin.gimp.org.kernagic'
p2
(dp3
S'lstem'
p4
I0
sS'rstem'
p5
I0
ssS'com.typemytype.robofont.layerData'
p6
(dp7
sS'org.robofab.postScriptHintData'
p8
(dp9
s."
AnchorPoint: "top" 681 1456 basechar 0
LayerCount: 2
Fore
SplineSet
822 543.511 m 257
 1318 1456 l 257
 1021 1456 l 257
 677.338 805.431 l 257
 330 1456 l 257
 38 1456 l 257
 535 543.259 l 257
 535 0 l 257
 822 0 l 257
 822 543.511 l 257
EndSplineSet
EndChar

StartChar: Z
Encoding: 58 90 128
Width: 1228
VWidth: 0
GlyphClass: 2
Flags: W
PickledData: "(dp1
S'org.pippin.gimp.org.kernagic'
p2
(dp3
S'lstem'
p4
I0
sS'rstem'
p5
I0
ssS'com.typemytype.robofont.layerData'
p6
(dp7
sS'org.robofab.postScriptHintData'
p8
(dp9
s."
AnchorPoint: "bot" 624 0 basechar 0
AnchorPoint: "top" 653 1456 basechar 0
LayerCount: 2
Fore
SplineSet
100 0 m 257
 1156 0 l 257
 1152 193 l 257
 435.655 193 l 257
 1139 1284 l 257
 1136 1456 l 257
 119 1456 l 257
 128 1264 l 257
 826.296 1264 l 257
 100 165 l 257
 100 0 l 257
EndSplineSet
EndChar

StartChar: a
Encoding: 65 97 132
Width: 1141
VWidth: 0
GlyphClass: 2
Flags: W
PickledData: "(dp1
S'org.pippin.gimp.org.kernagic'
p2
(dp3
S'lstem'
p4
I0
sS'rstem'
p5
I0
ssS'org.robofab.postScriptHintData'
p6
(dp7
sS'com.typemytype.robofont.guides'
p8
(tsS'com.typemytype.robofont.layerData'
p9
(dp10
sS'com.fontlab.hintData'
p11
(dp12
S'vhints'
p13
((dp14
S'position'
p15
I126
sS'width'
p16
I120
s(dp17
g15
I842
sg16
I32
s(dp18
g15
I875
sg16
I86
stp19
sS'hhints'
p20
((dp21
g15
I-15
sg16
I92
s(dp22
g15
I535
sg16
I82
s(dp23
g15
I983
sg16
I92
stp24
ss."
HStem: -15 92 535 82 983 92
VStem: 126 120 842 32 875 86
AnchorPoint: "bot" 565 0 basechar 0
AnchorPoint: "top" 562 1082 basechar 0
LayerCount: 2
Fore
SplineSet
500.921 143.99 m 256
 419.358 143.99 343.99 190.442 343.99 302.771 c 256
 343.99 423.58 434.337 473.015 602.904 473.015 c 256
 604.595 473.015 606.294 473.01 608 473 c 258
 746 473 l 257
 746 251.932 l 257
 695.393 194.675 619.811 143.99 500.921 143.99 c 256
747 611.314 m 257
 559 613 l 258
 556.149 613.022 553.305 613.033 550.469 613.033 c 256
 291.751 613.033 99 522.561 99 300 c 256
 99 89 238 -18 437 -18 c 256
 596.492 -18 698.63 36.237 779.347 124.53 c 257
 804 0 l 257
 1012 0 l 257
 1012 669 l 258
 1012 983 826 1103 575 1103 c 256
 429 1103 269 1066 138 993 c 257
 197 818 l 257
 309 877 442 911 542 911 c 256
 673 911 747 852 747 710 c 258
 747 611.314 l 257
EndSplineSet
Substitution2: "Single Substitution lookup 3 subtable" ordfeminine
EndChar

StartChar: acute
Encoding: 115 180 136
Width: 763
VWidth: 0
GlyphClass: 4
Flags: W
PickledData: "(dp1
S'org.robofab.postScriptHintData'
p2
(dp3
sS'com.typemytype.robofont.layerData'
p4
(dp5
s."
AnchorPoint: "top" 427 1082 mark 0
LayerCount: 2
Fore
SplineSet
344 1208 m 257
 503 1208 l 257
 822 1600 l 257
 529 1600 l 257
 344 1208 l 257
EndSplineSet
EndChar

StartChar: ae
Encoding: 165 230 138
Width: 1705
VWidth: 0
GlyphClass: 2
Flags: W
PickledData: "(dp1
S'org.pippin.gimp.org.kernagic'
p2
(dp3
S'lstem'
p4
I0
sS'rstem'
p5
I0
ssS'com.fontlab.hintData'
p6
(dp7
S'vhints'
p8
((dp9
S'position'
p10
I126
sS'width'
p11
I119
s(dp12
g10
I817
sg11
I117
s(dp13
g10
I817
sg11
I82
s(dp14
g10
I1556
sg11
I98
stp15
sS'hhints'
p16
((dp17
g10
I-14
sg11
I98
s(dp18
g10
I518
sg11
I82
s(dp19
g10
I983
sg11
I92
stp20
ssS'com.typemytype.robofont.layerData'
p21
(dp22
sS'org.robofab.postScriptHintData'
p23
(dp24
s."
HStem: -14 98 518 82 983 92
VStem: 126 119 817 117 817 82 1556 98
AnchorPoint: "top" 1054 1082 basechar 0
LayerCount: 2
Fore
SplineSet
1235 926 m 256
 1385.41 926 1432.19 846.958 1432.19 759.714 c 256
 1432.19 678.343 1399.18 606.97 1099.22 606.97 c 256
 1058.84 606.97 1013.63 608.263 963 611 c 257
 977 832 1093 926 1235 926 c 256
744 319 m 257
 730.061 220.431 630.429 142.742 475.653 142.742 c 256
 398.711 142.742 310.97 185.383 310.97 301.245 c 256
 310.97 424.391 388.268 489 562 489 c 256
 585 489 682 486 724 481 c 257
 724 465 734 340 744 319 c 257
1630.06 747.715 m 256
 1630.06 921.412 1507.19 1102 1230 1102 c 256
 1065 1102 946 1040 872 917 c 257
 832 1042 712 1101 542 1101 c 256
 380 1101 237 1057 94 975 c 257
 163 813 l 257
 286 878 414 909 513 909 c 256
 644 909 722 855 722 708 c 258
 722 621 l 257
 678 626 539 628 513 628 c 256
 511.748 628.005 510.498 628.007 509.25 628.007 c 256
 248.243 628.007 65 523.929 65 300 c 256
 65 89 200 -14 399 -18 c 256
 581 -18 744 37 831 173 c 257
 906 56 1023 -20 1229 -20 c 256
 1397 -20 1543 30 1629 101 c 257
 1575 257 l 257
 1488 205 1393 162 1261 162 c 256
 1112 162 982 217 961 453 c 257
 1006.82 451.457 1051.26 450.506 1093.99 450.506 c 256
 1408.16 450.506 1630.06 501.935 1630.06 747.715 c 256
EndSplineSet
EndChar

StartChar: ampersand
Encoding: 6 38 143
Width: 1420
VWidth: 0
GlyphClass: 2
Flags: W
PickledData: "(dp1
S'org.pippin.gimp.org.kernagic'
p2
(dp3
S'lstem'
p4
I0
sS'rstem'
p5
I0
ssS'com.fontlab.hintData'
p6
(dp7
S'vhints'
p8
((dp9
S'position'
p10
I135
sS'width'
p11
I121
s(dp12
g10
I312
sg11
I105
s(dp13
g10
I917
sg11
I110
stp14
sS'hhints'
p15
((dp16
g10
I-19
sg11
I96
s(dp17
g10
I1372
sg11
I96
stp18
ssS'com.typemytype.robofont.layerData'
p19
(dp20
sS'org.robofab.postScriptHintData'
p21
(dp22
s."
HStem: -19 96 1372 96
VStem: 135 121 312 105 917 110
LayerCount: 2
Fore
SplineSet
624.195 1348.01 m 256
 727.952 1348.01 793 1297.04 793 1194 c 256
 793 1077 681 978 568 919 c 257
 471 1031 443 1098 443 1190 c 256
 443 1294.05 522.533 1348.01 624.195 1348.01 c 256
94.6262 421.874 m 256
 94.6262 137.936 290.799 -18 582 -18 c 256
 765.559 -18 907.188 52.0503 1020.8 153.328 c 257
 1194 -30 l 257
 1336 97 l 257
 1149.17 293.307 l 257
 1245.11 418.088 1317.25 559.003 1381 673 c 257
 1236 772 l 257
 1162.69 631.499 1093.42 515.875 1024.39 424.426 c 257
 666 801 l 257
 834 891 1000 1020 1000 1199 c 256
 1000 1417 813 1511 622 1511 c 256
 415 1511 232 1389 232 1172 c 256
 232 1042 315 917 401 829 c 257
 245.45 739.559 94.6262 627.434 94.6262 421.874 c 256
897.451 283.891 m 257
 814.36 210.202 611.367 157.315 593.205 157.315 c 256
 592.347 157.315 591.901 157.433 591.901 157.673 c 256
 591.901 158.085 593.213 158.855 596 160 c 257
 428 160 314 250 316 413 c 256
 314 551 428 650 510 694 c 257
 897.451 283.891 l 257
EndSplineSet
EndChar

StartChar: uni02BC
Encoding: 65537 700 145
Width: 647
VWidth: 0
Flags: W
PickledData: "(dp1
S'org.robofab.postScriptHintData'
p2
(dp3
sS'com.typemytype.robofont.layerData'
p4
(dp5
s."
LayerCount: 2
Fore
SplineSet
82 1123 m 257
 276 1123 l 257
 276 1123 354 1439 379 1577 c 257
 140 1577 l 257
 132 1507 82 1123 82 1123 c 257
EndSplineSet
EndChar

StartChar: approxequal
Encoding: 477 8776 146
Width: 1225
VWidth: 0
GlyphClass: 2
Flags: W
PickledData: "(dp1
S'org.pippin.gimp.org.kernagic'
p2
(dp3
S'lstem'
p4
I0
sS'rstem'
p5
I0
ssS'com.typemytype.robofont.layerData'
p6
(dp7
S'b'
(dp8
S'name'
p9
S'approxequal'
p10
sS'lib'
p11
(dp12
sS'unicodes'
p13
(tsS'width'
p14
I1136
sS'contours'
p15
(tsS'components'
p16
(tsS'anchors'
p17
(tsssS'org.robofab.postScriptHintData'
p18
(dp19
s."
LayerCount: 2
Fore
SplineSet
193 370 m 257
 226.105 468.281 285.502 532.33 371.668 532.33 c 256
 432.13 532.33 492.889 501.111 559 469 c 256
 677 408 757 375 846 375 c 256
 1009 375 1079 474 1122 623 c 257
 1024 702 l 257
 982 595 913 544 843 544 c 256
 785 544 715 578 632 619 c 256
 526 674 463 702 374 702 c 256
 219 702 125 600 88 453 c 257
 193 370 l 257
193 752 m 257
 226.105 850.281 285.502 914.33 371.668 914.33 c 256
 432.13 914.33 492.889 883.111 559 851 c 256
 677 790 757 757 846 757 c 256
 1009 757 1079 856 1122 1005 c 257
 1024 1084 l 257
 982 977 913 926 843 926 c 256
 785 926 715 960 632 1001 c 256
 526 1056 463 1084 374 1084 c 256
 219 1084 125 982 88 835 c 257
 193 752 l 257
EndSplineSet
EndChar

StartChar: asciicircum
Encoding: 62 94 149
Width: 1399
VWidth: 0
GlyphClass: 2
Flags: W
PickledData: "(dp1
S'org.pippin.gimp.org.kernagic'
p2
(dp3
S'lstem'
p4
I0
sS'rstem'
p5
I0
ssS'com.typemytype.robofont.layerData'
p6
(dp7
sS'org.robofab.postScriptHintData'
p8
(dp9
s."
LayerCount: 2
Fore
SplineSet
631 1456 m 257
 100 285 l 257
 367 285 l 257
 695 1045 l 257
 1032 285 l 257
 1299 285 l 257
 750 1456 l 257
 631 1456 l 257
EndSplineSet
EndChar

StartChar: asciitilde
Encoding: 94 126 150
Width: 1192
VWidth: 0
GlyphClass: 2
Flags: W
PickledData: "(dp1
S'org.pippin.gimp.org.kernagic'
p2
(dp3
S'lstem'
p4
I0
sS'rstem'
p5
I0
ssS'com.typemytype.robofont.layerData'
p6
(dp7
S'b'
(dp8
S'name'
p9
S'asciitilde'
p10
sS'lib'
p11
(dp12
sS'unicodes'
p13
(tsS'width'
p14
I1192
sS'contours'
p15
(tsS'components'
p16
(tsS'anchors'
p17
(tsssS'org.robofab.postScriptHintData'
p18
(dp19
s."
LayerCount: 2
Fore
SplineSet
163 480 m 257
 205 559 275 629 360 629 c 256
 430 629 494 600 578 561 c 256
 665 521 737 492 821 492 c 256
 957 492 1062 580 1112 691 c 257
 1042 813 l 257
 979 724 908 671 831 671 c 256
 776 671 704 701 614 741 c 256
 525 781 450 807 368 807 c 256
 227 807 141 718 93 610 c 257
 163 480 l 257
EndSplineSet
EndChar

StartChar: asterisk
Encoding: 10 42 151
Width: 997
VWidth: 0
GlyphClass: 2
Flags: W
PickledData: "(dp1
S'org.pippin.gimp.org.kernagic'
p2
(dp3
S'lstem'
p4
I0
sS'rstem'
p5
I0
ssS'com.typemytype.robofont.layerData'
p6
(dp7
sS'org.robofab.postScriptHintData'
p8
(dp9
s."
LayerCount: 2
Fore
SplineSet
326 532 m 257
 499 868 l 257
 681 531 l 257
 706 547 838 624 863 640 c 257
 822 694 665 901 624 956 c 257
 971 1035 l 257
 912 1239 l 257
 573 1095 l 257
 607 1492 l 257
 396 1492 l 257
 430 1095 l 257
 93 1239 l 257
 35 1035 l 257
 378 956 l 257
 141 640 l 257
 326 532 l 257
EndSplineSet
EndChar

StartChar: at
Encoding: 32 64 152
Width: 1983
VWidth: 0
GlyphClass: 2
Flags: W
PickledData: "(dp1
S'org.pippin.gimp.org.kernagic'
p2
(dp3
S'lstem'
p4
I0
sS'rstem'
p5
I0
ssS'com.typemytype.robofont.layerData'
p6
(dp7
sS'org.robofab.postScriptHintData'
p8
(dp9
s."
LayerCount: 2
Fore
SplineSet
929 394 m 256
 830.02 394 781.985 468.457 781.985 606.705 c 256
 781.985 818.948 892.813 996 1068 996 c 256
 1096 996 1150 989 1188 982 c 257
 1148 736 l 257
 1116 517 1064 394 929 394 c 256
976 -160 m 256
 1179 -160 1389 -111 1520 -15 c 257
 1466 121 l 257
 1328 38 1151 7 979 7 c 256
 581 7 356 282 356 653 c 256
 356 1039 611 1370 1037 1370 c 256
 1456 1370 1653 1106 1653 804 c 256
 1653 534 1541 400 1438 400 c 256
 1377 400 1333 450 1333 529 c 256
 1333 657 1372 850 1400 1060 c 257
 1321 1102 1177 1143 1052 1143 c 256
 748 1143 581 874 581 615 c 256
 581 408 689 242 911 242 c 256
 1047.13 242 1146.68 341.965 1196.48 470.092 c 257
 1225.23 331.994 1307.2 249 1438 249 c 256
 1625 249 1842 434 1842 796 c 256
 1842 1245 1492 1538 1044 1538 c 256
 527 1538 150 1156 150 657 c 256
 150 143 487 -160 976 -160 c 256
EndSplineSet
EndChar

StartChar: b
Encoding: 66 98 154
Width: 1240
VWidth: 0
GlyphClass: 2
Flags: W
PickledData: "(dp1
S'org.pippin.gimp.org.kernagic'
p2
(dp3
S'lstem'
p4
I0
sS'rstem'
p5
I0
ssS'org.robofab.postScriptHintData'
p6
(dp7
sS'com.typemytype.robofont.guides'
p8
(tsS'com.typemytype.robofont.layerData'
p9
(dp10
sS'com.fontlab.hintData'
p11
(dp12
S'vhints'
p13
((dp14
S'position'
p15
I193
sS'width'
p16
I125
s(dp17
g15
I193
sg16
I94
s(dp18
g15
I1018
sg16
I122
stp19
sS'hhints'
p20
((dp21
g15
I-19
sg16
I92
s(dp22
g15
I982
sg16
I92
stp23
ss."
HStem: -19 92 982 92
VStem: 193 125 193 94 1018 122
AnchorPoint: "top" 718 1082 basechar 0
LayerCount: 2
Fore
SplineSet
644 162 m 256
 533 162 461 203 411 270 c 257
 411 562 l 258
 411 811 504 922 661 922 c 256
 806 922 869 799 869 546 c 256
 869 289 787 162 644 162 c 256
715.956 1104.11 m 256
 571.032 1104.11 465.083 1034.01 405.8 904.51 c 257
 415 1129 l 257
 415 1560 l 257
 146 1540 l 257
 146 0 l 257
 379 0 l 257
 390.059 125.946 l 257
 444.658 49.4286 542.993 -20 691 -20 c 256
 987 -20 1144 211 1144 546 c 256
 1144 867.004 1007.42 1104.11 715.956 1104.11 c 256
EndSplineSet
EndChar

StartChar: backslash
Encoding: 60 92 155
Width: 937
VWidth: 0
GlyphClass: 2
Flags: W
PickledData: "(dp1
S'org.pippin.gimp.org.kernagic'
p2
(dp3
S'lstem'
p4
I0
sS'rstem'
p5
I0
ssS'com.typemytype.robofont.layerData'
p6
(dp7
S'b'
(dp8
S'name'
p9
S'backslash'
p10
sS'lib'
p11
(dp12
sS'unicodes'
p13
(tsS'width'
p14
I937
sS'contours'
p15
(tsS'components'
p16
(tsS'anchors'
p17
(tsssS'org.robofab.postScriptHintData'
p18
(dp19
s."
LayerCount: 2
Fore
SplineSet
601 1 m 257
 800 1 l 257
 296 1493 l 257
 95 1493 l 257
 601 1 l 257
EndSplineSet
EndChar

StartChar: bar
Encoding: 92 124 156
Width: 713
VWidth: 0
GlyphClass: 2
Flags: W
PickledData: "(dp1
S'org.pippin.gimp.org.kernagic'
p2
(dp3
S'lstem'
p4
I0
sS'rstem'
p5
I0
ssS'com.typemytype.robofont.layerData'
p6
(dp7
S'b'
(dp8
S'name'
p9
S'bar'
p10
sS'lib'
p11
(dp12
sS'unicodes'
p13
(tsS'width'
p14
I681
sS'contours'
p15
(tsS'components'
p16
(tsS'anchors'
p17
(tsssS'org.robofab.postScriptHintData'
p18
(dp19
s."
LayerCount: 2
Fore
SplineSet
267 1476 m 257
 267 -394 l 257
 446 -394 l 257
 446 1476 l 257
 267 1476 l 257
EndSplineSet
EndChar

StartChar: braceleft
Encoding: 91 123 157
Width: 911
VWidth: 0
GlyphClass: 2
Flags: W
PickledData: "(dp1
S'org.pippin.gimp.org.kernagic'
p2
(dp3
S'lstem'
p4
I0
sS'rstem'
p5
I0
ssS'com.typemytype.robofont.layerData'
p6
(dp7
sS'org.robofab.postScriptHintData'
p8
(dp9
s."
LayerCount: 2
Fore
SplineSet
782 -290 m 257
 782 -132 l 257
 644 -130 610 -110 610 60 c 258
 610 352 l 258
 610 492 580 594 411 625 c 257
 580 657 610 759 610 899 c 258
 610 1191 l 258
 610 1361 644 1381 782 1383 c 257
 782 1541 l 257
 537 1541 399 1503 399 1238 c 258
 399 955 l 258
 399 796 393 715 190 715 c 257
 190 535 l 257
 394 535 399 454 399 295 c 258
 399 13 l 258
 399 -252 537 -290 782 -290 c 257
EndSplineSet
EndChar

StartChar: braceright
Encoding: 93 125 158
Width: 911
VWidth: 0
GlyphClass: 2
Flags: W
PickledData: "(dp1
S'org.pippin.gimp.org.kernagic'
p2
(dp3
S'lstem'
p4
I0
sS'rstem'
p5
I0
ssS'com.typemytype.robofont.layerData'
p6
(dp7
sS'org.robofab.postScriptHintData'
p8
(dp9
s."
LayerCount: 2
Fore
SplineSet
145 -290 m 257
 390 -290 528 -252 528 13 c 258
 528 295 l 258
 528 454 533 535 737 535 c 257
 737 715 l 257
 534 715 528 796 528 955 c 258
 528 1238 l 258
 528 1503 390 1541 145 1541 c 257
 145 1383 l 257
 283 1381 317 1361 317 1191 c 258
 317 899 l 258
 317 759 347 657 516 625 c 257
 347 594 317 492 317 352 c 258
 317 60 l 258
 317 -110 283 -130 145 -132 c 257
 145 -290 l 257
EndSplineSet
EndChar

StartChar: bracketleft
Encoding: 59 91 159
Width: 823
VWidth: 0
GlyphClass: 2
Flags: W
PickledData: "(dp1
S'org.pippin.gimp.org.kernagic'
p2
(dp3
S'lstem'
p4
I0
sS'rstem'
p5
I0
ssS'com.typemytype.robofont.layerData'
p6
(dp7
sS'org.robofab.postScriptHintData'
p8
(dp9
s."
LayerCount: 2
Fore
SplineSet
222 -252 m 257
 677 -252 l 257
 677 -84 l 257
 438 -84 l 257
 438 1312 l 257
 677 1312 l 257
 677 1480 l 257
 222 1480 l 257
 222 -252 l 257
EndSplineSet
EndChar

StartChar: bracketright
Encoding: 61 93 160
Width: 965
VWidth: 0
GlyphClass: 2
Flags: W
PickledData: "(dp1
S'org.pippin.gimp.org.kernagic'
p2
(dp3
S'lstem'
p4
I0
sS'rstem'
p5
I0
ssS'com.typemytype.robofont.layerData'
p6
(dp7
sS'org.robofab.postScriptHintData'
p8
(dp9
s."
LayerCount: 2
Fore
SplineSet
292 -252 m 257
 747 -252 l 257
 747 1480 l 257
 292 1480 l 257
 292 1312 l 257
 531 1312 l 257
 531 -84 l 257
 292 -84 l 257
 292 -252 l 257
EndSplineSet
EndChar

StartChar: breve
Encoding: 401 728 161
Width: 905
VWidth: 0
GlyphClass: 4
Flags: W
PickledData: "(dp1
S'org.robofab.postScriptHintData'
p2
(dp3
sS'com.typemytype.robofont.layerData'
p4
(dp5
s."
AnchorPoint: "top" 437 1073 mark 0
LayerCount: 2
Fore
SplineSet
435 1304 m 256
 595 1304 707 1396 707 1563 c 257
 555 1563 l 257
 555 1490 499 1452 435 1452 c 256
 371 1452 318 1490 318 1563 c 257
 163 1563 l 257
 163 1396 275 1304 435 1304 c 256
EndSplineSet
EndChar

StartChar: uni0311
Encoding: 409 785 162
Width: 834
VWidth: 0
Flags: W
PickledData: "(dp1
S'org.robofab.postScriptHintData'
p2
(dp3
sS'com.typemytype.robofont.layerData'
p4
(dp5
s."
AnchorPoint: "top" 429 1073 mark 0
LayerCount: 2
Fore
SplineSet
154 1304 m 257
 309 1304 l 257
 309 1378 362 1415 426 1415 c 256
 490 1415 546 1378 546 1304 c 257
 698 1304 l 257
 698 1471 586 1563 426 1563 c 256
 266 1563 154 1472 154 1304 c 257
EndSplineSet
EndChar

StartChar: brokenbar
Encoding: 101 166 163
Width: 713
VWidth: 0
GlyphClass: 2
Flags: W
PickledData: "(dp1
S'org.pippin.gimp.org.kernagic'
p2
(dp3
S'lstem'
p4
I0
sS'rstem'
p5
I0
ssS'com.typemytype.robofont.layerData'
p6
(dp7
S'b'
(dp8
S'name'
p9
S'brokenbar'
p10
sS'lib'
p11
(dp12
sS'unicodes'
p13
(tsS'width'
p14
I653
sS'contours'
p15
(tsS'components'
p16
(tsS'anchors'
p17
(tsssS'org.robofab.postScriptHintData'
p18
(dp19
s."
LayerCount: 2
Fore
SplineSet
260 1506 m 257
 260 786 l 257
 439 786 l 257
 439 1506 l 257
 260 1506 l 257
260 414 m 257
 260 -308 l 257
 439 -308 l 257
 439 414 l 257
 260 414 l 257
EndSplineSet
EndChar

StartChar: bullet
Encoding: 454 8226 164
Width: 939
VWidth: 0
GlyphClass: 2
Flags: W
PickledData: "(dp1
S'org.pippin.gimp.org.kernagic'
p2
(dp3
S'lstem'
p4
I0
sS'rstem'
p5
I0
ssS'com.typemytype.robofont.layerData'
p6
(dp7
S'b'
(dp8
S'name'
p9
S'bullet'
p10
sS'lib'
p11
(dp12
sS'unicodes'
p13
(tsS'width'
p14
I908
sS'contours'
p15
(tsS'components'
p16
(tsS'anchors'
p17
(tsssS'org.robofab.postScriptHintData'
p18
(dp19
s."
LayerCount: 2
Fore
SplineSet
458 378 m 256
 644 378 798 517 798 720 c 256
 798 924 649 1059 464 1059 c 256
 278 1059 124 919 124 715 c 256
 124 513 272 378 458 378 c 256
EndSplineSet
EndChar

StartChar: c
Encoding: 67 99 165
Width: 1103
VWidth: 0
GlyphClass: 2
Flags: W
PickledData: "(dp1
S'org.pippin.gimp.org.kernagic'
p2
(dp3
S'lstem'
p4
I0
sS'rstem'
p5
I696
ssS'org.robofab.postScriptHintData'
p6
(dp7
sS'com.typemytype.robofont.guides'
p8
((dp9
S'y'
I417
sS'x'
I962
sS'magnetic'
p10
I5
sS'angle'
p11
F90
sS'isGlobal'
p12
I00
s(dp13
S'y'
I1020
sS'x'
I565
sg10
I5
sg11
F90
sg12
I00
s(dp14
S'y'
I994
sS'x'
I572
sg10
I5
sg11
F90
sg12
I00
stp15
sS'com.typemytype.robofont.layerData'
p16
(dp17
sS'com.fontlab.hintData'
p18
(dp19
S'vhints'
p20
((dp21
S'position'
p22
I128
sS'width'
p23
I120
stp24
sS'hhints'
p25
((dp26
g22
I-19
sg23
I92
s(dp27
g22
I982
sg23
I92
stp28
ss."
HStem: -19 92 982 92
VStem: 128 120
AnchorPoint: "bot" 615 1 basechar 0
AnchorPoint: "top" 620 1083 basechar 0
LayerCount: 2
Fore
SplineSet
856 316 m 257
 819 228 747 170 637 169 c 256
 477 169 369 295 369 542 c 256
 369 788.035 476.158 915.006 635.127 915.006 c 256
 635.751 915.006 636.375 915.004 637 915 c 256
 747 915 819 855 856 767 c 257
 869 767 l 257
 1035 858 l 257
 971 1005 848 1104 624 1104 c 256
 301 1104 96 888 96 542 c 256
 96 197 301 -20 624 -20 c 256
 848 -20 971 80 1035 226 c 257
 869 316 l 257
 856 316 l 257
EndSplineSet
EndChar

StartChar: caron
Encoding: 399 711 167
Width: 929
VWidth: 0
GlyphClass: 4
Flags: W
PickledData: "(dp1
S'org.robofab.postScriptHintData'
p2
(dp3
sS'com.typemytype.robofont.layerData'
p4
(dp5
s."
AnchorPoint: "top" 456 1082 mark 0
LayerCount: 2
Fore
SplineSet
316 1257 m 257
 565 1257 l 257
 770 1629 l 257
 555 1629 l 257
 441 1411 l 257
 326 1629 l 257
 111 1629 l 257
 316 1257 l 257
EndSplineSet
EndChar

StartChar: caron.alt
Encoding: 65538 -1 168
Width: 673
VWidth: 0
GlyphClass: 4
Flags: W
PickledData: "(dp1
S'org.robofab.postScriptHintData'
p2
(dp3
sS'com.typemytype.robofont.layerData'
p4
(dp5
s."
AnchorPoint: "caron.alt" 118 1082 mark 0
LayerCount: 2
Fore
SplineSet
402 1139 m 257
 567 1139 l 257
 641 1550 l 257
 422 1550 l 257
 402 1139 l 257
EndSplineSet
EndChar

StartChar: cedilla
Encoding: 119 184 173
Width: 722
VWidth: 0
GlyphClass: 4
Flags: W
PickledData: "(dp1
S'org.robofab.postScriptHintData'
p2
(dp3
sS'com.typemytype.robofont.layerData'
p4
(dp5
s."
AnchorPoint: "bot" 458 17 mark 0
LayerCount: 2
Fore
SplineSet
401 -411 m 256
 544 -411 654 -334 654 -205 c 256
 654 -95.1536 582.802 -38.0266 486.082 -38.0266 c 256
 451.608 -38.0266 413.891 -45.2846 375 -60 c 257
 375 -122 l 257
 391.389 -119.467 406.046 -118.288 419.124 -118.288 c 256
 493.825 -118.288 517 -156.747 517 -201 c 256
 514.91 -258.124 463.805 -296.322 387.011 -296.322 c 256
 353.57 -296.322 315.257 -289.078 274 -273 c 257
 237 -376 l 257
 290 -399 346 -411 401 -411 c 256
EndSplineSet
EndChar

StartChar: cent
Encoding: 97 162 174
Width: 1103
VWidth: 0
GlyphClass: 2
Flags: W
PickledData: "(dp1
S'org.pippin.gimp.org.kernagic'
p2
(dp3
S'lstem'
p4
I0
sS'rstem'
p5
I0
ssS'com.typemytype.robofont.layerData'
p6
(dp7
sS'org.robofab.postScriptHintData'
p8
(dp9
s."
LayerCount: 2
Fore
SplineSet
551 45 m 257
 547 -303 l 257
 673 -303 l 257
 683 45 l 257
 551 45 l 257
557 1376 m 257
 551 1047 l 257
 678 1047 l 257
 688 1376 l 257
 557 1376 l 257
EndSplineSet
Refer: 165 99 N 1 0 0 1 0 0 2
EndChar

StartChar: circumflex
Encoding: 398 710 175
Width: 909
VWidth: 0
GlyphClass: 4
Flags: W
PickledData: "(dp1
S'org.robofab.postScriptHintData'
p2
(dp3
sS'com.typemytype.robofont.layerData'
p4
(dp5
s."
AnchorPoint: "top" 441 1082 mark 0
LayerCount: 2
Fore
SplineSet
110 1278 m 257
 325 1278 l 257
 439 1497 l 257
 554 1278 l 257
 768 1278 l 257
 564 1650 l 257
 315 1650 l 257
 110 1278 l 257
EndSplineSet
EndChar

StartChar: colon
Encoding: 26 58 176
Width: 683
VWidth: 0
GlyphClass: 2
Flags: W
PickledData: "(dp1
S'org.pippin.gimp.org.kernagic'
p2
(dp3
S'lstem'
p4
I0
sS'rstem'
p5
I0
ssS'com.typemytype.robofont.layerData'
p6
(dp7
S'b'
(dp8
S'name'
p9
S'colon'
p10
sS'lib'
p11
(dp12
sS'unicodes'
p13
(tsS'width'
p14
I653
sS'contours'
p15
(tsS'components'
p16
(tsS'anchors'
p17
(tsssS'org.robofab.postScriptHintData'
p18
(dp19
s."
LayerCount: 2
Fore
SplineSet
343 -8 m 256
 433 -8 491 49 491 136 c 256
 491 224 433 283 343 283 c 256
 254 283 194 224 194 136 c 256
 194 48 256 -8 343 -8 c 256
343 810 m 256
 433 810 491 867 491 954 c 256
 491 1042 433 1101 343 1101 c 256
 254 1101 194 1042 194 954 c 256
 194 866 256 810 343 810 c 256
EndSplineSet
EndChar

StartChar: comma
Encoding: 12 44 177
Width: 655
VWidth: 0
GlyphClass: 2
Flags: W
PickledData: "(dp1
S'org.pippin.gimp.org.kernagic'
p2
(dp3
S'lstem'
p4
I0
sS'rstem'
p5
I0
ssS'com.typemytype.robofont.layerData'
p6
(dp7
sS'org.robofab.postScriptHintData'
p8
(dp9
s."
LayerCount: 2
Fore
SplineSet
189 -327 m 257
 348 -327 l 257
 468 126 l 257
 468 260 l 257
 228 260 l 257
 228 226 189 -327 189 -327 c 257
EndSplineSet
EndChar

StartChar: uni0326
Encoding: 411 806 178
Width: 617
VWidth: 0
Flags: W
PickledData: "(dp1
S'org.robofab.postScriptHintData'
p2
(dp3
s."
AnchorPoint: "bot" 338 0 mark 0
LayerCount: 2
Fore
SplineSet
160 -538 m 257
 331 -538 l 257
 331 -538 453 -141 452 -118 c 257
 225 -118 l 257
 225 -155 160 -538 160 -538 c 257
EndSplineSet
EndChar

StartChar: uni0312
Encoding: 410 786 179
Width: 600
VWidth: 0
Flags: W
PickledData: "(dp1
S'org.robofab.postScriptHintData'
p2
(dp3
s."
AnchorPoint: "top" 293 1073 mark 0
LayerCount: 2
Fore
SplineSet
172 1297 m 257
 166 1278 l 257
 413 1278 l 257
 413 1316 461 1787 461 1787 c 257
 295 1787 l 257
 295 1787 172 1331 172 1297 c 257
EndSplineSet
EndChar

StartChar: copyright
Encoding: 104 169 180
Width: 1752
VWidth: 0
GlyphClass: 2
Flags: W
PickledData: "(dp1
S'org.pippin.gimp.org.kernagic'
p2
(dp3
S'lstem'
p4
I0
sS'rstem'
p5
I0
ssS'com.typemytype.robofont.layerData'
p6
(dp7
sS'org.robofab.postScriptHintData'
p8
(dp9
s."
LayerCount: 2
Fore
SplineSet
827 -39 m 256
 1237 -39 1604 264 1604 728 c 256
 1604 1193 1236 1495 827 1495 c 256
 419 1495 57 1193 57 728 c 256
 57 264 419 -39 827 -39 c 256
827 85 m 256
 491 85 195 340 195 728 c 256
 195 1117 491 1370 827 1370 c 256
 1164 1370 1461 1117 1461 728 c 256
 1461 340 1164 85 827 85 c 256
848 244 m 256
 948 244 1046 271 1131 324 c 257
 1090 432 l 257
 1010 386 932 367 857 367 c 256
 675 367 531 497 531 734 c 256
 531 963 675 1097 853 1097 c 256
 925 1097 1010 1074 1084 1028 c 257
 1130 1137 l 257
 1044 1192 945 1220 844 1220 c 256
 595 1220 370 1037 370 732 c 256
 370 423 598 244 848 244 c 256
EndSplineSet
EndChar

StartChar: currency
Encoding: 99 164 181
Width: 1135
VWidth: 0
GlyphClass: 2
Flags: W
PickledData: "(dp1
S'org.pippin.gimp.org.kernagic'
p2
(dp3
S'lstem'
p4
I0
sS'rstem'
p5
I0
ssS'com.typemytype.robofont.layerData'
p6
(dp7
S'b'
(dp8
S'name'
p9
S'currency'
p10
sS'lib'
p11
(dp12
sS'unicodes'
p13
(tsS'width'
p14
I1164
sS'contours'
p15
(tsS'components'
p16
(tsS'anchors'
p17
(tsssS'org.robofab.postScriptHintData'
p18
(dp19
s."
LayerCount: 2
Fore
SplineSet
848 734 m 256
 848 575 732 445 569 445 c 256
 409 445 292 575 292 734 c 256
 292 892 409 1024 569 1024 c 256
 730 1024 848 892 848 734 c 256
816 1068 m 257
 746 1124 663 1155 569 1155 c 256
 476 1155 389 1122 320 1069 c 257
 143 1242 l 257
 53 1152 l 257
 234 974 l 257
 187 903 161 822 161 734 c 256
 161 645 188 562 234 493 c 257
 54 317 l 257
 143 228 l 257
 319 400 l 257
 389 344 474 315 569 315 c 256
 663 315 747 347 816 401 c 257
 997 227 l 257
 1081 318 l 257
 904 493 l 257
 952 563 977 644 977 734 c 256
 977 822 950 904 903 974 c 257
 1082 1150 l 257
 997 1242 l 257
 816 1068 l 257
EndSplineSet
EndChar

StartChar: d
Encoding: 68 100 182
Width: 1235
VWidth: 0
GlyphClass: 2
Flags: W
PickledData: "(dp1
S'org.pippin.gimp.org.kernagic'
p2
(dp3
S'lstem'
p4
I0
sS'rstem'
p5
I0
ssS'com.fontlab.hintData'
p6
(dp7
S'vhints'
p8
((dp9
S'position'
p10
I114
sS'width'
p11
I166
s(dp12
g10
I907
sg11
I161
s(dp13
g10
I930
sg11
I138
stp14
sS'hhints'
p15
((dp16
g10
I-19
sg11
I127
s(dp17
g10
I953
sg11
I127
stp18
ssS'com.typemytype.robofont.layerData'
p19
(dp20
sS'org.robofab.postScriptHintData'
p21
(dp22
s."
HStem: -19 127 953 127
VStem: 114 166 907 161 930 138
AnchorPoint: "caron.alt" 1070 1147 basechar 0
AnchorPoint: "top" 496 1082 basechar 0
LayerCount: 2
Fore
SplineSet
602 163 m 256
 457 163 371 275 371 540 c 256
 371 817 465 923 608 923 c 256
 709 923 784 881 829 819 c 257
 829 269 l 257
 780 199 699 163 602 163 c 256
827 1540 m 257
 827 1145 l 257
 831.234 984.115 l 257
 775.806 1049.19 686.528 1103.01 556.404 1103.01 c 256
 555.604 1103.01 554.803 1103 554 1103 c 258
 552.062 1103 l 258
 257.302 1103 98 875.264 98 539 c 256
 98 215.367 250.707 -20.0126 547.234 -20.0126 c 256
 548.487 -20.0126 549.742 -20.0084 551 -20 c 256
 686.389 -20 790.327 51.2891 850.29 152.501 c 257
 860 0 l 257
 1098 0 l 257
 1098 1560 l 257
 827 1540 l 257
EndSplineSet
EndChar

StartChar: dagger
Encoding: 452 8224 183
Width: 1110
VWidth: 0
GlyphClass: 2
Flags: W
PickledData: "(dp1
S'org.pippin.gimp.org.kernagic'
p2
(dp3
S'lstem'
p4
I0
sS'rstem'
p5
I0
ssS'com.typemytype.robofont.layerData'
p6
(dp7
S'b'
(dp8
S'name'
p9
S'dagger'
p10
sS'lib'
p11
(dp12
sS'unicodes'
p13
(tsS'width'
p14
I1050
sS'contours'
p15
(tsS'components'
p16
(tsS'anchors'
p17
(tsssS'org.robofab.postScriptHintData'
p18
(dp19
s."
LayerCount: 2
Fore
SplineSet
438 1475 m 257
 438 1097 l 257
 141 1097 l 257
 141 937 l 257
 438 937 l 257
 438 -6 l 257
 664 -6 l 257
 664 937 l 257
 975 937 l 257
 975 1097 l 257
 667 1097 l 257
 667 1475 l 257
 438 1475 l 257
EndSplineSet
EndChar

StartChar: daggerdbl
Encoding: 453 8225 184
Width: 1082
VWidth: 0
GlyphClass: 2
Flags: W
PickledData: "(dp1
S'org.pippin.gimp.org.kernagic'
p2
(dp3
S'lstem'
p4
I0
sS'rstem'
p5
I0
ssS'com.typemytype.robofont.layerData'
p6
(dp7
S'b'
(dp8
S'name'
p9
S'daggerdbl'
p10
sS'lib'
p11
(dp12
sS'unicodes'
p13
(tsS'width'
p14
I1022
sS'contours'
p15
(tsS'components'
p16
(tsS'anchors'
p17
(tsssS'org.robofab.postScriptHintData'
p18
(dp19
s."
LayerCount: 2
Fore
SplineSet
436 1466 m 257
 436 1086 l 257
 144 1086 l 257
 144 927 l 257
 436 927 l 257
 436 560 l 257
 144 560 l 257
 144 403 l 257
 436 403 l 257
 436 -50 l 257
 663 -50 l 257
 663 403 l 257
 964 403 l 257
 964 560 l 257
 667 560 l 257
 667 927 l 257
 964 927 l 257
 964 1086 l 257
 665 1086 l 257
 665 1466 l 257
 436 1466 l 257
EndSplineSet
EndChar

StartChar: uni030F
Encoding: 408 783 185
Width: 999
VWidth: 0
Flags: W
PickledData: "(dp1
S'org.robofab.postScriptHintData'
p2
(dp3
sS'com.typemytype.robofont.layerData'
p4
(dp5
s."
AnchorPoint: "top" 532 1073 mark 0
LayerCount: 2
Fore
SplineSet
624 1253 m 257
 766 1253 l 257
 621 1631 l 257
 402 1631 l 257
 624 1253 l 257
302 1253 m 257
 438 1253 l 257
 291 1631 l 257
 50 1631 l 257
 302 1253 l 257
EndSplineSet
EndChar

StartChar: degree
Encoding: 111 176 188
Width: 852
VWidth: 0
GlyphClass: 2
Flags: W
PickledData: "(dp1
S'org.pippin.gimp.org.kernagic'
p2
(dp3
S'lstem'
p4
I0
sS'rstem'
p5
I0
ssS'com.typemytype.robofont.layerData'
p6
(dp7
sS'org.robofab.postScriptHintData'
p8
(dp9
s."
LayerCount: 2
Fore
SplineSet
426 896 m 256
 612 896 735 1037 735 1200 c 256
 735 1367 608 1496 426 1496 c 256
 244 1496 118 1367 118 1200 c 256
 118 1033 242 896 426 896 c 256
426 1024 m 256
 337 1024 260 1090 260 1199 c 256
 260 1304 338 1370 427 1370 c 256
 514 1370 592 1304 592 1199 c 256
 592 1090 515 1024 426 1024 c 256
EndSplineSet
EndChar

StartChar: dieresis
Encoding: 103 168 189
Width: 1020
VWidth: 0
GlyphClass: 4
Flags: W
PickledData: "(dp1
S'org.robofab.postScriptHintData'
p2
(dp3
sS'com.typemytype.robofont.layerData'
p4
(dp5
s."
AnchorPoint: "top" 505 1082 mark 0
LayerCount: 2
Fore
SplineSet
738 1257 m 256
 823 1257 869 1311 869 1390 c 256
 869 1470 823 1526 738 1526 c 256
 651 1526 604 1470 604 1390 c 256
 604 1311 652 1257 738 1257 c 256
261 1257 m 256
 346 1257 392 1311 392 1390 c 256
 392 1470 346 1526 261 1526 c 256
 174 1526 128 1470 128 1390 c 256
 128 1311 175 1257 261 1257 c 256
EndSplineSet
EndChar

StartChar: divide
Encoding: 182 247 190
Width: 1224
VWidth: 0
GlyphClass: 2
Flags: W
PickledData: "(dp1
S'org.pippin.gimp.org.kernagic'
p2
(dp3
S'lstem'
p4
I0
sS'rstem'
p5
I0
ssS'com.typemytype.robofont.layerData'
p6
(dp7
sS'org.robofab.postScriptHintData'
p8
(dp9
s."
LayerCount: 2
Fore
SplineSet
482 1134 m 257
 482 888 l 257
 734 888 l 257
 734 1134 l 257
 482 1134 l 257
482 280 m 257
 482 25 l 257
 728 25 l 257
 728 280 l 257
 482 280 l 257
93 677 m 257
 93 498 l 257
 1116 498 l 257
 1116 677 l 257
 93 677 l 257
EndSplineSet
EndChar

StartChar: dollar
Encoding: 4 36 191
Width: 1225
VWidth: 0
GlyphClass: 2
Flags: W
PickledData: "(dp1
S'org.pippin.gimp.org.kernagic'
p2
(dp3
S'lstem'
p4
I0
sS'rstem'
p5
I0
ssS'com.typemytype.robofont.layerData'
p6
(dp7
S'b'
(dp8
S'name'
p9
S'dollar'
p10
sS'lib'
p11
(dp12
sS'unicodes'
p13
(tsS'width'
p14
I1221
sS'contours'
p15
(tsS'components'
p16
(tsS'anchors'
p17
(tsssS'org.robofab.postScriptHintData'
p18
(dp19
s."
LayerCount: 2
Fore
SplineSet
542 50 m 257
 542 -288 l 257
 689 -288 l 257
 691 50 l 257
 542 50 l 257
545 1769 m 257
 538 1431 l 257
 690 1431 l 257
 690 1769 l 257
 545 1769 l 257
EndSplineSet
Refer: 93 83 N 1 0 0 1 0 0 2
EndChar

StartChar: dotaccent
Encoding: 402 729 192
Width: 545
VWidth: 0
GlyphClass: 4
Flags: W
PickledData: "(dp1
S'org.robofab.postScriptHintData'
p2
(dp3
sS'com.typemytype.robofont.layerData'
p4
(dp5
s."
AnchorPoint: "top" 273 1082 mark 0
LayerCount: 2
Fore
SplineSet
441 1445 m 256
 441 1539 378 1600 274 1600 c 256
 170 1600 107 1539 107 1445 c 256
 107 1347 170 1284 274 1284 c 256
 378 1284 441 1347 441 1445 c 256
EndSplineSet
EndChar

StartChar: dotlessi
Encoding: 240 305 193
Width: 571
VWidth: 0
GlyphClass: 2
Flags: W
PickledData: "(dp1
S'org.pippin.gimp.org.kernagic'
p2
(dp3
S'lstem'
p4
I0
sS'rstem'
p5
I0
ssS'com.typemytype.robofont.layerData'
p6
(dp7
sS'org.robofab.postScriptHintData'
p8
(dp9
s."
AnchorPoint: "top" 299 1082 basechar 0
LayerCount: 2
Fore
SplineSet
158 1082 m 257
 158 0 l 257
 429 0 l 257
 429 1082 l 257
 158 1082 l 257
EndSplineSet
EndChar

StartChar: uni0237
Encoding: 396 567 194
Width: 651
VWidth: 0
GlyphClass: 2
Flags: W
PickledData: "(dp1
S'org.pippin.gimp.org.kernagic'
p2
(dp3
S'lstem'
p4
I0
sS'rstem'
p5
I0
ssS'com.fontlab.hintData'
p6
(dp7
S'vhints'
p8
((dp9
S'position'
p10
I111
sS'width'
p11
I142
stp12
sS'hhints'
p13
((dp14
g10
I-479
sg11
I112
stp15
ssS'com.typemytype.robofont.layerData'
p16
(dp17
sS'org.robofab.postScriptHintData'
p18
(dp19
s."
HStem: -479 112
VStem: 111 142
LayerCount: 2
Fore
SplineSet
218 1082 m 257
 218 11 l 258
 218 -158 205 -197 45 -252 c 257
 -34 -281 l 257
 44 -481 l 257
 119 -456 l 257
 365 -379 489 -306 489 -22 c 258
 489 1082 l 257
 218 1082 l 257
EndSplineSet
EndChar

StartChar: e
Encoding: 69 101 195
Width: 1167
VWidth: 0
GlyphClass: 2
Flags: W
PickledData: "(dp1
S'org.pippin.gimp.org.kernagic'
p2
(dp3
S'lstem'
p4
I0
sS'rstem'
p5
I747
ssS'com.fontlab.hintData'
p6
(dp7
S'hhints'
p8
((dp9
S'position'
p10
I-19
sS'width'
p11
I94
s(dp12
g10
I982
sg11
I92
stp13
ssS'com.typemytype.robofont.layerData'
p14
(dp15
sS'org.robofab.postScriptHintData'
p16
(dp17
s."
HStem: -19 94 982 92
AnchorPoint: "bot" 643 1 basechar 0
AnchorPoint: "top" 623 1082 basechar 0
LayerCount: 2
Fore
SplineSet
372 626 m 257
 384.876 821.123 485.064 924.029 627.867 924.029 c 256
 770.464 924.029 838.979 825.071 841 626 c 257
 372 626 l 257
647 -20 m 256
 814 -20 960 30 1047 101 c 257
 987 252 l 257
 972 252 l 257
 886 200 795 162 678 162 c 256
 509.551 162 384.015 260.962 368.597 472 c 257
 1058 472 l 257
 1058 472 1068 530 1068 589 c 256
 1068 898 924 1104 617 1104 c 256
 314 1104 96 893 96 540 c 256
 96 194 322 -20 647 -20 c 256
EndSplineSet
EndChar

StartChar: eight
Encoding: 24 56 203
Width: 1319
VWidth: 0
GlyphClass: 2
Flags: W
PickledData: "(dp1
S'org.pippin.gimp.org.kernagic'
p2
(dp3
S'lstem'
p4
I0
sS'rstem'
p5
I0
ssS'com.typemytype.robofont.layerData'
p6
(dp7
sS'org.robofab.postScriptHintData'
p8
(dp9
s."
LayerCount: 2
Fore
SplineSet
662 829 m 257
 520 873 440 971 440 1105 c 256
 440 1226 529 1298 662 1298 c 256
 796 1298 880 1226 880 1105 c 256
 880 971 805 873 662 829 c 257
662 163 m 256
 503 163 424 240 424 393 c 256
 424 551 524 655 662 692 c 257
 800 655 897 548 897 394 c 256
 897 237 825 163 662 163 c 256
662 -20 m 256
 969 -20 1175 119 1175 379 c 256
 1175 572 1074 715 911 773 c 257
 1055 828 1147 936 1147 1113 c 256
 1147 1349 942 1476 661 1476 c 256
 381 1476 173 1349 173 1113 c 256
 173 933 274 821 418 772 c 257
 247 711 144 577 144 379 c 256
 144 119 355 -20 662 -20 c 256
EndSplineSet
EndChar

StartChar: emdash
Encoding: 445 8212 206
Width: 2184
VWidth: 0
GlyphClass: 2
Flags: W
PickledData: "(dp1
S'org.robofab.postScriptHintData'
p2
(dp3
sS'com.typemytype.robofont.layerData'
p4
(dp5
s."
LayerCount: 2
Fore
SplineSet
60 482 m 257
 2124 482 l 257
 2124 659 l 257
 60 659 l 257
 60 482 l 257
EndSplineSet
EndChar

StartChar: endash
Encoding: 444 8211 207
Width: 1245
VWidth: 0
GlyphClass: 2
Flags: W
PickledData: "(dp1
S'org.pippin.gimp.org.kernagic'
p2
(dp3
S'lstem'
p4
I0
sS'rstem'
p5
I0
ssS'com.typemytype.robofont.layerData'
p6
(dp7
sS'org.robofab.postScriptHintData'
p8
(dp9
s."
LayerCount: 2
Fore
SplineSet
104 482 m 257
 1141 482 l 257
 1141 660 l 257
 104 660 l 257
 104 482 l 257
EndSplineSet
EndChar

StartChar: eng
Encoding: 266 331 208
Width: 1221
VWidth: 0
GlyphClass: 2
Flags: W
PickledData: "(dp1
S'org.robofab.postScriptHintData'
p2
(dp3
sS'com.typemytype.robofont.layerData'
p4
(dp5
s."
LayerCount: 2
Fore
SplineSet
832 154 m 257
 832 -15 l 257
 831 -238 797 -287 499 -287 c 257
 513 -470 l 257
 965 -460 1103 -353 1103 -36 c 258
 1103 154 l 257
 832 154 l 257
EndSplineSet
Refer: 276 110 N 1 0 0 1 0 0 2
EndChar

StartChar: equal
Encoding: 29 61 210
Width: 1170
VWidth: 0
GlyphClass: 2
Flags: W
PickledData: "(dp1
S'org.pippin.gimp.org.kernagic'
p2
(dp3
S'lstem'
p4
I0
sS'rstem'
p5
I0
ssS'com.typemytype.robofont.layerData'
p6
(dp7
S'b'
(dp8
S'name'
p9
S'equal'
p10
sS'lib'
p11
(dp12
sS'unicodes'
p13
(tsS'width'
p14
I1050
sS'contours'
p15
(tsS'components'
p16
(tsS'anchors'
p17
(tsssS'org.robofab.postScriptHintData'
p18
(dp19
s."
LayerCount: 2
Fore
SplineSet
111 640 m 257
 111 453 l 257
 1049 453 l 257
 1049 640 l 257
 111 640 l 257
111 1049 m 257
 111 863 l 257
 1049 863 l 257
 1049 1049 l 257
 111 1049 l 257
EndSplineSet
EndChar

StartChar: estimated
Encoding: 465 8494 211
Width: 1191
VWidth: 0
GlyphClass: 2
Flags: W
PickledData: "(dp1
S'org.robofab.postScriptHintData'
p2
(dp3
sS'com.typemytype.robofont.layerData'
p4
(dp5
S'b'
(dp6
S'name'
p7
S'estimated'
p8
sS'lib'
p9
(dp10
sS'unicodes'
p11
(tsS'width'
p12
I1223
sS'contours'
p13
(tsS'components'
p14
(tsS'anchors'
p15
(tsss."
LayerCount: 2
Fore
SplineSet
957 594 m 257
 326 594 l 257
 342 852 466 1025 637 1025 c 256
 844 1025 957 826 957 594 c 257
85 534 m 256
 85 218 271 -20 648 -20 c 256
 853 -20 986 68 1085 186 c 257
 1034 236 l 257
 937 132 827 53 648 53 c 256
 421 53 326 241 325 514 c 257
 1093 514 l 257
 1093 857 947 1085 631 1085 c 256
 312 1085 85 850 85 534 c 256
EndSplineSet
EndChar

StartChar: eth
Encoding: 175 240 212
Width: 1191
VWidth: 0
GlyphClass: 2
Flags: W
PickledData: "(dp1
S'org.pippin.gimp.org.kernagic'
p2
(dp3
S'lstem'
p4
I0
sS'rstem'
p5
I0
ssS'com.typemytype.robofont.layerData'
p6
(dp7
sS'org.robofab.postScriptHintData'
p8
(dp9
s."
LayerCount: 2
Fore
SplineSet
905 484 m 256
 905 287 799 159 602 159 c 256
 401 159 295 306 295 483 c 256
 295 670 403 798 596 798 c 256
 794 798 905 658 905 484 c 256
191 1534 m 257
 399 1329 l 257
 207 1250 l 257
 265 1095 l 257
 513 1194 l 257
 609 1098 710 977 756 905 c 257
 710 930 646 962 562 962 c 256
 276 962 79 770 79 482 c 256
 79 198 277 -22 596 -22 c 256
 921 -22 1109 176 1109 478 c 256
 1108 621 1071 756 1013 859 c 256
 940 990 836 1111 693 1272 c 257
 916 1361 l 257
 855 1517 l 257
 581 1406 l 257
 454 1534 l 257
 191 1534 l 257
EndSplineSet
EndChar

StartChar: exclam
Encoding: 1 33 213
Width: 740
VWidth: 0
GlyphClass: 2
Flags: W
PickledData: "(dp1
S'org.pippin.gimp.org.kernagic'
p2
(dp3
S'lstem'
p4
I0
sS'rstem'
p5
I0
ssS'com.typemytype.robofont.layerData'
p6
(dp7
sS'org.robofab.postScriptHintData'
p8
(dp9
s."
LayerCount: 2
Fore
SplineSet
363 -10 m 256
 449 -10 503 59 503 135 c 256
 503 211 449 278 363 278 c 256
 277 278 222 211 222 135 c 256
 222 60 277 -10 363 -10 c 256
318 450 m 257
 417 450 l 257
 475 1327 l 257
 475 1516 l 257
 252 1516 l 257
 252 1327 l 257
 318 450 l 257
EndSplineSet
EndChar

StartChar: f
Encoding: 70 102 215
Width: 801
VWidth: 0
GlyphClass: 2
Flags: W
PickledData: "(dp1
S'org.pippin.gimp.org.kernagic'
p2
(dp3
S'lstem'
p4
I182
sS'rstem'
p5
I417
ssS'com.fontlab.hintData'
p6
(dp7
S'vhints'
p8
((dp9
S'position'
p10
I269
sS'width'
p11
I166
stp12
sS'hhints'
p13
((dp14
g10
I952
sg11
I89
s(dp15
g10
I1358
sg11
I122
stp16
ssS'com.typemytype.robofont.layerData'
p17
(dp18
sS'org.robofab.postScriptHintData'
p19
(dp20
s."
HStem: 952 89 1358 122
VStem: 269 166
AnchorPoint: "top" 427 1456 basechar 0
LayerCount: 2
Fore
SplineSet
490 1082 m 257
 490 1160 l 258
 490 1299 535 1337 658 1337 c 256
 693 1337 743 1332 778 1327 c 257
 789 1496 l 257
 773 1500 695 1519 574 1519 c 256
 367 1519 219 1454 219 1160 c 258
 219 1077.93 l 257
 56 1060 l 257
 51 925 l 257
 219 925 l 257
 219 0 l 257
 490 0 l 257
 490 925 l 257
 759 925 l 257
 759 1082 l 257
 490 1082 l 257
EndSplineSet
EndChar

StartChar: five
Encoding: 21 53 216
Width: 1319
VWidth: 0
GlyphClass: 2
Flags: W
PickledData: "(dp1
S'org.pippin.gimp.org.kernagic'
p2
(dp3
S'lstem'
p4
I0
sS'rstem'
p5
I0
ssS'com.typemytype.robofont.layerData'
p6
(dp7
sS'org.robofab.postScriptHintData'
p8
(dp9
s."
LayerCount: 2
Fore
SplineSet
677.273 761.068 m 256
 826.992 761.068 911.009 625.109 911.009 487.158 c 256
 911.009 321.516 823.944 192 639 192 c 256
 515 192 402 239 331 349 c 257
 313 349 l 257
 174 203 l 257
 257 76 416 -20 661 -20 c 256
 1000 -20 1175 218 1175 479 c 256
 1175 710 1031 948 722 948 c 256
 614.443 948 538.455 915.786 475.419 860.15 c 257
 520 1264 l 257
 1070 1264 l 257
 1096 1456 l 257
 295 1456 l 257
 241 670 l 257
 445 637 l 257
 487.999 719.09 567.29 761.068 677.273 761.068 c 256
EndSplineSet
EndChar

StartChar: florin
Encoding: 318 402 218
Width: 1119
VWidth: 0
GlyphClass: 2
Flags: W
PickledData: "(dp1
S'org.robofab.postScriptHintData'
p2
(dp3
s."
LayerCount: 2
Fore
SplineSet
498 1259 m 258
 463 1050 l 257
 266 1050 l 257
 250 972 l 257
 451 972 l 257
 283 112 l 257
 243.618 -113.624 234.528 -215.39 78.4483 -215.39 c 256
 44.2913 -215.39 3.09452 -210.516 -47 -201 c 257
 -72 -304 l 257
 -4.99181 -327.23 57.2768 -339.134 114.449 -339.134 c 256
 313.242 -339.134 450.422 -195.209 511 117 c 258
 679 972 l 257
 954 972 l 257
 970 1050 l 257
 696 1050 l 257
 740 1294 l 258
 763.733 1426.08 813 1502.32 916.943 1502.32 c 256
 1012.06 1502.32 1039.36 1425.5 1049 1305 c 257
 1194 1305 l 257
 1188 1528 1087 1641 897 1641 c 256
 671 1641 539 1500 498 1259 c 258
EndSplineSet
EndChar

StartChar: foundryicon
Encoding: 488 -1 219
Width: 1347
VWidth: 0
GlyphClass: 2
Flags: W
PickledData: "(dp1
S'org.robofab.postScriptHintData'
p2
(dp3
s."
LayerCount: 2
Fore
SplineSet
280 2 m 257
 669 278 l 257
 1066 2 l 257
 922 461 l 257
 1313 755 l 257
 828 755 l 257
 669 1215 l 257
 519 755 l 257
 34 755 l 257
 423 461 l 257
 280 2 l 257
485 405 m 257
 485 672 l 257
 591 672 l 257
 761 523 l 257
 761 672 l 257
 867 672 l 257
 867 405 l 257
 761 405 l 257
 591 552 l 257
 591 405 l 257
 485 405 l 257
EndSplineSet
EndChar

StartChar: four
Encoding: 20 52 220
Width: 1319
VWidth: 0
GlyphClass: 2
Flags: W
PickledData: "(dp1
S'org.pippin.gimp.org.kernagic'
p2
(dp3
S'lstem'
p4
I0
sS'rstem'
p5
I0
ssS'com.typemytype.robofont.layerData'
p6
(dp7
sS'org.robofab.postScriptHintData'
p8
(dp9
s."
LayerCount: 2
Fore
SplineSet
343 537 m 257
 738 1174 l 257
 738 537 l 257
 343 537 l 257
738 0 m 257
 1019 0 l 257
 1019 349 l 257
 1200 349 l 257
 1214 540 l 257
 1019 540 l 257
 1019 1456 l 257
 699 1456 l 257
 113 530 l 257
 146 349 l 257
 738 349 l 257
 738 0 l 257
EndSplineSet
EndChar

StartChar: fraction
Encoding: 459 8260 221
Width: 1111
VWidth: 0
GlyphClass: 2
Flags: W
PickledData: "(dp1
S'org.robofab.postScriptHintData'
p2
(dp3
s."
LayerCount: 2
Fore
SplineSet
87 0 m 257
 271 0 l 257
 1111 1520 l 257
 932 1520 l 257
 87 0 l 257
EndSplineSet
EndChar

StartChar: g
Encoding: 71 103 222
Width: 1232
VWidth: 0
GlyphClass: 2
Flags: W
PickledData: "(dp1
S'org.pippin.gimp.org.kernagic'
p2
(dp3
S'lstem'
p4
I0
sS'rstem'
p5
I0
ssS'com.fontlab.hintData'
p6
(dp7
S'vhints'
p8
((dp9
S'position'
p10
I128
sS'width'
p11
I122
s(dp12
g10
I977
sg11
I125
s(dp13
g10
I977
sg11
I36
stp14
sS'hhints'
p15
((dp16
g10
I-426
sg11
I101
s(dp17
g10
I0
sg11
I93
s(dp18
g10
I982
sg11
I92
stp19
ssS'com.typemytype.robofont.layerData'
p20
(dp21
sS'org.robofab.postScriptHintData'
p22
(dp23
s."
HStem: -426 101 0 93 982 92
VStem: 128 122 977 125 977 36
AnchorPoint: "top" 592 1082 basechar 0
LayerCount: 2
Fore
SplineSet
607 162 m 256
 452 162 369 293 369 555 c 256
 369 822 472 922 609 922 c 256
 710 922 773 887 828 818 c 257
 828 249 l 257
 780 194 695 162 607 162 c 256
571 -499 m 256
 899 -499 1092 -338 1092 20 c 258
 1092 1082 l 257
 839 1082 l 257
 834.975 981.384 l 257
 779.293 1048.66 691.014 1104 560 1104 c 258
 557.974 1104 l 258
 308.845 1104 96 920.011 96 555 c 256
 96 146.304 306.653 -10.0048 548.682 -10.0048 c 256
 549.454 -10.0048 550.227 -10.0032 551 -10 c 256
 681.463 -10 776.771 34.3044 837.594 98.5176 c 257
 842 17 l 258
 842.633 4.92201 842.946 -6.76463 842.946 -18.0694 c 256
 842.946 -238.888 723.552 -314 539 -314 c 256
 536.79 -314.025 534.57 -314.038 532.341 -314.038 c 256
 445.787 -314.038 344.765 -295.196 258 -264 c 257
 232 -264 l 257
 212 -448 l 257
 313 -481 439 -499 571 -499 c 256
EndSplineSet
EndChar

StartChar: germandbls
Encoding: 158 223 228
Width: 1311
VWidth: 0
GlyphClass: 2
Flags: W
PickledData: "(dp1
S'org.pippin.gimp.org.kernagic'
p2
(dp3
S'lstem'
p4
I0
sS'rstem'
p5
I0
ssS'com.typemytype.robofont.layerData'
p6
(dp7
S'b'
(dp8
S'name'
p9
S'germandbls'
p10
sS'lib'
p11
(dp12
sS'unicodes'
p13
(tsS'width'
p14
I1278
sS'contours'
p15
(tsS'components'
p16
(tsS'anchors'
p17
(tsssS'org.robofab.postScriptHintData'
p18
(dp19
s."
LayerCount: 2
Fore
SplineSet
882 -20 m 256
 1119 -20 1242 104 1242 312 c 256
 1242 623 857 706 857 789 c 256
 857 856 1071 947 1071 1171 c 256
 1071 1390 885 1512 634 1512 c 256
 333 1512 143 1333 143 1038 c 258
 143 0 l 257
 414 0 l 257
 414 1017 l 258
 414 1218 489 1317 648 1317 c 256
 756 1317 820 1266 820 1170 c 256
 820 985 635 936 635 765 c 256
 635 570 961 514 961 315 c 256
 961 229 910 173 814 173 c 256
 730 173 638 205 593 230 c 257
 537 54 l 257
 642 9 773 -20 882 -20 c 256
EndSplineSet
EndChar

StartChar: grave
Encoding: 64 96 229
Width: 1004
VWidth: 0
GlyphClass: 4
Flags: W
PickledData: "(dp1
S'org.robofab.postScriptHintData'
p2
(dp3
sS'com.typemytype.robofont.layerData'
p4
(dp5
s."
AnchorPoint: "top" 516 1073 mark 0
LayerCount: 2
Fore
SplineSet
414 1208 m 257
 573 1208 l 257
 388 1600 l 257
 90 1600 l 257
 414 1208 l 257
EndSplineSet
EndChar

StartChar: greater
Encoding: 30 62 230
Width: 1107
VWidth: 0
GlyphClass: 2
Flags: W
PickledData: "(dp1
S'org.pippin.gimp.org.kernagic'
p2
(dp3
S'lstem'
p4
I0
sS'rstem'
p5
I0
ssS'com.typemytype.robofont.layerData'
p6
(dp7
S'b'
(dp8
S'name'
p9
S'greater'
p10
sS'lib'
p11
(dp12
sS'unicodes'
p13
(tsS'width'
p14
I1107
sS'contours'
p15
(tsS'components'
p16
(tsS'anchors'
p17
(tsssS'org.robofab.postScriptHintData'
p18
(dp19
s."
LayerCount: 2
Fore
SplineSet
89 1039 m 257
 754 689 l 257
 88 371 l 257
 88 167 l 257
 1027 624 l 257
 1027 741 l 257
 89 1237 l 257
 89 1039 l 257
EndSplineSet
EndChar

StartChar: greaterequal
Encoding: 480 8805 231
Width: 1192
VWidth: 0
GlyphClass: 2
Flags: W
PickledData: "(dp1
S'org.pippin.gimp.org.kernagic'
p2
(dp3
S'lstem'
p4
I0
sS'rstem'
p5
I0
ssS'com.typemytype.robofont.layerData'
p6
(dp7
S'b'
(dp8
S'name'
p9
S'greaterequal'
p10
sS'lib'
p11
(dp12
sS'unicodes'
p13
(tsS'width'
p14
I1192
sS'contours'
p15
(tsS'components'
p16
(tsS'anchors'
p17
(tsssS'org.robofab.postScriptHintData'
p18
(dp19
s."
LayerCount: 2
Fore
SplineSet
133 5 m 257
 1066 5 l 257
 1066 159 l 257
 133 159 l 257
 133 5 l 257
150 225 m 257
 1056 703 l 257
 1056 810 l 257
 152 1306 l 257
 152 1121 l 257
 848 756 l 257
 150 412 l 257
 150 225 l 257
EndSplineSet
EndChar

StartChar: guillemotleft
Encoding: 106 171 232
Width: 1024
VWidth: 0
GlyphClass: 2
Flags: W
PickledData: "(dp1
S'org.pippin.gimp.org.kernagic'
p2
(dp3
S'lstem'
p4
I0
sS'rstem'
p5
I0
ssS'com.typemytype.robofont.layerData'
p6
(dp7
S'b'
(dp8
S'name'
p9
S'guillemotleft'
p10
sS'lib'
p11
(dp12
sS'unicodes'
p13
(tsS'width'
p14
I994
sS'contours'
p15
(tsS'components'
p16
(tsS'anchors'
p17
(tsssS'org.robofab.postScriptHintData'
p18
(dp19
s."
LayerCount: 2
Fore
SplineSet
759 138 m 257
 933 138 l 257
 671 565 l 257
 938 990 l 257
 761 990 l 257
 456 562 l 257
 759 138 l 257
363 138 m 257
 537 138 l 257
 275 565 l 257
 543 990 l 257
 366 990 l 257
 60 562 l 257
 363 138 l 257
EndSplineSet
EndChar

StartChar: guillemotright
Encoding: 122 187 233
Width: 1024
VWidth: 0
GlyphClass: 2
Flags: W
PickledData: "(dp1
S'org.pippin.gimp.org.kernagic'
p2
(dp3
S'lstem'
p4
I0
sS'rstem'
p5
I0
ssS'com.typemytype.robofont.layerData'
p6
(dp7
sS'org.robofab.postScriptHintData'
p8
(dp9
s."
LayerCount: 2
Fore
SplineSet
636 138 m 257
 943 566 l 257
 639 990 l 257
 468 990 l 257
 726 563 l 257
 462 138 l 257
 636 138 l 257
249 138 m 257
 554 566 l 257
 251 990 l 257
 78 990 l 257
 340 563 l 257
 73 138 l 257
 249 138 l 257
EndSplineSet
EndChar

StartChar: guilsinglleft
Encoding: 457 8249 234
Width: 775
VWidth: 0
GlyphClass: 2
Flags: W
PickledData: "(dp1
S'org.robofab.postScriptHintData'
p2
(dp3
s."
LayerCount: 2
Fore
SplineSet
430 161 m 257
 612 161 l 257
 346 575 l 257
 618 998 l 257
 436 998 l 257
 153 575 l 257
 430 161 l 257
EndSplineSet
EndChar

StartChar: guilsinglright
Encoding: 458 8250 235
Width: 766
VWidth: 0
GlyphClass: 2
Flags: W
PickledData: "(dp1
S'org.pippin.gimp.org.kernagic'
p2
(dp3
S'lstem'
p4
I0
sS'rstem'
p5
I0
ssS'com.typemytype.robofont.layerData'
p6
(dp7
S'b'
(dp8
S'name'
p9
S'guilsinglright'
p10
sS'lib'
p11
(dp12
sS'unicodes'
p13
(tsS'width'
p14
I766
sS'contours'
p15
(tsS'components'
p16
(tsS'anchors'
p17
(tsssS'org.robofab.postScriptHintData'
p18
(dp19
s."
LayerCount: 2
Fore
SplineSet
144 161 m 257
 326 161 l 257
 611 579 l 257
 332 996 l 257
 150 996 l 257
 415 580 l 257
 144 161 l 257
EndSplineSet
EndChar

StartChar: h
Encoding: 72 104 236
Width: 1241
VWidth: 0
GlyphClass: 2
Flags: W
PickledData: "(dp1
S'org.pippin.gimp.org.kernagic'
p2
(dp3
S'lstem'
p4
I0
sS'rstem'
p5
I0
ssS'com.fontlab.hintData'
p6
(dp7
S'vhints'
p8
((dp9
S'position'
p10
I193
sS'width'
p11
I122
s(dp12
g10
I910
sg11
I122
stp13
sS'hhints'
p14
((dp15
g10
I982
sg11
I92
stp16
ssS'com.typemytype.robofont.layerData'
p17
(dp18
sS'org.robofab.postScriptHintData'
p19
(dp20
s."
HStem: 982 92
VStem: 193 122 910 122
AnchorPoint: "top" 601 1460 basechar 0
LayerCount: 2
Fore
SplineSet
152 0 m 257
 423 0 l 257
 423 608 l 258
 423 792 494 922 662 922 c 256
 785 922 836 844 836 644 c 258
 836 0 l 257
 1108 0 l 257
 1108 672 l 258
 1108 943 990 1104 753 1104 c 256
 582.877 1104 476.616 1020.73 416.88 878.953 c 257
 423 1153 l 257
 423 1560 l 257
 152 1540 l 257
 152 0 l 257
EndSplineSet
EndChar

StartChar: hungarumlaut
Encoding: 406 733 239
Width: 898
VWidth: 0
GlyphClass: 4
Flags: W
PickledData: "(dp1
S'org.robofab.postScriptHintData'
p2
(dp3
sS'com.typemytype.robofont.layerData'
p4
(dp5
s."
AnchorPoint: "top" 374 1073 mark 0
LayerCount: 2
Fore
SplineSet
467 1253 m 257
 603 1253 l 257
 855 1631 l 257
 614 1631 l 257
 467 1253 l 257
139 1253 m 257
 281 1253 l 257
 503 1631 l 257
 284 1631 l 257
 139 1253 l 257
EndSplineSet
EndChar

StartChar: hyphen
Encoding: 13 45 240
Width: 911
VWidth: 0
GlyphClass: 4
Flags: W
PickledData: "(dp1
S'org.pippin.gimp.org.kernagic'
p2
(dp3
S'lstem'
p4
I0
sS'rstem'
p5
I0
ssS'com.typemytype.robofont.layerData'
p6
(dp7
sS'org.robofab.postScriptHintData'
p8
(dp9
s."
LayerCount: 2
Fore
SplineSet
158 474 m 257
 753 474 l 257
 753 656 l 257
 158 656 l 257
 158 474 l 257
EndSplineSet
EndChar

StartChar: i
Encoding: 73 105 241
Width: 608
VWidth: 0
GlyphClass: 2
Flags: HW
PickledData: "(dp1
S'org.robofab.postScriptHintData'
p2
(dp3
sS'com.typemytype.robofont.layerData'
p4
(dp5
s."
LayerCount: 2
Fore
SplineSet
477 1445 m 256
 477 1539 414 1600 310 1600 c 256
 206 1600 143 1539 143 1445 c 256
 143 1347 206 1284 310 1284 c 256
 414 1284 477 1347 477 1445 c 256
171 1082 m 257
 171 0 l 257
 442 0 l 257
 442 1082 l 257
 171 1082 l 257
EndSplineSet
EndChar

StartChar: infinity
Encoding: 475 8734 252
Width: 1722
VWidth: 0
GlyphClass: 2
Flags: W
PickledData: "(dp1
S'org.pippin.gimp.org.kernagic'
p2
(dp3
S'lstem'
p4
I0
sS'rstem'
p5
I0
ssS'com.typemytype.robofont.layerData'
p6
(dp7
S'b'
(dp8
S'name'
p9
S'infinity'
p10
sS'lib'
p11
(dp12
sS'unicodes'
p13
(tsS'width'
p14
I1647
sS'contours'
p15
(tsS'components'
p16
(tsS'anchors'
p17
(tsssS'org.robofab.postScriptHintData'
p18
(dp19
s."
LayerCount: 2
Fore
SplineSet
1471 670 m 256
 1471 527 1410 424 1278 424 c 256
 1171 424 1091 497 983 644 c 257
 1064 761 1160 860 1274 860 c 256
 1390 860 1471 772 1471 670 c 256
748 642 m 257
 662 519 562 424 452 424 c 256
 327 424 242 534 242 643 c 256
 242 761 320 860 445 860 c 256
 566 860 663 771 748 642 c 257
864 752 m 257
 742 917 616 1028 446 1028 c 256
 250 1028 93 867 93 665 c 256
 93 443 225 252 450 252 c 256
 616 252 745 367 864 528 c 257
 1000 343 1124 252 1276 252 c 256
 1474 252 1629 415 1629 647 c 256
 1629 868 1503 1028 1278 1028 c 256
 1104 1028 978 912 864 752 c 257
EndSplineSet
EndChar

StartChar: integral
Encoding: 476 8747 253
Width: 856
VWidth: 0
GlyphClass: 2
Flags: W
PickledData: "(dp1
S'org.pippin.gimp.org.kernagic'
p2
(dp3
S'lstem'
p4
I0
sS'rstem'
p5
I0
ssS'com.typemytype.robofont.layerData'
p6
(dp7
S'b'
(dp8
S'name'
p9
S'integral'
p10
sS'lib'
p11
(dp12
sS'unicodes'
p13
(tsS'width'
p14
I994
sS'contours'
p15
(tsS'components'
p16
(tsS'anchors'
p17
(tsssS'org.robofab.postScriptHintData'
p18
(dp19
s."
LayerCount: 2
Fore
SplineSet
359 1172 m 258
 359 -42 l 258
 359 -216 306 -270 209 -270 c 256
 181 -270 148 -265 112 -257 c 257
 112 -441 l 257
 169 -456 218 -462 261 -462 c 256
 469 -462 573 -301 573 -34 c 258
 573 1181 l 258
 573 1341 601 1420 714 1420 c 256
 738 1420 766 1416 798 1409 c 257
 798 1562 l 257
 738 1576 688 1584 643 1584 c 256
 445 1584 359 1434 359 1172 c 258
EndSplineSet
EndChar

StartChar: j
Encoding: 74 106 256
Width: 641
VWidth: 0
GlyphClass: 2
Flags: HW
PickledData: "(dp1
S'org.robofab.postScriptHintData'
p2
(dp3
sS'com.typemytype.robofont.layerData'
p4
(dp5
s."
LayerCount: 2
Fore
SplineSet
516 1445 m 256
 516 1539 453 1600 349 1600 c 256
 245 1600 182 1539 182 1445 c 256
 182 1347 245 1284 349 1284 c 256
 453 1284 516 1347 516 1445 c 256
214 1082 m 257
 214 11 l 258
 214 -158 201 -197 41 -252 c 257
 -38 -281 l 257
 40 -481 l 257
 115 -456 l 257
 361 -379 485 -306 485 -22 c 258
 485 1082 l 257
 214 1082 l 257
EndSplineSet
EndChar

StartChar: k
Encoding: 75 107 258
Width: 1158
VWidth: 0
GlyphClass: 2
Flags: W
PickledData: "(dp1
S'org.pippin.gimp.org.kernagic'
p2
(dp3
S'lstem'
p4
I0
sS'rstem'
p5
I671
ssS'com.typemytype.robofont.layerData'
p6
(dp7
sS'org.robofab.postScriptHintData'
p8
(dp9
s."
AnchorPoint: "bot" 628 0 basechar 0
LayerCount: 2
Fore
SplineSet
152 0 m 257
 423 0 l 257
 423 412.462 l 257
 506.885 489.894 l 257
 863 0 l 257
 1141 0 l 257
 1141 28 l 257
 707.234 602.321 l 257
 1117 1061 l 257
 1117 1082 l 257
 828 1082 l 257
 417.506 626.204 l 257
 423 802 l 257
 423 1560 l 257
 152 1540 l 257
 152 0 l 257
EndSplineSet
EndChar

StartChar: kgreenlandic
Encoding: 247 312 260
Width: 1139
VWidth: 0
GlyphClass: 2
Flags: W
PickledData: "(dp1
S'org.robofab.postScriptHintData'
p2
(dp3
s."
LayerCount: 2
Fore
SplineSet
130 0 m 257
 355 0 l 257
 355 375.036 l 257
 454.311 470.8 l 257
 821 0 l 257
 1076 0 l 257
 1076 15 l 257
 623.289 588.006 l 257
 1048 1061 l 257
 1048 1082 l 257
 787 1082 l 257
 349.238 584.046 l 257
 355 803 l 257
 355 1082 l 257
 130 1082 l 257
 130 0 l 257
EndSplineSet
EndChar

StartChar: l
Encoding: 76 108 261
Width: 702
VWidth: 0
GlyphClass: 2
Flags: W
PickledData: "(dp1
S'org.pippin.gimp.org.kernagic'
p2
(dp3
S'lstem'
p4
I0
sS'rstem'
p5
I238
ssS'com.fontlab.hintData'
p6
(dp7
S'vhints'
p8
((dp9
S'position'
p10
I193
sS'width'
p11
I122
stp12
sS'hhints'
p13
((dp14
g10
I-11
sg11
I87
stp15
ssS'com.typemytype.robofont.layerData'
p16
(dp17
sS'org.robofab.postScriptHintData'
p18
(dp19
s."
HStem: -11 87
VStem: 193 122
AnchorPoint: "top" 331 1529 basechar 0
LayerCount: 2
Fore
SplineSet
549 -9 m 258
 632 -7 l 257
 645 171 l 257
 542 179 l 258
 442 186 422 214 422 321 c 258
 422 1560 l 257
 151 1540 l 257
 151 336 l 258
 151 72.6024 258.47 -9.55335 511.654 -9.55335 c 256
 523.768 -9.55335 536.215 -9.36529 549 -9 c 258
EndSplineSet
EndChar

StartChar: less
Encoding: 28 60 266
Width: 1107
VWidth: 0
GlyphClass: 2
Flags: W
PickledData: "(dp1
S'org.pippin.gimp.org.kernagic'
p2
(dp3
S'lstem'
p4
I0
sS'rstem'
p5
I0
ssS'com.typemytype.robofont.layerData'
p6
(dp7
S'b'
(dp8
S'name'
p9
S'less'
p10
sS'lib'
p11
(dp12
sS'unicodes'
p13
(tsS'width'
p14
I1107
sS'contours'
p15
(tsS'components'
p16
(tsS'anchors'
p17
(tsssS'org.robofab.postScriptHintData'
p18
(dp19
s."
LayerCount: 2
Fore
SplineSet
1005 164 m 257
 1005 368 l 257
 335 689 l 257
 1005 1036 l 257
 1005 1234 l 257
 67 741 l 257
 67 625 l 257
 1005 164 l 257
EndSplineSet
EndChar

StartChar: lessequal
Encoding: 479 8804 267
Width: 1192
VWidth: 0
GlyphClass: 2
Flags: W
PickledData: "(dp1
S'org.robofab.postScriptHintData'
p2
(dp3
sS'com.typemytype.robofont.layerData'
p4
(dp5
s."
LayerCount: 2
Fore
SplineSet
120 1 m 257
 1057 1 l 257
 1057 153 l 257
 120 153 l 257
 120 1 l 257
1042 285 m 257
 1042 472 l 257
 369 788 l 257
 1042 1120 l 257
 1042 1305 l 257
 139 841 l 257
 139 732 l 257
 1042 285 l 257
EndSplineSet
EndChar

StartChar: logicalnot
Encoding: 107 172 268
Width: 1220
VWidth: 0
GlyphClass: 2
Flags: W
PickledData: "(dp1
S'org.pippin.gimp.org.kernagic'
p2
(dp3
S'lstem'
p4
I0
sS'rstem'
p5
I0
ssS'com.typemytype.robofont.layerData'
p6
(dp7
sS'org.robofab.postScriptHintData'
p8
(dp9
s."
LayerCount: 2
Fore
SplineSet
99 832 m 257
 99 654 l 257
 909 654 l 257
 909 251 l 257
 1081 251 l 257
 1081 832 l 257
 99 832 l 257
EndSplineSet
EndChar

StartChar: lozenge
Encoding: 481 9674 269
Width: 1194
VWidth: 0
GlyphClass: 2
Flags: W
PickledData: "(dp1
S'org.pippin.gimp.org.kernagic'
p2
(dp3
S'lstem'
p4
I0
sS'rstem'
p5
I0
ssS'com.typemytype.robofont.layerData'
p6
(dp7
S'b'
(dp8
S'name'
p9
S'lozenge'
p10
sS'lib'
p11
(dp12
sS'unicodes'
p13
(tsS'width'
p14
I1164
sS'contours'
p15
(tsS'components'
p16
(tsS'anchors'
p17
(tsssS'org.robofab.postScriptHintData'
p18
(dp19
s."
LayerCount: 2
Fore
SplineSet
918 752 m 257
 806 540 704 359 591 147 c 257
 479 357 386 541 277 752 c 257
 389 963 488 1144 602 1354 c 257
 710 1142 809 961 918 752 c 257
539 1551 m 257
 108 750 l 257
 532 -46 l 257
 652 -46 l 257
 1087 751 l 257
 661 1551 l 257
 539 1551 l 257
EndSplineSet
EndChar

StartChar: m
Encoding: 77 109 271
Width: 1873
VWidth: 0
GlyphClass: 2
Flags: W
PickledData: "(dp1
S'org.pippin.gimp.org.kernagic'
p2
(dp3
S'lstem'
p4
I0
sS'rstem'
p5
I0
ssS'com.fontlab.hintData'
p6
(dp7
S'vhints'
p8
((dp9
S'position'
p10
I193
sS'width'
p11
I122
s(dp12
g10
I193
sg11
I98
s(dp13
g10
I845
sg11
I122
s(dp14
g10
I1483
sg11
I122
stp15
sS'hhints'
p16
((dp17
g10
I982
sg11
I92
stp18
ssS'com.typemytype.robofont.layerData'
p19
(dp20
sS'org.robofab.postScriptHintData'
p21
(dp22
s."
HStem: 982 92
VStem: 193 122 193 98 845 122 1483 122
AnchorPoint: "top" 1014 1082 basechar 0
LayerCount: 2
Fore
SplineSet
146 0 m 257
 417 0 l 257
 417 631 l 257
 430 816 513 922 639 922 c 256
 757 922 808 839 808 616 c 258
 808 0 l 257
 1079 0 l 257
 1079 654 l 257
 1088 819 1199 922 1303 922 c 256
 1435 922 1469 808 1469 635 c 258
 1469 0 l 257
 1740 0 l 257
 1740 686 l 258
 1740 952 1615 1104 1384 1104 c 256
 1213.82 1104 1103.2 1012.78 1042.31 877.472 c 257
 987.872 1034.59 866.662 1104 720 1104 c 256
 561.964 1104 455.165 1019.66 395.404 888.758 c 257
 377 1082 l 257
 146 1082 l 257
 146 0 l 257
EndSplineSet
EndChar

StartChar: macron
Encoding: 110 175 272
Width: 1091
VWidth: 0
GlyphClass: 4
Flags: W
PickledData: "(dp1
S'org.robofab.postScriptHintData'
p2
(dp3
sS'com.typemytype.robofont.layerData'
p4
(dp5
s."
AnchorPoint: "top" 545 1073 mark 0
LayerCount: 2
Fore
SplineSet
212 1296 m 257
 861 1296 l 257
 861 1423 l 257
 212 1423 l 257
 212 1296 l 257
EndSplineSet
EndChar

StartChar: minus
Encoding: 471 8722 274
Width: 1194
VWidth: 0
GlyphClass: 2
Flags: W
PickledData: "(dp1
S'org.pippin.gimp.org.kernagic'
p2
(dp3
S'lstem'
p4
I0
sS'rstem'
p5
I0
ssS'com.typemytype.robofont.layerData'
p6
(dp7
sS'org.robofab.postScriptHintData'
p8
(dp9
s."
LayerCount: 2
Fore
SplineSet
99 666 m 257
 99 489 l 257
 1103 489 l 257
 1103 666 l 257
 99 666 l 257
EndSplineSet
EndChar

StartChar: multiply
Encoding: 150 215 275
Width: 994
VWidth: 0
GlyphClass: 2
Flags: W
PickledData: "(dp1
S'org.pippin.gimp.org.kernagic'
p2
(dp3
S'lstem'
p4
I0
sS'rstem'
p5
I0
ssS'com.typemytype.robofont.layerData'
p6
(dp7
sS'org.robofab.postScriptHintData'
p8
(dp9
s."
LayerCount: 2
Fore
SplineSet
103 878 m 257
 375 585 l 257
 99 292 l 257
 218 163 l 257
 499 456 l 257
 777 164 l 257
 896 294 l 257
 896 294 671 534 621 585 c 257
 894 877 l 257
 772 1003 l 257
 499 714 l 257
 222 1005 l 257
 103 878 l 257
EndSplineSet
EndChar

StartChar: n
Encoding: 78 110 276
Width: 1236
VWidth: 0
GlyphClass: 2
Flags: W
PickledData: "(dp1
S'org.pippin.gimp.org.kernagic'
p2
(dp3
S'lstem'
p4
I0
sS'rstem'
p5
I0
ssS'com.fontlab.hintData'
p6
(dp7
S'vhints'
p8
((dp9
S'position'
p10
I193
sS'width'
p11
I122
s(dp12
g10
I903
sg11
I122
stp13
sS'hhints'
p14
((dp15
g10
I0
sg11
I22
s(dp16
g10
I982
sg11
I92
s(dp17
g10
I1034
sg11
I21
stp18
ssS'com.typemytype.robofont.layerData'
p19
(dp20
sS'org.robofab.postScriptHintData'
p21
(dp22
s."
HStem: 0 22 982 92 1034 21
VStem: 193 122 903 122
AnchorPoint: "bot" 631 0 basechar 0
AnchorPoint: "top" 700 1082 basechar 0
LayerCount: 2
Fore
SplineSet
148 0 m 257
 419 0 l 257
 419 617 l 258
 419 805 500 922 659 922 c 256
 786 922 832 833 832 646 c 258
 832 0 l 257
 1103 0 l 257
 1103 662 l 258
 1103 942 984 1104 741 1104 c 256
 555.761 1104 454.519 1005.71 398.65 887.284 c 257
 379 1082 l 257
 148 1082 l 257
 148 0 l 257
EndSplineSet
EndChar

StartChar: nine
Encoding: 25 57 281
Width: 1319
VWidth: 0
GlyphClass: 2
Flags: W
PickledData: "(dp1
S'org.pippin.gimp.org.kernagic'
p2
(dp3
S'lstem'
p4
I0
sS'rstem'
p5
I0
ssS'com.typemytype.robofont.layerData'
p6
(dp7
sS'org.robofab.postScriptHintData'
p8
(dp9
s."
LayerCount: 2
Fore
SplineSet
932 1008 m 256
 932 812.323 799.028 729.975 675.938 729.975 c 256
 518.528 729.975 433 845.385 433 1007 c 256
 433 1162 527 1281 684 1281 c 256
 841 1281 932 1162 932 1008 c 256
339 0 m 257
 632 0 l 257
 1011 517 l 257
 1127 671 1203 804 1203 998 c 256
 1203 1264 1014 1476 684 1476 c 256
 365 1476 161 1281 161 1013 c 256
 161 718 374 561 595 561 c 256
 664.923 561 735.536 581.37 792.437 611.765 c 257
 639.316 418.818 490.007 222.06 339 27 c 257
 339 0 l 257
EndSplineSet
EndChar

StartChar: notequal
Encoding: 478 8800 282
Width: 1139
VWidth: 0
GlyphClass: 2
Flags: W
PickledData: "(dp1
S'org.pippin.gimp.org.kernagic'
p2
(dp3
S'lstem'
p4
I0
sS'rstem'
p5
I0
ssS'com.typemytype.robofont.layerData'
p6
(dp7
S'b'
(dp8
S'name'
p9
S'notequal'
p10
sS'lib'
p11
(dp12
sS'unicodes'
p13
(tsS'width'
p14
I1079
sS'contours'
p15
(tsS'components'
p16
(tsS'anchors'
p17
(tsssS'org.robofab.postScriptHintData'
p18
(dp19
s."
LayerCount: 2
Fore
SplineSet
352 44 m 257
 490 332 l 257
 1043 332 l 257
 1032 491 l 257
 562 491 l 257
 692 748 l 257
 1043 748 l 257
 1030 916 l 257
 764 916 l 257
 878 1169 l 257
 732 1190 l 257
 597 916 l 257
 61 916 l 257
 72 749 l 257
 527 749 l 257
 400 492 l 257
 63 492 l 257
 72 332 l 257
 325 332 l 257
 208 68 l 257
 352 44 l 257
EndSplineSet
EndChar

StartChar: numbersign
Encoding: 3 35 284
Width: 1135
VWidth: 0
GlyphClass: 2
Flags: W
PickledData: "(dp1
S'org.pippin.gimp.org.kernagic'
p2
(dp3
S'lstem'
p4
I0
sS'rstem'
p5
I0
ssS'com.typemytype.robofont.layerData'
p6
(dp7
sS'org.robofab.postScriptHintData'
p8
(dp9
s."
LayerCount: 2
Fore
SplineSet
410 556 m 257
 487 967 l 257
 743 967 l 257
 665 556 l 257
 410 556 l 257
161 -9 m 257
 302 -9 l 257
 387 441 l 257
 644 441 l 257
 559 -9 l 257
 701 -9 l 257
 787 441 l 257
 980 441 l 257
 996 556 l 257
 809 556 l 257
 886 967 l 257
 1067 967 l 257
 1084 1083 l 257
 907 1083 l 257
 991 1508 l 257
 848 1508 l 257
 765 1083 l 257
 508 1083 l 257
 592 1508 l 257
 448 1508 l 257
 365 1083 l 257
 166 1083 l 257
 150 967 l 257
 344 967 l 257
 267 556 l 257
 81 556 l 257
 64 441 l 257
 246 441 l 257
 161 -9 l 257
EndSplineSet
EndChar

StartChar: o
Encoding: 79 111 285
Width: 1230
VWidth: 0
GlyphClass: 2
Flags: W
PickledData: "(dp1
S'org.pippin.gimp.org.kernagic'
p2
(dp3
S'lstem'
p4
I0
sS'rstem'
p5
I0
ssS'org.robofab.postScriptHintData'
p6
(dp7
sS'com.typemytype.robofont.guides'
p8
((dp9
S'y'
I1093
sS'x'
I582
sS'magnetic'
p10
I5
sS'angle'
p11
F90
sS'isGlobal'
p12
I00
stp13
sS'com.typemytype.robofont.layerData'
p14
(dp15
sS'com.fontlab.hintData'
p16
(dp17
S'vhints'
p18
((dp19
S'position'
p20
I128
sS'width'
p21
I120
s(dp22
g20
I982
sg21
I120
stp23
sS'hhints'
p24
((dp25
g20
I-19
sg21
I92
s(dp26
g20
I982
sg21
I92
stp27
ss."
HStem: -19 92 982 92
VStem: 128 120 982 120
AnchorPoint: "top" 616 1082 basechar 0
LayerCount: 2
Fore
SplineSet
615 -21 m 256
 942 -21 1134 208 1134 544 c 256
 1134 880 943 1104 615 1104 c 256
 287 1104 96 880 96 544 c 256
 96 208 288 -21 615 -21 c 256
615 162 m 256
 450 162 369 301 369 543 c 256
 369 786 449 922 615 922 c 256
 781 922 861 786 861 543 c 256
 861 302 780 162 615 162 c 256
EndSplineSet
Substitution2: "Single Substitution lookup 4 subtable" ordmasculine
EndChar

StartChar: oe
Encoding: 274 339 290
Width: 1876
VWidth: 0
GlyphClass: 2
Flags: W
PickledData: "(dp1
S'org.pippin.gimp.org.kernagic'
p2
(dp3
S'lstem'
p4
I0
sS'rstem'
p5
I0
ssS'com.typemytype.robofont.layerData'
p6
(dp7
S'b'
(dp8
S'name'
p9
S'oe'
p10
sS'lib'
p11
(dp12
sS'unicodes'
p13
(tsS'width'
p14
F1915.3599999999999
sS'contours'
p15
(tsS'components'
p16
(tsS'anchors'
p17
(tsssS'org.robofab.postScriptHintData'
p18
(dp19
s."
LayerCount: 2
Fore
SplineSet
1085 621 m 257
 1099 828 1219 931 1356 931 c 256
 1496 931 1572 838 1580 621 c 257
 1085 621 l 257
582 159 m 256
 397 159 314 303 314 543 c 256
 314 784 397 925 582 925 c 256
 766 925 849 784 849 543 c 256
 849 303 766 159 582 159 c 256
1778 585 m 256
 1778 896.099 1628.92 1101.03 1348.24 1101.03 c 256
 1194.81 1101.03 1041.26 1005.7 970 880 c 257
 904 1005 752 1101 582 1101 c 256
 271 1101 85 882 85 543 c 256
 85 205 272 -18 582 -18 c 256
 750 -18 902 79 968 203 c 257
 1045.94 73.4189 1212.17 -18.1923 1387.13 -18.1923 c 256
 1552.47 -18.1923 1687.65 36.8237 1759 99 c 257
 1700 249 l 257
 1687 249 l 257
 1627.6 202.687 1525.29 158.99 1407.85 158.99 c 256
 1256.8 158.99 1098.88 230.673 1081 471 c 257
 1770 471 l 257
 1770 471 1778 525 1778 585 c 256
EndSplineSet
EndChar

StartChar: ogonek
Encoding: 404 731 291
Width: 766
VWidth: 0
GlyphClass: 4
Flags: W
PickledData: "(dp1
S'org.pippin.gimp.org.kernagic'
p2
(dp3
S'lstem'
p4
I0
sS'rstem'
p5
I0
ssS'com.typemytype.robofont.layerData'
p6
(dp7
sS'org.robofab.postScriptHintData'
p8
(dp9
s."
LayerCount: 2
Fore
SplineSet
447 -436 m 256
 505 -436 569 -421 618 -400 c 257
 613 -265 l 257
 597 -273 542 -295 490 -295 c 256
 447 -295 415 -263 415 -217 c 256
 415 -150 471 -52 543 4 c 257
 441 4 l 257
 352 -39 245 -138 245 -265 c 256
 245 -377 329 -436 447 -436 c 256
EndSplineSet
EndChar

StartChar: one
Encoding: 17 49 295
Width: 1319
VWidth: 0
GlyphClass: 2
Flags: W
PickledData: "(dp1
S'org.pippin.gimp.org.kernagic'
p2
(dp3
S'lstem'
p4
I0
sS'rstem'
p5
I0
ssS'com.typemytype.robofont.layerData'
p6
(dp7
sS'org.robofab.postScriptHintData'
p8
(dp9
s."
LayerCount: 2
Fore
SplineSet
196 0 m 257
 1200 0 l 257
 1200 193 l 257
 863 193 l 257
 863 1456 l 257
 613 1456 l 257
 522 1389 314 1311 202 1282 c 257
 202 1090 l 257
 295.059 1101.41 465.964 1157.53 576 1211.66 c 257
 576 193 l 257
 196 193 l 257
 196 0 l 257
EndSplineSet
EndChar

StartChar: onehalf
Encoding: 124 189 296
Width: 1867
VWidth: 0
GlyphClass: 3
Flags: W
PickledData: "(dp1
S'org.pippin.gimp.org.kernagic'
p2
(dp3
S'lstem'
p4
I0
sS'rstem'
p5
I0
ssS'com.typemytype.robofont.layerData'
p6
(dp7
sS'org.robofab.postScriptHintData'
p8
(dp9
s."
LayerCount: 2
Fore
SplineSet
389 0 m 257
 562 0 l 257
 1513 1494 l 257
 1339 1494 l 257
 389 0 l 257
147 597 m 257
 618 597 l 257
 618 727 l 257
 477 727 l 257
 477 1494 l 257
 341 1494 l 257
 307 1469 181 1404 138 1384 c 257
 138 1252 l 257
 153 1257 263 1306 300 1327 c 257
 300 727 l 257
 147 727 l 257
 147 597 l 257
1219 0 m 257
 1755 0 l 257
 1761 135 l 257
 1408 135 l 257
 1590 300 l 258
 1716 413 1768 502 1768 611 c 256
 1768 759 1668 879 1467 879 c 256
 1330 879 1217 805 1157 717 c 257
 1248 619 l 257
 1303 691 1383 733 1462 733 c 256
 1534.41 733 1595.01 689.709 1595.01 610.935 c 256
 1595.01 550.75 1564.88 491.887 1482 408 c 257
 1201 130 l 257
 1219 0 l 257
EndSplineSet
Ligature2: "fracDiagonalFractionslookup11 subtable" one slash two
EndChar

StartChar: onequarter
Encoding: 123 188 297
Width: 1671
VWidth: 0
GlyphClass: 3
Flags: W
PickledData: "(dp1
S'org.pippin.gimp.org.kernagic'
p2
(dp3
S'lstem'
p4
I0
sS'rstem'
p5
I0
ssS'com.typemytype.robofont.layerData'
p6
(dp7
sS'org.robofab.postScriptHintData'
p8
(dp9
s."
LayerCount: 2
Fore
SplineSet
1159 313 m 257
 1373 664 l 257
 1373 313 l 257
 1159 313 l 257
336 0 m 257
 519 0 l 257
 1475 1493 l 257
 1296 1493 l 257
 336 0 l 257
1373 0 m 257
 1526 0 l 257
 1526 184 l 257
 1634 184 l 257
 1639 313 l 257
 1526 313 l 257
 1526 868 l 257
 1363 868 l 257
 990 310 l 257
 990 184 l 257
 1373 184 l 257
 1373 0 l 257
124 597 m 257
 580 597 l 257
 580 743 l 257
 443 743 l 257
 443 1493 l 257
 307 1493 l 257
 273 1469 153 1403 110 1384 c 257
 110 1237 l 257
 123 1242 240 1291 277 1311 c 257
 277 743 l 257
 124 743 l 257
 124 597 l 257
EndSplineSet
Ligature2: "fracDiagonalFractionslookup11 subtable" one slash four
EndChar

StartChar: ordmasculine
Encoding: 121 186 299
Width: 965
VWidth: 0
GlyphClass: 2
Flags: W
PickledData: "(dp1
S'org.pippin.gimp.org.kernagic'
p2
(dp3
S'lstem'
p4
I0
sS'rstem'
p5
I0
ssS'com.typemytype.robofont.layerData'
p6
(dp7
S'b'
(dp8
S'name'
p9
S'ordmasculine'
p10
sS'lib'
p11
(dp12
sS'unicodes'
p13
(tsS'width'
p14
I965
sS'contours'
p15
(tsS'components'
p16
(tsS'anchors'
p17
(tsssS'org.robofab.postScriptHintData'
p18
(dp19
s."
LayerCount: 2
Fore
SplineSet
665 1112 m 256
 665 949 606 864 480 864 c 256
 363 864 302 950 302 1115 c 256
 302 1283 364 1370 480 1370 c 256
 601 1370 665 1280 665 1112 c 256
123 1115 m 256
 123 890 249 715 480 715 c 256
 700 715 837 892 837 1115 c 256
 837 1347 718 1519 480 1519 c 256
 249 1519 123 1344 123 1115 c 256
EndSplineSet
EndChar

StartChar: oslash
Encoding: 183 248 300
Width: 1230
VWidth: 0
GlyphClass: 2
Flags: W
PickledData: "(dp1
S'org.pippin.gimp.org.kernagic'
p2
(dp3
S'lstem'
p4
I0
sS'rstem'
p5
I0
ssS'com.typemytype.robofont.layerData'
p6
(dp7
sS'org.robofab.postScriptHintData'
p8
(dp9
s."
LayerCount: 2
Fore
SplineSet
212 -125 m 257
 284 -171 l 257
 1018 1205 l 257
 941 1251 l 257
 212 -125 l 257
EndSplineSet
Refer: 285 111 N 1 0 0 1 0 0 2
EndChar

StartChar: p
Encoding: 80 112 303
Width: 1242
VWidth: 0
GlyphClass: 2
Flags: W
PickledData: "(dp1
S'org.pippin.gimp.org.kernagic'
p2
(dp3
S'lstem'
p4
I0
sS'rstem'
p5
I0
ssS'com.fontlab.hintData'
p6
(dp7
S'vhints'
p8
((dp9
S'position'
p10
I193
sS'width'
p11
I122
s(dp12
g10
I193
sg11
I97
s(dp13
g10
I1009
sg11
I122
stp14
sS'hhints'
p15
((dp16
g10
I-19
sg11
I92
s(dp17
g10
I982
sg11
I92
stp18
ssS'com.typemytype.robofont.layerData'
p19
(dp20
sS'org.robofab.postScriptHintData'
p21
(dp22
s."
HStem: -19 92 982 92
VStem: 193 122 193 97 1009 122
AnchorPoint: "top" 663 1082 basechar 0
LayerCount: 2
Fore
SplineSet
640 162 m 256
 539 162 463 203 413 270 c 257
 413 663 l 257
 429 817 505 922 657 922 c 256
 802 922 871 799 871 546 c 256
 871 269 783 162 640 162 c 256
148 -467 m 257
 416 -467 l 257
 416 -61 l 257
 411.309 96.7321 l 257
 469.455 30.9383 562.467 -20 695 -20 c 256
 985 -20 1144 214 1144 545 c 256
 1144 870 1006 1104 715 1104 c 256
 547.407 1104 444.164 1011.26 396.251 878.898 c 257
 384 1082 l 257
 148 1082 l 257
 148 -467 l 257
EndSplineSet
EndChar

StartChar: paragraph
Encoding: 117 182 304
Width: 1196
VWidth: 0
GlyphClass: 2
Flags: W
PickledData: "(dp1
S'org.pippin.gimp.org.kernagic'
p2
(dp3
S'lstem'
p4
I0
sS'rstem'
p5
I0
ssS'com.typemytype.robofont.layerData'
p6
(dp7
sS'org.robofab.postScriptHintData'
p8
(dp9
s."
LayerCount: 2
Fore
SplineSet
672 1318 m 257
 839 1318 l 257
 839 -230 l 257
 993 -230 l 257
 993 1456 l 257
 609 1456 l 258
 238 1456 115 1305 115 1083 c 256
 115 897 234 722 518 722 c 257
 518 -230 l 257
 672 -230 l 257
 672 1318 l 257
EndSplineSet
EndChar

StartChar: parenright
Encoding: 9 41 306
Width: 826
VWidth: 0
GlyphClass: 2
Flags: W
PickledData: "(dp1
S'org.pippin.gimp.org.kernagic'
p2
(dp3
S'lstem'
p4
I0
sS'rstem'
p5
I0
ssS'com.typemytype.robofont.layerData'
p6
(dp7
S'b'
(dp8
S'name'
p9
S'parenright'
p10
sS'lib'
p11
(dp12
sS'unicodes'
p13
(tsS'width'
p14
I766
sS'contours'
p15
(tsS'components'
p16
(tsS'anchors'
p17
(tsssS'org.robofab.postScriptHintData'
p18
(dp19
s."
LayerCount: 2
Fore
SplineSet
620 663 m 256
 620 1008 507 1371 349 1593 c 257
 152 1593 l 257
 152 1556 l 257
 304 1343 413 1067 413 663 c 256
 413 260 304 -22 152 -235 c 257
 152 -267 l 257
 349 -267 l 257
 507 -44 620 318 620 663 c 256
EndSplineSet
EndChar

StartChar: partialdiff
Encoding: 466 8706 307
Width: 1284
VWidth: 0
GlyphClass: 2
Flags: W
PickledData: "(dp1
S'org.robofab.postScriptHintData'
p2
(dp3
s."
LayerCount: 2
Fore
SplineSet
529 113 m 256
 463.748 113 431.902 177.688 431.902 268.153 c 256
 431.902 468.833 588.611 796.361 885 826 c 257
 864 542 752 113 529 113 c 256
515 -20 m 256
 880 -20 1116 390 1116 920 c 256
 1116 1313.78 873.854 1560.17 575.173 1560.17 c 256
 472.61 1560.17 363.38 1531.11 255 1469 c 257
 305 1343 l 257
 383.155 1384.85 460.293 1404.58 531.687 1404.58 c 256
 735.632 1404.58 892.703 1243.57 892.703 977.194 c 256
 892.703 966.951 892.471 956.552 892 946 c 257
 436.871 930.201 182.607 576.92 182.607 302.131 c 256
 182.607 124.703 288.613 -20 515 -20 c 256
EndSplineSet
EndChar

StartChar: percent
Encoding: 5 37 308
Width: 1925
VWidth: 0
GlyphClass: 2
Flags: W
PickledData: "(dp1
S'org.pippin.gimp.org.kernagic'
p2
(dp3
S'lstem'
p4
I0
sS'rstem'
p5
I0
ssS'com.typemytype.robofont.layerData'
p6
(dp7
S'b'
(dp8
S'name'
p9
S'percent'
p10
sS'lib'
p11
(dp12
sS'unicodes'
p13
(tsS'width'
p14
I1563
sS'contours'
p15
(tsS'components'
p16
(tsS'anchors'
p17
(tsssS'org.robofab.postScriptHintData'
p18
(dp19
s."
LayerCount: 2
Fore
SplineSet
1445 -21 m 256
 1682 -21 1812 155 1812 380 c 256
 1812 609 1685 777 1445 777 c 256
 1209 777 1079 605 1079 380 c 256
 1079 155 1205 -21 1445 -21 c 256
1448 129 m 256
 1314 129 1256 238 1256 382 c 256
 1256 523 1314 632 1448 632 c 256
 1580 632 1636 528 1636 382 c 256
 1636 241 1581 129 1448 129 c 256
430 0 m 257
 625 0 l 257
 1459 1495 l 257
 1273 1495 l 257
 430 0 l 257
448 717 m 256
 685 717 815 893 815 1117 c 256
 815 1346 688 1515 448 1515 c 256
 212 1515 92 1343 92 1117 c 256
 92 893 208 717 448 717 c 256
451 867 m 256
 317 867 259 975 259 1120 c 256
 259 1261 317 1370 451 1370 c 256
 583 1370 639 1266 639 1120 c 256
 639 978 584 867 451 867 c 256
EndSplineSet
EndChar

StartChar: period
Encoding: 14 46 309
Width: 684
VWidth: 0
GlyphClass: 2
Flags: W
PickledData: "(dp1
S'org.pippin.gimp.org.kernagic'
p2
(dp3
S'lstem'
p4
I0
sS'rstem'
p5
I0
ssS'com.typemytype.robofont.layerData'
p6
(dp7
S'b'
(dp8
S'name'
p9
S'period'
p10
sS'lib'
p11
(dp12
sS'unicodes'
p13
(tsS'width'
p14
I624
sS'contours'
p15
(tsS'components'
p16
(tsS'anchors'
p17
(tsssS'org.robofab.postScriptHintData'
p18
(dp19
s."
LayerCount: 2
Fore
SplineSet
340 -9 m 256
 424 -9 479 40 479 134 c 256
 479 229 424 277 340 277 c 256
 256 277 201 229 201 134 c 256
 201 39 257 -9 340 -9 c 256
EndSplineSet
EndChar

StartChar: periodcentered
Encoding: 118 183 310
Width: 623
VWidth: 0
GlyphClass: 2
Flags: W
PickledData: "(dp1
S'org.pippin.gimp.org.kernagic'
p2
(dp3
S'lstem'
p4
I0
sS'rstem'
p5
I0
ssS'com.typemytype.robofont.layerData'
p6
(dp7
S'b'
(dp8
S'name'
p9
S'periodcentered'
p10
sS'lib'
p11
(dp12
sS'unicodes'
p13
(tsS'width'
p14
I653
sS'contours'
p15
(tsS'components'
p16
(tsS'anchors'
p17
(tsssS'org.robofab.postScriptHintData'
p18
(dp19
s."
LayerCount: 2
Fore
SplineSet
413 478 m 256
 498 478 556 536 556 626 c 256
 556 714 498 770 413 770 c 256
 327 770 269 714 269 626 c 256
 269 536 327 478 413 478 c 256
EndSplineSet
EndChar

StartChar: perthousand
Encoding: 456 8240 311
Width: 2780
VWidth: 0
GlyphClass: 2
Flags: W
PickledData: "(dp1
S'org.pippin.gimp.org.kernagic'
p2
(dp3
S'lstem'
p4
I0
sS'rstem'
p5
I0
ssS'com.typemytype.robofont.layerData'
p6
(dp7
S'b'
(dp8
S'name'
p9
S'perthousand'
p10
sS'lib'
p11
(dp12
sS'unicodes'
p13
(tsS'width'
p14
I2251
sS'contours'
p15
(tsS'components'
p16
(tsS'anchors'
p17
(tsssS'org.robofab.postScriptHintData'
p18
(dp19
s."
LayerCount: 2
Fore
SplineSet
2300 -21 m 256
 2537 -21 2667 155 2667 380 c 256
 2667 609 2540 777 2300 777 c 256
 2064 777 1934 605 1934 380 c 256
 1934 155 2060 -21 2300 -21 c 256
2303 129 m 256
 2169 129 2111 238 2111 382 c 256
 2111 523 2169 632 2303 632 c 256
 2435 632 2491 528 2491 382 c 256
 2491 241 2436 129 2303 129 c 256
EndSplineSet
Refer: 308 37 N 1 0 0 1 31 0 2
EndChar

StartChar: pi
Encoding: 417 960 312
Width: 1468
VWidth: 0
GlyphClass: 2
Flags: W
PickledData: "(dp1
S'org.robofab.postScriptHintData'
p2
(dp3
sS'com.typemytype.robofont.layerData'
p4
(dp5
s."
LayerCount: 2
Fore
SplineSet
1146 -13 m 256
 1224 -13 1290 11 1324 44 c 257
 1324 173 l 257
 1296 163 1258 153 1217 153 c 256
 1154 153 1105 188 1105 294 c 256
 1105 403 1112 674 1128 874 c 257
 1366 874 l 257
 1366 1082 l 257
 472 1082 l 258
 233 1082 159 960 159 742 c 257
 255 742 l 257
 267 819 307 873 387 874 c 257
 482 874 l 257
 418 391 l 258
 390 173 257 112 171 112 c 257
 171 4 l 257
 519 4 589 106 600 326 c 258
 626 874 l 257
 974 874 l 257
 938 665 904 371 904 231 c 256
 904 51 997 -13 1146 -13 c 256
EndSplineSet
EndChar

StartChar: plus
Encoding: 11 43 313
Width: 1166
VWidth: 0
GlyphClass: 2
Flags: W
PickledData: "(dp1
S'org.pippin.gimp.org.kernagic'
p2
(dp3
S'lstem'
p4
I0
sS'rstem'
p5
I0
ssS'com.typemytype.robofont.layerData'
p6
(dp7
S'b'
(dp8
S'name'
p9
S'plus'
p10
sS'lib'
p11
(dp12
sS'unicodes'
p13
(tsS'width'
p14
I1136
sS'contours'
p15
(tsS'components'
p16
(tsS'anchors'
p17
(tsssS'org.robofab.postScriptHintData'
p18
(dp19
s."
LayerCount: 2
Fore
SplineSet
473 1198 m 257
 473 823 l 257
 110 823 l 257
 110 614 l 257
 473 614 l 257
 473 233 l 257
 686 233 l 257
 686 614 l 257
 1047 614 l 257
 1047 823 l 257
 687 823 l 257
 687 1198 l 257
 473 1198 l 257
EndSplineSet
EndChar

StartChar: plusminus
Encoding: 112 177 314
Width: 1136
VWidth: 0
GlyphClass: 2
Flags: W
PickledData: "(dp1
S'org.pippin.gimp.org.kernagic'
p2
(dp3
S'lstem'
p4
I0
sS'rstem'
p5
I0
ssS'com.typemytype.robofont.layerData'
p6
(dp7
sS'org.robofab.postScriptHintData'
p8
(dp9
s."
LayerCount: 2
Fore
SplineSet
105 164 m 257
 105 0 l 257
 1039 0 l 257
 1039 164 l 257
 105 164 l 257
476 1178 m 257
 476 816 l 257
 114 816 l 257
 114 636 l 257
 476 636 l 257
 476 275 l 257
 662 275 l 257
 662 636 l 257
 1022 636 l 257
 1022 816 l 257
 662 816 l 257
 662 1178 l 257
 476 1178 l 257
EndSplineSet
EndChar

StartChar: product
Encoding: 469 8719 315
Width: 1564
VWidth: 0
GlyphClass: 2
Flags: W
PickledData: "(dp1
S'org.pippin.gimp.org.kernagic'
p2
(dp3
S'lstem'
p4
I0
sS'rstem'
p5
I0
ssS'com.typemytype.robofont.layerData'
p6
(dp7
S'b'
(dp8
S'name'
p9
S'product'
p10
sS'lib'
p11
(dp12
sS'unicodes'
p13
(tsS'width'
p14
I1533
sS'contours'
p15
(tsS'components'
p16
(tsS'anchors'
p17
(tsssS'org.robofab.postScriptHintData'
p18
(dp19
s."
LayerCount: 2
Fore
SplineSet
203 1519 m 257
 203 0 l 257
 380 0 l 257
 380 1362 l 257
 1189 1362 l 257
 1189 0 l 257
 1366 0 l 257
 1366 1519 l 257
 203 1519 l 257
EndSplineSet
EndChar

StartChar: q
Encoding: 81 113 316
Width: 1234
VWidth: 0
GlyphClass: 2
Flags: W
PickledData: "(dp1
S'org.pippin.gimp.org.kernagic'
p2
(dp3
S'lstem'
p4
I0
sS'rstem'
p5
I0
ssS'com.typemytype.robofont.layerData'
p6
(dp7
sS'org.robofab.postScriptHintData'
p8
(dp9
s."
LayerCount: 2
Fore
SplineSet
607 162 m 256
 462 162 369 267 369 548 c 256
 369 808 455 922 599 922 c 256
 697 922 776 881 827 804 c 257
 827 261 l 257
 782 201 707 162 607 162 c 256
824 -467 m 257
 1092 -467 l 257
 1092 1082 l 257
 856 1082 l 257
 847.554 935.255 l 257
 794.263 1029.8 699.316 1104 548 1104 c 256
 256 1104 96 872 96 547 c 256
 96 212.716 249.342 -20.0032 551.059 -20.0032 c 256
 551.705 -20.0032 552.352 -20.0021 553 -20 c 256
 665.813 -20 763.405 26.1522 827.887 98.5028 c 257
 824 -37 l 257
 824 -467 l 257
EndSplineSet
EndChar

StartChar: question
Encoding: 31 63 317
Width: 999
VWidth: 0
GlyphClass: 2
Flags: W
PickledData: "(dp1
S'org.pippin.gimp.org.kernagic'
p2
(dp3
S'lstem'
p4
I0
sS'rstem'
p5
I0
ssS'com.typemytype.robofont.layerData'
p6
(dp7
sS'org.robofab.postScriptHintData'
p8
(dp9
s."
LayerCount: 2
Fore
SplineSet
368 -17 m 256
 457 -17 505 43 505 123 c 256
 505 202 457 262 368 262 c 256
 278 262 228 202 228 123 c 256
 228 44 278 -17 368 -17 c 256
327 469 m 257
 407 454 l 257
 560 785 848 828 848 1172 c 256
 848 1405 667 1519 464 1519 c 256
 343 1519 205 1479 115 1398 c 257
 177 1207 l 257
 239 1244 334 1287 423 1287 c 256
 540.768 1287 596.004 1218.54 596.004 1108.66 c 256
 596.004 932.361 399.815 806.145 327 469 c 257
EndSplineSet
EndChar

StartChar: quotedbl
Encoding: 2 34 319
Width: 785
VWidth: 0
GlyphClass: 2
Flags: W
PickledData: "(dp1
S'org.robofab.postScriptHintData'
p2
(dp3
sS'com.typemytype.robofont.layerData'
p4
(dp5
s."
LayerCount: 2
Fore
SplineSet
527 953 m 257
 651 953 l 257
 694 1543 l 257
 448 1543 l 257
 527 953 l 257
177 953 m 257
 300 953 l 257
 343 1543 l 257
 97 1543 l 257
 177 953 l 257
EndSplineSet
EndChar

StartChar: quotedblbase
Encoding: 451 8222 320
Width: 864
VWidth: 0
GlyphClass: 2
Flags: W
PickledData: "(dp1
S'org.robofab.postScriptHintData'
p2
(dp3
s."
LayerCount: 2
Fore
SplineSet
469 -347 m 257
 632 -347 l 257
 749 151 l 257
 511 151 l 257
 469 -347 l 257
107 -347 m 257
 272 -347 l 257
 387 151 l 257
 150 151 l 257
 107 -347 l 257
EndSplineSet
EndChar

StartChar: quotedblleft
Encoding: 449 8220 321
Width: 940
VWidth: 0
GlyphClass: 2
Flags: W
PickledData: "(dp1
S'org.robofab.postScriptHintData'
p2
(dp3
sS'com.typemytype.robofont.layerData'
p4
(dp5
s."
LayerCount: 2
Fore
SplineSet
526 1026 m 257
 772 1026 l 257
 813 1529 l 257
 643 1529 l 257
 526 1026 l 257
136 1026 m 257
 383 1026 l 257
 424 1529 l 257
 253 1529 l 257
 136 1026 l 257
EndSplineSet
EndChar

StartChar: quotedblright
Encoding: 450 8221 322
Width: 940
VWidth: 0
GlyphClass: 2
Flags: W
PickledData: "(dp1
S'org.robofab.postScriptHintData'
p2
(dp3
sS'com.typemytype.robofont.layerData'
p4
(dp5
s."
LayerCount: 2
Fore
SplineSet
136 1026 m 257
 307 1026 l 257
 424 1529 l 257
 177 1529 l 257
 136 1026 l 257
526 1026 m 257
 696 1026 l 257
 813 1529 l 257
 567 1529 l 257
 526 1026 l 257
EndSplineSet
EndChar

StartChar: quoteleft
Encoding: 446 8216 323
Width: 528
VWidth: 0
GlyphClass: 2
Flags: W
PickledData: "(dp1
S'org.robofab.postScriptHintData'
p2
(dp3
sS'com.typemytype.robofont.layerData'
p4
(dp5
s."
LayerCount: 2
Fore
SplineSet
424 1529 m 257
 253 1529 l 257
 136 1026 l 257
 383 1026 l 257
 424 1529 l 257
EndSplineSet
EndChar

StartChar: quoteright
Encoding: 447 8217 324
Width: 528
VWidth: 0
GlyphClass: 2
Flags: W
PickledData: "(dp1
S'org.robofab.postScriptHintData'
p2
(dp3
sS'com.typemytype.robofont.layerData'
p4
(dp5
s."
LayerCount: 2
Fore
SplineSet
136 1026 m 257
 307 1026 l 257
 424 1529 l 257
 177 1529 l 257
 136 1026 l 257
EndSplineSet
EndChar

StartChar: quotesinglbase
Encoding: 448 8218 325
Width: 492
VWidth: 0
GlyphClass: 2
Flags: W
PickledData: "(dp1
S'org.robofab.postScriptHintData'
p2
(dp3
s."
LayerCount: 2
Fore
SplineSet
101 -347 m 257
 268 -347 l 257
 386 151 l 257
 147 151 l 257
 101 -347 l 257
EndSplineSet
EndChar

StartChar: quotesingle
Encoding: 7 39 326
Width: 524
VWidth: 0
GlyphClass: 2
Flags: W
PickledData: "(dp1
S'org.robofab.postScriptHintData'
p2
(dp3
s."
LayerCount: 2
Fore
SplineSet
194 932 m 257
 325 932 l 257
 363 1529 l 257
 123 1529 l 257
 194 932 l 257
EndSplineSet
EndChar

StartChar: r
Encoding: 82 114 327
Width: 827
VWidth: 0
GlyphClass: 2
Flags: W
PickledData: "(dp1
S'org.pippin.gimp.org.kernagic'
p2
(dp3
S'lstem'
p4
I0
sS'rstem'
p5
I352
ssS'com.fontlab.hintData'
p6
(dp7
S'vhints'
p8
((dp9
S'position'
p10
I193
sS'width'
p11
I122
s(dp12
g10
I193
sg11
I92
stp13
sS'hhints'
p14
((dp15
g10
I974
sg11
I94
stp16
ssS'com.typemytype.robofont.layerData'
p17
(dp18
sS'org.robofab.postScriptHintData'
p19
(dp20
s."
HStem: 974 94
VStem: 193 122 193 92
AnchorPoint: "bot" 326 0 basechar 0
AnchorPoint: "top" 441 1082 basechar 0
LayerCount: 2
Fore
SplineSet
143 0 m 257
 414 0 l 257
 414 611 l 258
 414 773.395 530.799 884.399 702.978 884.399 c 256
 708.92 884.399 714.928 884.267 721 884 c 258
 770 881 l 257
 788 1083 l 257
 748 1090 709 1092 680 1092 c 256
 572.27 1092 458.898 1037.19 391.98 882.724 c 257
 374 1082 l 257
 143 1082 l 257
 143 0 l 257
EndSplineSet
EndChar

StartChar: radical
Encoding: 474 8730 329
Width: 1269
VWidth: 0
GlyphClass: 2
Flags: W
PickledData: "(dp1
S'org.pippin.gimp.org.kernagic'
p2
(dp3
S'lstem'
p4
I0
sS'rstem'
p5
I0
ssS'com.typemytype.robofont.layerData'
p6
(dp7
S'b'
(dp8
S'name'
p9
S'radical'
p10
sS'lib'
p11
(dp12
sS'unicodes'
p13
(tsS'width'
p14
I1136
sS'contours'
p15
(tsS'components'
p16
(tsS'anchors'
p17
(tsssS'org.robofab.postScriptHintData'
p18
(dp19
s."
LayerCount: 2
Fore
SplineSet
1024 1639 m 257
 958 1360 681 399 615 120 c 257
 527.425 396.092 429.258 661.592 336 932 c 257
 32 849 l 257
 55 726 l 257
 200 763 l 257
 536 -165 l 257
 759 -165 l 257
 1237 1639 l 257
 1024 1639 l 257
EndSplineSet
EndChar

StartChar: registered
Encoding: 109 174 332
Width: 1877
VWidth: 0
GlyphClass: 2
Flags: W
PickledData: "(dp1
S'org.pippin.gimp.org.kernagic'
p2
(dp3
S'lstem'
p4
I0
sS'rstem'
p5
I0
ssS'com.typemytype.robofont.layerData'
p6
(dp7
sS'org.robofab.postScriptHintData'
p8
(dp9
s."
LayerCount: 2
Fore
SplineSet
910 -39 m 256
 1315 -39 1676 264 1676 729 c 256
 1676 1193 1315 1495 910 1495 c 256
 506 1495 146 1193 146 729 c 256
 146 264 506 -39 910 -39 c 256
910 85 m 256
 578 85 287 340 287 729 c 256
 287 1117 578 1371 910 1371 c 256
 1243 1371 1535 1116 1535 729 c 256
 1535 340 1243 85 910 85 c 256
760 821 m 257
 760 1081 l 257
 885 1081 l 258
 1042 1081 1101 1077 1101 952 c 256
 1101 850 1046 821 906 821 c 258
 760 821 l 257
615 309 m 257
 760 309 l 257
 760 714 l 257
 899 714 l 257
 903 708 1118 309 1118 309 c 257
 1284 309 l 257
 1284 309 1056 715 1048 726 c 257
 1189 754 1244 831 1244 957 c 256
 1244 1143 1127 1197 911 1197 c 258
 615 1197 l 257
 615 309 l 257
EndSplineSet
EndChar

StartChar: ring
Encoding: 403 730 333
Width: 764
VWidth: 0
GlyphClass: 4
Flags: W
PickledData: "(dp1
S'org.robofab.postScriptHintData'
p2
(dp3
sS'com.typemytype.robofont.layerData'
p4
(dp5
s."
AnchorPoint: "top" 364 1073 mark 0
LayerCount: 2
Fore
SplineSet
365 1195 m 256
 493 1195 577 1290 577 1400 c 256
 577 1508 495 1602 365 1602 c 256
 237 1602 156 1510 156 1400 c 256
 156 1290 238 1195 365 1195 c 256
365 1294 m 256
 304 1294 272 1341 272 1398 c 256
 272 1452 307 1502 365 1502 c 256
 424 1502 461 1452 461 1398 c 256
 461 1343 424 1294 365 1294 c 256
EndSplineSet
EndChar

StartChar: s
Encoding: 83 115 334
Width: 993
VWidth: 0
GlyphClass: 2
Flags: W
PickledData: "(dp1
S'org.pippin.gimp.org.kernagic'
p2
(dp3
S'lstem'
p4
I168
sS'rstem'
p5
I620
ssS'org.robofab.postScriptHintData'
p6
(dp7
sS'com.typemytype.robofont.guides'
p8
((dp9
S'y'
I381
sS'x'
I77
sS'magnetic'
p10
I5
sS'angle'
p11
F90
sS'isGlobal'
p12
I00
stp13
sS'com.typemytype.robofont.layerData'
p14
(dp15
sS'com.fontlab.hintData'
p16
(dp17
S'vhints'
p18
((dp19
S'position'
p20
I142
sS'width'
p21
I107
s(dp22
g20
I738
sg21
I104
stp23
sS'hhints'
p24
((dp25
g20
I-19
sg21
I92
s(dp26
g20
I982
sg21
I92
stp27
ss."
HStem: -19 92 982 92
VStem: 142 107 738 104
AnchorPoint: "bot" 498 1 basechar 0
AnchorPoint: "top" 496 1082 basechar 0
LayerCount: 2
Fore
SplineSet
676.314 302.851 m 256
 676.314 214.808 621.429 163 516 163 c 256
 426 163 311 187 222 295 c 257
 200 295 l 257
 70 172 l 257
 171 43 329 -20 525 -20 c 256
 741.694 -20 930.024 86.3346 930.024 311.165 c 256
 930.024 438.109 898.049 534.492 653 627 c 258
 518 678 l 257
 405.194 719.107 382.865 751.075 382.865 801.862 c 256
 382.865 874.566 435.079 917.068 542.616 917.068 c 256
 632.35 917.068 718.793 880.514 771 815 c 257
 784 815 l 257
 911 927 l 257
 835 1046 691 1104 513 1104 c 256
 261.19 1104 105.954 985.929 105.954 795.291 c 256
 105.954 651.236 170.541 561.784 400 483 c 257
 516 444 l 258
 653.287 397.304 676.314 357.585 676.314 302.851 c 256
EndSplineSet
EndChar

StartChar: section
Encoding: 102 167 340
Width: 1049
VWidth: 0
GlyphClass: 2
Flags: W
PickledData: "(dp1
S'org.pippin.gimp.org.kernagic'
p2
(dp3
S'lstem'
p4
I0
sS'rstem'
p5
I0
ssS'com.typemytype.robofont.layerData'
p6
(dp7
S'b'
(dp8
S'name'
p9
S'section'
p10
sS'lib'
p11
(dp12
sS'unicodes'
p13
(tsS'width'
p14
I1079
sS'contours'
p15
(tsS'components'
p16
(tsS'anchors'
p17
(tsssS'org.robofab.postScriptHintData'
p18
(dp19
s."
LayerCount: 2
Fore
SplineSet
672 610 m 257
 657 616 607 638 535 660 c 257
 390 719 353 741 353 806 c 256
 353 853 375 890 408 907 c 257
 413 905 466 884 556 850 c 256
 672.376 805.619 708.021 760.266 708.021 705.307 c 256
 708.021 665.723 694.689 633.72 672 610 c 257
506.251 -20.1887 m 256
 720.954 -20.1887 886 74.1639 886 323 c 256
 886 409 860 479 796 536 c 257
 850.763 589.689 891.326 656.384 891.326 756.12 c 256
 891.326 888.291 836.061 969.309 637 1043 c 256
 405 1131 383 1157 383 1222 c 256
 383 1295 436 1335 552 1335 c 256
 647 1335 745 1303 807 1270 c 257
 858 1425 l 257
 760 1484 640 1515 531 1515 c 256
 334.315 1515 157.566 1426.7 157.566 1206.93 c 256
 157.566 1110.15 196.31 1038.13 283 975 c 257
 215 919 165 845 165 760 c 256
 165 630 237 557 422 487 c 256
 632.143 409.029 672.304 366.319 672.304 305.568 c 256
 672.304 207.147 612.529 161.152 504.753 161.152 c 256
 394.076 161.152 266.348 207.576 180 254 c 257
 180 62 l 257
 277.707 12.1884 401.108 -20.1887 506.251 -20.1887 c 256
EndSplineSet
EndChar

StartChar: semicolon
Encoding: 27 59 341
Width: 740
VWidth: 0
GlyphClass: 2
Flags: W
PickledData: "(dp1
S'org.pippin.gimp.org.kernagic'
p2
(dp3
S'lstem'
p4
I0
sS'rstem'
p5
I0
ssS'com.typemytype.robofont.layerData'
p6
(dp7
sS'org.robofab.postScriptHintData'
p8
(dp9
s."
LayerCount: 2
Fore
SplineSet
379 810 m 256
 468 810 526 866 526 953 c 256
 526 1042 468 1101 379 1101 c 256
 290 1101 230 1042 230 953 c 256
 230 865 291 810 379 810 c 256
226 -327 m 257
 384 -327 l 257
 505 126 l 257
 505 260 l 257
 264 260 l 257
 264 226 226 -327 226 -327 c 257
EndSplineSet
EndChar

StartChar: seven
Encoding: 23 55 342
Width: 1319
VWidth: 0
GlyphClass: 2
Flags: W
PickledData: "(dp1
S'org.pippin.gimp.org.kernagic'
p2
(dp3
S'lstem'
p4
I0
sS'rstem'
p5
I0
ssS'com.typemytype.robofont.layerData'
p6
(dp7
sS'org.robofab.postScriptHintData'
p8
(dp9
s."
LayerCount: 2
Fore
SplineSet
332 0 m 257
 622 0 l 257
 1141 1257 l 257
 1138 1456 l 257
 178 1456 l 257
 191 1252 l 257
 847 1252 l 257
 332 0 l 257
EndSplineSet
EndChar

StartChar: six
Encoding: 22 54 343
Width: 1319
VWidth: 0
GlyphClass: 2
Flags: W
PickledData: "(dp1
S'org.pippin.gimp.org.kernagic'
p2
(dp3
S'lstem'
p4
I0
sS'rstem'
p5
I0
ssS'com.typemytype.robofont.layerData'
p6
(dp7
sS'org.robofab.postScriptHintData'
p8
(dp9
s."
LayerCount: 2
Fore
SplineSet
667 177 m 256
 510 177 421 295 421 449 c 256
 421 643 550 727 670 727 c 256
 824 727 914 615 914 452 c 256
 914 297 824 177 667 177 c 256
669 -20 m 256
 990 -20 1186 179 1186 447 c 256
 1186 741 978 895 760 895 c 256
 673.294 895 600.533 866.752 546.208 832.707 c 257
 698.496 1029.45 846.347 1230.62 996 1430 c 257
 996 1456 l 257
 699 1456 l 257
 334 942 l 257
 220 784 150 653 150 459 c 256
 150 193 339 -20 669 -20 c 256
EndSplineSet
EndChar

StartChar: slash
Encoding: 15 47 344
Width: 996
VWidth: 0
GlyphClass: 2
Flags: W
PickledData: "(dp1
S'org.pippin.gimp.org.kernagic'
p2
(dp3
S'lstem'
p4
I0
sS'rstem'
p5
I0
ssS'com.typemytype.robofont.layerData'
p6
(dp7
S'b'
(dp8
S'name'
p9
S'slash'
p10
sS'lib'
p11
(dp12
sS'unicodes'
p13
(tsS'width'
p14
I965
sS'contours'
p15
(tsS'components'
p16
(tsS'anchors'
p17
(tsssS'org.robofab.postScriptHintData'
p18
(dp19
s."
LayerCount: 2
Fore
SplineSet
93 -164 m 257
 276 -164 l 257
 911 1560 l 257
 724 1560 l 257
 93 -164 l 257
EndSplineSet
EndChar

StartChar: slashbar
Encoding: 65542 -1 345
Width: 585
VWidth: 0
GlyphClass: 4
Flags: W
PickledData: "(dp1
S'org.pippin.gimp.org.kernagic'
p2
(dp3
S'lstem'
p4
I0
sS'rstem'
p5
I0
ssS'com.typemytype.robofont.layerData'
p6
(dp7
S'b'
(dp8
S'name'
p9
S'slashbar'
p10
sS'lib'
p11
(dp12
sS'unicodes'
p13
(tsS'width'
p14
I908
sS'contours'
p15
(tsS'components'
p16
(tsS'anchors'
p17
(tsssS'org.robofab.postScriptHintData'
p18
(dp19
s."
LayerCount: 2
Fore
SplineSet
162 466 m 257
 798 742 l 257
 798 931 l 257
 162 654 l 257
 162 466 l 257
EndSplineSet
EndChar

StartChar: sterling
Encoding: 98 163 347
Width: 1182
VWidth: 0
GlyphClass: 2
Flags: W
PickledData: "(dp1
S'org.pippin.gimp.org.kernagic'
p2
(dp3
S'lstem'
p4
I0
sS'rstem'
p5
I0
ssS'com.typemytype.robofont.layerData'
p6
(dp7
S'b'
(dp8
S'name'
p9
S'sterling'
p10
sS'lib'
p11
(dp12
sS'unicodes'
p13
(tsS'width'
p14
I1136
sS'contours'
p15
((dp16
S'points'
p17
((dp18
S'segmentType'
p19
S'line'
p20
sS'x'
I20
sS'smooth'
p21
I00
sS'y'
I0
s(dp22
g19
S'line'
p23
sS'x'
I8
sg21
I00
sS'y'
I115
s(dp24
g19
S'line'
p25
sS'x'
I180
sg21
I00
sS'y'
I132
s(dp26
g19
S'line'
p27
sS'x'
I180
sg21
I00
sS'y'
I683
s(dp28
g19
S'line'
p29
sS'x'
I8
sg21
I00
sS'y'
I683
s(dp30
g19
S'line'
p31
sS'x'
I8
sg21
I00
sS'y'
I806
s(dp32
g19
S'line'
p33
sS'x'
I180
sg21
I00
sS'y'
I806
s(dp34
g19
S'line'
p35
sS'x'
I180
sg21
I01
sS'y'
I920
s(dp36
S'y'
I1183
sS'x'
I180
sg21
I00
s(dp37
S'y'
I1476
sS'x'
I245
sg21
I00
s(dp38
g19
S'curve'
p39
sS'x'
I598
sg21
I01
sS'y'
I1476
s(dp40
S'y'
I1476
sS'x'
I742
sg21
I00
s(dp41
S'y'
I1421
sS'x'
I854
sg21
I00
s(dp42
g19
S'curve'
p43
sS'x'
I939
sg21
I00
sS'y'
I1347
s(dp44
g19
S'line'
p45
sS'x'
I871
sg21
I00
sS'y'
I1229
s(dp46
S'y'
I1297
sS'x'
I785
sg21
I00
s(dp47
S'y'
I1334
sS'x'
I700
sg21
I00
s(dp48
g19
S'curve'
p49
sS'x'
I598
sg21
I01
sS'y'
I1334
s(dp50
S'y'
I1334
sS'x'
I397
sg21
I00
s(dp51
S'y'
I1179
sS'x'
I356
sg21
I00
s(dp52
g19
S'curve'
p53
sS'x'
I356
sg21
I01
sS'y'
I949
s(dp54
g19
S'line'
p55
sS'x'
I356
sg21
I00
sS'y'
I806
s(dp56
g19
S'line'
p57
sS'x'
I739
sg21
I00
sS'y'
I806
s(dp58
g19
S'line'
p59
sS'x'
I739
sg21
I00
sS'y'
I683
s(dp60
g19
S'line'
p61
sS'x'
I356
sg21
I00
sS'y'
I683
s(dp62
g19
S'line'
p63
sS'x'
I356
sg21
I00
sS'y'
I134
s(dp64
g19
S'line'
p65
sS'x'
I953
sg21
I00
sS'y'
I134
s(dp66
g19
S'line'
p67
sS'x'
I940
sg21
I00
sS'y'
I0
stp68
stp69
sS'components'
p70
(tsS'anchors'
p71
(tsssS'org.robofab.postScriptHintData'
p72
(dp73
s."
LayerCount: 2
Fore
SplineSet
536 999 m 258
 536 1198.02 614.536 1299.02 754.732 1299.02 c 256
 839.867 1299.02 904.033 1265.33 975 1219 c 257
 995 1219 l 257
 1085 1386 l 257
 1036 1431 908 1518 706 1518 c 256
 367 1518 259 1281 259 968 c 258
 259 842 l 257
 79 842 l 257
 79 674 l 257
 259 674 l 257
 259 196 l 257
 84 176 l 257
 95 0 l 257
 1072 0 l 257
 1081 198 l 257
 536 198 l 257
 536 674 l 257
 878 674 l 257
 878 842 l 257
 536 842 l 257
 536 999 l 258
EndSplineSet
EndChar

StartChar: t
Encoding: 84 116 349
Width: 848
VWidth: 0
GlyphClass: 2
Flags: W
PickledData: "(dp1
S'org.pippin.gimp.org.kernagic'
p2
(dp3
S'lstem'
p4
I189
sS'rstem'
p5
I480
ssS'com.fontlab.hintData'
p6
(dp7
S'vhints'
p8
((dp9
S'position'
p10
I244
sS'width'
p11
I122
s(dp12
g10
I286
sg11
I80
stp13
sS'hhints'
p14
((dp15
g10
I-11
sg11
I83
stp16
ssS'com.typemytype.robofont.layerData'
p17
(dp18
sS'org.robofab.postScriptHintData'
p19
(dp20
s."
HStem: -11 83
VStem: 244 122 286 80
AnchorPoint: "bot" 496 0 basechar 0
AnchorPoint: "top" 381 1351 basechar 0
LayerCount: 2
Fore
SplineSet
612 -9 m 257
 769 -5 l 257
 778 175 l 257
 644 180 l 258
 503 186 481 227 481 371 c 258
 481 924 l 257
 769 924 l 257
 769 1082 l 257
 481 1082 l 257
 481 1403 l 257
 243 1384 l 257
 220.143 1083.21 l 257
 53 1069 l 257
 47 924 l 257
 213 924 l 257
 213 378 l 258
 213 107 263 -9 612 -9 c 257
EndSplineSet
EndChar

StartChar: thorn
Encoding: 189 254 354
Width: 1161
VWidth: 0
GlyphClass: 2
Flags: W
PickledData: "(dp1
S'org.pippin.gimp.org.kernagic'
p2
(dp3
S'lstem'
p4
I0
sS'rstem'
p5
I0
ssS'com.typemytype.robofont.layerData'
p6
(dp7
S'b'
(dp8
S'name'
p9
S'thorn'
p10
sS'lib'
p11
(dp12
sS'unicodes'
p13
(tsS'width'
p14
I1221
sS'contours'
p15
(tsS'components'
p16
(tsS'anchors'
p17
(tsssS'org.robofab.postScriptHintData'
p18
(dp19
s."
LayerCount: 2
Fore
SplineSet
149 459 m 257
 149 -444 l 257
 414 -444 l 257
 414 459 l 257
 149 459 l 257
EndSplineSet
Refer: 154 98 N 1 0 0 1 3 0 2
EndChar

StartChar: three
Encoding: 19 51 355
Width: 1236
VWidth: 0
GlyphClass: 2
Flags: W
PickledData: "(dp1
S'org.pippin.gimp.org.kernagic'
p2
(dp3
S'lstem'
p4
I0
sS'rstem'
p5
I0
ssS'com.typemytype.robofont.layerData'
p6
(dp7
sS'org.robofab.postScriptHintData'
p8
(dp9
s."
LayerCount: 2
Fore
SplineSet
588 -20 m 256
 869.386 -20 1098 128.352 1098 399.226 c 256
 1098 569.781 1005.62 732.183 765.077 762.27 c 257
 989.304 800.177 1056 944.813 1056 1091 c 256
 1056 1344 868 1476 584 1476 c 256
 396 1476 209 1398 121 1247 c 257
 254 1116 l 257
 275 1113 l 257
 356 1222 456 1263 572 1263 c 256
 717 1263 788 1191 788 1062 c 256
 788 869 636 837 451 837 c 257
 360 836 l 257
 383 655 l 257
 453 655 l 258
 681.158 655 816.006 608.345 816.006 413.168 c 256
 816.006 269.592 723.361 191 572 191 c 256
 451 191 329 242 262 336 c 257
 242 336 l 257
 118 200 l 257
 181 91 362 -20 588 -20 c 256
EndSplineSet
EndChar

StartChar: threequarters
Encoding: 125 190 356
Width: 1734
VWidth: 0
GlyphClass: 3
Flags: W
PickledData: "(dp1
S'org.pippin.gimp.org.kernagic'
p2
(dp3
S'lstem'
p4
I0
sS'rstem'
p5
I0
ssS'com.typemytype.robofont.layerData'
p6
(dp7
sS'org.robofab.postScriptHintData'
p8
(dp9
s."
LayerCount: 2
Fore
SplineSet
1237 313 m 257
 1451 664 l 257
 1451 313 l 257
 1237 313 l 257
419 0 m 257
 602 0 l 257
 1557 1493 l 257
 1379 1493 l 257
 419 0 l 257
1451 0 m 257
 1605 0 l 257
 1605 184 l 257
 1712 184 l 257
 1718 313 l 257
 1605 313 l 257
 1605 868 l 257
 1441 868 l 257
 1068 310 l 257
 1068 184 l 257
 1451 184 l 257
 1451 0 l 257
366 584 m 256
 532 584 682 670 682 852 c 256
 682 948 626 1035 523 1060 c 257
 628 1082 662 1177 663 1252 c 256
 663 1409 534 1475 391 1475 c 256
 293 1475 190 1445 112 1392 c 257
 167 1282 l 257
 237 1322 310 1342 369 1342 c 256
 449 1342 507 1307 507 1231 c 256
 507 1161 470 1119 355 1119 c 258
 247 1119 l 257
 247 988 l 257
 355 989 l 258
 356.178 989.01 357.35 989.015 358.515 989.015 c 256
 476.016 989.015 527 939.156 527 854 c 256
 527 758 452 718 363 718 c 256
 295 718 219 742 162 781 c 257
 108 657 l 257
 184 609 278 584 366 584 c 256
EndSplineSet
Ligature2: "fracDiagonalFractionslookup11 subtable" three slash four
EndChar

StartChar: tilde
Encoding: 405 732 357
Width: 980
VWidth: 0
GlyphClass: 4
Flags: W
PickledData: "(dp1
S'org.robofab.postScriptHintData'
p2
(dp3
sS'com.fontlab.hintData'
p4
(dp5
S'vhints'
p6
((dp7
S'position'
p8
I169
sS'width'
p9
I63
s(dp10
g8
I657
sg9
I67
stp11
sS'hhints'
p12
((dp13
g8
I1301
sg9
I88
s(dp14
g8
I1400
sg9
I79
stp15
ssS'com.typemytype.robofont.layerData'
p16
(dp17
s."
HStem: 1301 88 1400 79
VStem: 169 63 657 67
AnchorPoint: "top" 490 1073 mark 0
LayerCount: 2
Fore
SplineSet
160 1274 m 257
 278 1274 l 257
 291 1346 314 1374 350 1374 c 256
 420 1374 528 1274 637 1274 c 256
 761 1274 813 1390 813 1516 c 257
 694 1516 l 257
 682 1452 662 1432 632 1432 c 256
 573 1432 480 1517 349 1517 c 256
 214 1517 160 1404 160 1274 c 257
EndSplineSet
EndChar

StartChar: trademark
Encoding: 463 8482 358
Width: 2126
VWidth: 0
GlyphClass: 2
Flags: W
PickledData: "(dp1
S'org.robofab.postScriptHintData'
p2
(dp3
sS'com.typemytype.robofont.layerData'
p4
(dp5
S'b'
(dp6
S'name'
p7
S'trademark'
p8
sS'lib'
p9
(dp10
sS'unicodes'
p11
(tsS'width'
p12
I2216
sS'contours'
p13
(tsS'components'
p14
(tsS'anchors'
p15
(tsss."
LayerCount: 2
Fore
SplineSet
366 522 m 257
 543 522 l 257
 543 1317 l 257
 827 1317 l 257
 827 1456 l 257
 83 1456 l 257
 83 1317 l 257
 366 1317 l 257
 366 522 l 257
940 522 m 257
 1104 522 l 257
 1116 1178 l 257
 1387 616 l 257
 1489 616 l 257
 1761 1173 l 257
 1774 522 l 257
 1936 522 l 257
 1918 1456 l 257
 1739 1456 l 257
 1439 836 l 257
 1139 1456 l 257
 959 1456 l 257
 940 522 l 257
EndSplineSet
EndChar

StartChar: two
Encoding: 18 50 359
Width: 1319
VWidth: 0
GlyphClass: 2
Flags: W
PickledData: "(dp1
S'org.pippin.gimp.org.kernagic'
p2
(dp3
S'lstem'
p4
I0
sS'rstem'
p5
I0
ssS'com.typemytype.robofont.layerData'
p6
(dp7
sS'org.robofab.postScriptHintData'
p8
(dp9
s."
LayerCount: 2
Fore
SplineSet
288 1108 m 257
 369 1203 503 1266 632 1266 c 256
 764.4 1266 874.007 1187.71 874.007 1039.03 c 256
 874.007 915.985 822.826 845.805 706 732 c 258
 165 200 l 257
 208 0 l 257
 1109 0 l 257
 1118 201 l 257
 483.347 201 l 257
 863 561 l 258
 1061 750 1132 868 1132 1037 c 256
 1132 1287 960 1476 635 1476 c 256
 421 1476 242 1373 137 1249 c 257
 265 1108 l 257
 288 1108 l 257
EndSplineSet
EndChar

StartChar: u
Encoding: 85 117 360
Width: 1235
VWidth: 0
GlyphClass: 2
Flags: W
PickledData: "(dp1
S'org.pippin.gimp.org.kernagic'
p2
(dp3
S'lstem'
p4
I0
sS'rstem'
p5
I0
ssS'com.fontlab.hintData'
p6
(dp7
S'vhints'
p8
((dp9
S'position'
p10
I162
sS'width'
p11
I166
s(dp12
g10
I862
sg11
I166
stp13
sS'hhints'
p14
((dp15
g10
I-21
sg11
I126
stp16
ssS'com.typemytype.robofont.layerData'
p17
(dp18
sS'org.robofab.postScriptHintData'
p19
(dp20
s."
HStem: -21 126
VStem: 162 166 862 166
AnchorPoint: "bot" 602 1 basechar 0
AnchorPoint: "top" 625 1083 basechar 0
LayerCount: 2
Fore
SplineSet
818 277.195 m 257
 781.491 229.33 713.663 161 589 161 c 256
 458 161 404 243 404 431 c 258
 404 1082 l 257
 133 1082 l 257
 133 407 l 258
 133 132 264 -20 513 -20 c 256
 677.577 -20 778.942 53.9578 842.224 147.596 c 257
 856 0 l 257
 1089 0 l 257
 1089 1082 l 257
 818 1082 l 257
 818 277.195 l 257
EndSplineSet
EndChar

StartChar: underscore
Encoding: 63 95 368
Width: 954
VWidth: 0
GlyphClass: 2
Flags: W
PickledData: "(dp1
S'org.pippin.gimp.org.kernagic'
p2
(dp3
S'lstem'
p4
I0
sS'rstem'
p5
I0
ssS'com.typemytype.robofont.layerData'
p6
(dp7
sS'org.robofab.postScriptHintData'
p8
(dp9
s."
LayerCount: 2
Fore
SplineSet
0 -275 m 257
 954 -275 l 257
 954 -111 l 257
 0 -111 l 257
 0 -275 l 257
EndSplineSet
EndChar

StartChar: uni00AD
Encoding: 108 173 371
Width: 970
VWidth: 0
GlyphClass: 2
Flags: W
PickledData: "(dp1
S'org.robofab.postScriptHintData'
p2
(dp3
s."
LayerCount: 2
Fore
SplineSet
153 292 m 257
 811 292 l 257
 811 480 l 257
 153 480 l 257
 153 292 l 257
EndSplineSet
EndChar

StartChar: uni00B2
Encoding: 113 178 372
Width: 815
VWidth: 0
GlyphClass: 2
Flags: W
PickledData: "(dp1
S'org.robofab.postScriptHintData'
p2
(dp3
sS'com.typemytype.robofont.layerData'
p4
(dp5
s."
LayerCount: 2
Fore
SplineSet
154 620 m 257
 691 620 l 257
 705 753 l 257
 391 753 l 257
 510 864 485 830 575 920 c 256
 655 1002 705 1102 705 1215 c 256
 705 1391 570 1490 432 1490 c 256
 303 1490 204 1447 139 1358 c 257
 210 1248 l 257
 259 1311 332 1346 417 1346 c 256
 485 1346 546 1293 546 1211 c 256
 546 1165 492 1088 452 1035 c 257
 287 852 253 853 154 753 c 257
 154 620 l 257
EndSplineSet
EndChar

StartChar: uni00B3
Encoding: 114 179 373
Width: 880
VWidth: 0
GlyphClass: 2
Flags: W
PickledData: "(dp1
S'org.robofab.postScriptHintData'
p2
(dp3
sS'com.typemytype.robofont.layerData'
p4
(dp5
s."
LayerCount: 2
Fore
SplineSet
434 603 m 256
 603 603 753 688 753 863 c 256
 753 966 692 1052 595 1072 c 257
 695 1093 738 1172 739 1261 c 256
 739 1424 610 1487 464 1487 c 256
 354 1487 242 1454 165 1397 c 257
 219 1294 l 257
 283 1337 359 1362 437 1362 c 256
 526 1362 593 1327 593 1245 c 256
 593 1175 561 1129 431 1129 c 258
 312 1129 l 257
 312 1007 l 257
 429 1009 l 258
 430.063 1009.01 431.121 1009.01 432.173 1009.01 c 256
 552.964 1009.01 608 952.274 608 869 c 256
 608 774 526 729 429 729 c 256
 343 729 265 758 214 802 c 257
 157 683 l 257
 233 631 334 603 434 603 c 256
EndSplineSet
EndChar

StartChar: uni00B9
Encoding: 120 185 375
Width: 870
VWidth: 0
GlyphClass: 2
Flags: W
PickledData: "(dp1
S'org.robofab.postScriptHintData'
p2
(dp3
sS'com.typemytype.robofont.layerData'
p4
(dp5
s."
LayerCount: 2
Fore
SplineSet
249 592 m 257
 728 592 l 257
 728 734 l 257
 576 734 l 257
 576 1473 l 257
 441 1473 l 257
 409 1451 289 1385 237 1362 c 257
 237 1218 l 257
 253 1221 363 1274 401 1294 c 257
 401 734 l 257
 249 734 l 257
 249 592 l 257
EndSplineSet
EndChar

StartChar: uni02C9
Encoding: 400 713 444
Width: 600
VWidth: 0
GlyphClass: 4
Flags: W
PickledData: "(dp1
S'org.robofab.postScriptHintData'
p2
(dp3
s."
AnchorPoint: "top" 299 1073 mark 0
LayerCount: 2
Fore
SplineSet
-38 1333 m 257
 626 1333 l 257
 626 1489 l 257
 -38 1489 l 257
 -38 1333 l 257
EndSplineSet
EndChar

StartChar: uni0307
Encoding: 407 775 445
Width: 536
VWidth: 0
GlyphClass: 4
Flags: W
PickledData: "(dp1
S'org.robofab.postScriptHintData'
p2
(dp3
sS'com.typemytype.robofont.layerData'
p4
(dp5
s."
LayerCount: 2
Fore
SplineSet
431 1454 m 256
 431 1544 372 1600 272 1600 c 256
 173 1600 113 1544 113 1454 c 256
 113 1360 173 1303 272 1303 c 256
 372 1303 431 1360 431 1454 c 256
EndSplineSet
EndChar

StartChar: uni2074
Encoding: 460 8308 464
Width: 694
VWidth: 0
GlyphClass: 2
Flags: W
PickledData: "(dp1
S'org.robofab.postScriptHintData'
p2
(dp3
sS'com.typemytype.robofont.layerData'
p4
(dp5
s."
LayerCount: 2
Fore
SplineSet
179 918 m 257
 379 1276 l 257
 378 918 l 257
 179 918 l 257
378 602 m 257
 527 602 l 257
 527 795 l 257
 632 795 l 257
 644 918 l 257
 527 918 l 257
 527 1474 l 257
 369 1474 l 257
 17 925 l 257
 17 795 l 257
 378 795 l 257
 378 602 l 257
EndSplineSet
EndChar

StartChar: afii61289
Encoding: 462 8467 465
Width: 1289
VWidth: 0
Flags: W
PickledData: "(dp1
S'org.robofab.postScriptHintData'
p2
(dp3
s."
LayerCount: 2
Fore
SplineSet
693.938 829.331 m 257
 765 1134 l 258
 785.955 1223.84 830.731 1544 984.418 1544 c 256
 1069.43 1544 1138 1481.03 1138 1364 c 256
 1138 1179 1017 1091 885 984 c 258
 693.938 829.331 l 257
296.623 285.146 m 256
 296.623 72.7471 411.734 -20.0963 582.414 -20.0963 c 256
 833.408 -20.0963 997 98 997 98 c 257
 970 261 l 257
 869.967 214.383 776.537 181.914 699.786 181.914 c 256
 619.816 181.914 577.612 218.476 577.612 305.381 c 256
 577.612 336.212 582.997 373.257 594 417 c 258
 650.07 645.827 l 257
 940 865 l 258
 1190 1053 1289 1155 1289 1365 c 256
 1289 1585.86 1118.11 1698.01 942.189 1698.01 c 256
 789.093 1698.01 633.629 1616.65 573 1396 c 258
 371.854 654.504 l 257
 73 433 l 257
 125 334 l 257
 321.557 473.935 l 257
 304.544 402.98 296.623 340.153 296.623 285.146 c 256
EndSplineSet
EndChar

StartChar: Delta
Encoding: 468 8710 467
Width: 1308
VWidth: 0
Flags: W
PickledData: "(dp1
S'org.pippin.gimp.org.kernagic'
p2
(dp3
S'lstem'
p4
I0
sS'rstem'
p5
I0
ssS'com.typemytype.robofont.layerData'
p6
(dp7
S'b'
(dp8
S'name'
p9
S'uni2206'
p10
sS'lib'
p11
(dp12
sS'unicodes'
p13
(tsS'width'
p14
I1278
sS'contours'
p15
(tsS'components'
p16
(tsS'anchors'
p17
(tsssS'org.robofab.postScriptHintData'
p18
(dp19
s."
LayerCount: 2
Fore
SplineSet
686 1213 m 257
 1042 176 l 257
 270 176 l 257
 619 1213 l 257
 652 1334 l 257
 686 1213 l 257
562 1566 m 257
 69 87 l 257
 69 0 l 257
 1243 0 l 257
 1243 87 l 257
 751 1566 l 257
 562 1566 l 257
EndSplineSet
EndChar

StartChar: v
Encoding: 86 118 478
Width: 1091
VWidth: 0
GlyphClass: 2
Flags: W
PickledData: "(dp1
S'org.pippin.gimp.org.kernagic'
p2
(dp3
S'lstem'
p4
I0
sS'rstem'
p5
I0
ssS'com.typemytype.robofont.guides'
p6
((dp7
S'y'
I552
sS'x'
I438
sS'magnetic'
p8
I5
sS'angle'
p9
I0
sS'isGlobal'
p10
I00
stp11
sS'com.typemytype.robofont.layerData'
p12
(dp13
sS'org.robofab.postScriptHintData'
p14
(dp15
s."
LayerCount: 2
Fore
SplineSet
415 0 m 257
 686 0 l 257
 1060 1082 l 257
 788 1082 l 257
 711.703 818.936 634.869 556.411 560.242 291.678 c 257
 477.162 555.12 394.081 818.56 311 1082 c 257
 34 1082 l 257
 415 0 l 257
EndSplineSet
EndChar

StartChar: w
Encoding: 87 119 479
Width: 1522
VWidth: 0
GlyphClass: 2
Flags: W
PickledData: "(dp1
S'org.pippin.gimp.org.kernagic'
p2
(dp3
S'lstem'
p4
I0
sS'rstem'
p5
I0
ssS'com.typemytype.robofont.layerData'
p6
(dp7
sS'org.robofab.postScriptHintData'
p8
(dp9
s."
AnchorPoint: "top" 771 1082 basechar 0
LayerCount: 2
Fore
SplineSet
772.719 823.322 m 257
 984 -3 l 257
 1234 -3 l 257
 1507 1082 l 257
 1272 1082 l 257
 1108.1 281.692 l 257
 898 1082 l 257
 643 1082 l 257
 426.303 276.625 l 257
 264 1082 l 257
 13 1082 l 257
 290 -3 l 257
 531 -3 l 257
 772.719 823.322 l 257
EndSplineSet
EndChar

StartChar: x
Encoding: 88 120 484
Width: 1078
VWidth: 0
GlyphClass: 2
Flags: W
PickledData: "(dp1
S'org.pippin.gimp.org.kernagic'
p2
(dp3
S'lstem'
p4
I0
sS'rstem'
p5
I0
ssS'com.fontlab.hintData'
p6
(dp7
S'hhints'
p8
((dp9
S'position'
p10
I0
sS'width'
p11
I22
s(dp12
g10
I1034
sg11
I21
stp13
ssS'com.typemytype.robofont.layerData'
p14
(dp15
sS'org.robofab.postScriptHintData'
p16
(dp17
s."
HStem: 0 22 1034 21
LayerCount: 2
Fore
SplineSet
688.88 547.194 m 257
 1041 1082 l 257
 784 1082 l 257
 559.124 742.187 l 257
 333 1082 l 257
 44 1082 l 257
 399.141 546.078 l 257
 24 -3 l 257
 284 -3 l 257
 528.738 350.511 l 257
 763 -3 l 257
 1055 -3 l 257
 688.88 547.194 l 257
EndSplineSet
EndChar

StartChar: y
Encoding: 89 121 485
Width: 1134
VWidth: 0
GlyphClass: 2
Flags: W
PickledData: "(dp1
S'org.pippin.gimp.org.kernagic'
p2
(dp3
S'lstem'
p4
I0
sS'rstem'
p5
I0
ssS'com.typemytype.robofont.layerData'
p6
(dp7
sS'org.robofab.postScriptHintData'
p8
(dp9
s."
AnchorPoint: "top" 567 1082 basechar 0
LayerCount: 2
Fore
SplineSet
1117 1082 m 257
 864 1082 l 257
 577.806 364.3 l 257
 275 1082 l 257
 5 1082 l 257
 444.466 98.6399 l 257
 255 -358 l 257
 476 -434 l 257
 1117 1082 l 257
EndSplineSet
EndChar

StartChar: yen
Encoding: 100 165 489
Width: 1356
VWidth: 0
GlyphClass: 2
Flags: W
PickledData: "(dp1
S'org.pippin.gimp.org.kernagic'
p2
(dp3
S'lstem'
p4
I0
sS'rstem'
p5
I0
ssS'com.typemytype.robofont.layerData'
p6
(dp7
S'b'
(dp8
S'name'
p9
S'yen'
p10
sS'lib'
p11
(dp12
sS'unicodes'
p13
(tsS'width'
p14
I1366
sS'contours'
p15
(tsS'components'
p16
(tsS'anchors'
p17
(tsssS'org.robofab.postScriptHintData'
p18
(dp19
s."
LayerCount: 2
Fore
SplineSet
222 522 m 257
 1108 522 l 257
 1108 648 l 257
 222 648 l 257
 222 522 l 257
222 248 m 257
 1108 248 l 257
 1108 374 l 257
 222 374 l 257
 222 248 l 257
EndSplineSet
Refer: 123 89 N 1 0 0 1 0 0 2
EndChar

StartChar: z
Encoding: 90 122 491
Width: 985
VWidth: 0
GlyphClass: 2
Flags: W
PickledData: "(dp1
S'org.pippin.gimp.org.kernagic'
p2
(dp3
S'lstem'
p4
I0
sS'rstem'
p5
I0
ssS'com.typemytype.robofont.layerData'
p6
(dp7
sS'org.robofab.postScriptHintData'
p8
(dp9
s."
AnchorPoint: "bot" 495 0 basechar 0
AnchorPoint: "top" 493 1082 basechar 0
LayerCount: 2
Fore
SplineSet
96 1082 m 257
 96 911 l 257
 604.464 911 l 257
 84 144 l 257
 84 0 l 257
 910 0 l 257
 910 178 l 257
 387.946 178 l 257
 895 924 l 257
 895 1082 l 257
 96 1082 l 257
EndSplineSet
EndChar

StartChar: zero
Encoding: 16 48 495
Width: 1319
VWidth: 0
GlyphClass: 2
Flags: W
PickledData: "(dp1
S'org.pippin.gimp.org.kernagic'
p2
(dp3
S'lstem'
p4
I0
sS'rstem'
p5
I0
ssS'com.typemytype.robofont.layerData'
p6
(dp7
S'b'
(dp8
S'name'
p9
S'zero'
p10
sS'lib'
p11
(dp12
sS'unicodes'
p13
(tsS'width'
p14
I1248
sS'contours'
p15
(tsS'components'
p16
(tsS'anchors'
p17
(tsssS'org.robofab.postScriptHintData'
p18
(dp19
s."
LayerCount: 2
Fore
SplineSet
662 -20 m 256
 1024 -20 1213 265 1213 717 c 256
 1213 1180 1016 1476 662 1476 c 256
 309 1476 106 1179 106 717 c 256
 106 265 301 -20 662 -20 c 256
662 193 m 256
 500 193 398 363 398 720 c 256
 400 1064 502 1263 662 1263 c 256
 825 1263 921 1079 921 720 c 256
 921 364 825 193 662 193 c 256
EndSplineSet
EndChar

StartChar: Sigma
Encoding: 414 931 497
Width: 1132
VWidth: 0
GlyphClass: 2
Flags: HW
LayerCount: 2
Fore
SplineSet
79 1456 m 257
 79 1290 l 257
 567 600 l 257
 66 -75 l 257
 66 -237 l 257
 1088 -237 l 257
 1088 -20 l 257
 372 -20 l 257
 855 606 l 257
 416 1246 l 257
 1048 1246 l 257
 1048 1456 l 257
 79 1456 l 257
EndSplineSet
EndChar

StartChar: uni03BC
Encoding: 416 956 498
Width: 1221
VWidth: 0
GlyphClass: 2
Flags: HW
LayerCount: 2
Fore
SplineSet
818 277.1953125 m 1
 781.491210938 229.330078125 713.663085938 161 589 161 c 0
 458 161 404 243 404 431 c 2
 404 1082 l 1
 133 1082 l 1
 133 -308 l 1
 404 -308 l 1
 404 -8.76154150426 l 1
 437.361614198 -16.2158755169 473.711969306 -20 513 -20 c 0
 677.577148438 -20 778.942382812 53.9580078125 842.223632812 147.595703125 c 1
 856 0 l 1
 1089 0 l 1
 1089 1082 l 1
 818 1082 l 1
 818 277.1953125 l 1
EndSplineSet
EndChar

StartChar: emptyset
Encoding: 467 8709 499
Width: 1678
VWidth: 0
GlyphClass: 2
Flags: HW
LayerCount: 2
Back
SplineSet
112 733 m 260
 112 1150 459 1473 832 1473 c 260
 1006 1473 1174 1403 1304 1286 c 261
 1481 1485 l 261
 1518 1456 l 261
 1337 1254 l 261
 1467 1122 1552 939 1552 733 c 260
 1552 316 1205 -7 832 -7 c 260
 662 -7 498 60 369 172 c 261
 177 -43 l 261
 145 -14 l 261
 337 202 l 261
 201 335 112 522 112 733 c 260
398 204 m 261
 519 99 673 37 832 37 c 260
 1183 37 1509 341 1509 733 c 260
 1509 926 1430 1097 1308 1222 c 261
 398 204 l 261
366 234 m 261
 1275 1254 l 261
 1153 1364 995 1429 832 1429 c 260
 481 1429 155 1125 155 733 c 260
 155 535 238 359 366 234 c 261
EndSplineSet
Fore
SplineSet
82 733 m 0
 82 1166.80946597 442.209815076 1503 832 1503 c 0
 1004.35045892 1503 1170.57714551 1436.64052905 1301.24586005 1328.04368449 c 1
 1477.31911498 1526.00175077 l 1
 1561.72644822 1459.84465174 l 1
 1377.81237312 1254.59247954 l 1
 1502.33292724 1118.61178229 1582 936.912646963 1582 733 c 0
 1582 299.19053403 1221.79018492 -37 832 -37 c 0
 663.65585325 -37 500.761436846 26.9147562655 372.039708811 130.364524004 c 1
 179.247127373 -85.5230020853 l 1
 102.837527348 -16.2768020626 l 1
 295.927129296 200.949000129 l 1
 164.973700487 338.946971454 82 524.061830571 82 733 c 0
441.111982555 207.214092897 m 1
 554.498441307 117.634669994 690.831108418 67 832 67 c 0
 1166.18355854 67 1479 357.798552711 1479 733 c 0
 1479 906.120869845 1412.2075901 1060.43924838 1308.46052089 1177.50069952 c 1
 441.111982555 207.214092897 l 1
364.99056526 277.958566548 m 1
 1232.31455449 1251.19340595 l 1
 1118.11103474 1345.21012056 977.209135989 1399 832 1399 c 0
 497.816441459 1399 185 1108.20144729 185 733 c 0
 185 554.760063962 255.941876746 395.12530095 364.99056526 277.958566548 c 1
EndSplineSet
EndChar

StartChar: uni03A9
Encoding: 415 937 500
Width: 2048
VWidth: 0
GlyphClass: 2
Flags: HW
LayerCount: 2
Fore
SplineSet
101.000508652 -25 m 1
 79.5902522419 142 l 1
 394.661196761 142 l 1
 218.945412804 287.842318277 98 505.909508794 98 773 c 0
 98 1197.17929775 406.946781187 1472 816 1472 c 0
 1241.97642745 1472 1511 1166.23423812 1511 770 c 0
 1511 495.330817611 1363.6454094 282.266101579 1203.87543699 142 c 1
 1518.93162538 142 l 1
 1500.37606983 -25 l 1
 947.226239691 -25 l 1
 945.878073241 123.298309456 l 1
 957.132495094 130.801257358 l 0
 1158.57384678 265.095491816 1305 482.672997706 1305 751 c 0
 1305 1046.66968547 1138.5608683 1294 810 1294 c 0
 510.15184934 1294 304 1081.06662607 304 756 c 0
 304 488.970966371 442.08879698 263.78393095 647.568959569 130.997222107 c 0
 658.876579039 123.689939714 l 1
 660.228305764 -25 l 1
 101.000508652 -25 l 1
EndSplineSet
EndChar

StartChar: uni0358
Encoding: 412 856 501
Width: 536
VWidth: 0
GlyphClass: 4
Flags: HW
LayerCount: 2
Fore
SplineSet
431 1454 m 256
 431 1544 372 1600 272 1600 c 256
 173 1600 113 1544 113 1454 c 256
 113 1360 173 1303 272 1303 c 256
 372 1303 431 1360 431 1454 c 256
EndSplineSet
EndChar

StartChar: uni0259
Encoding: 397 601 502
Width: 1167
VWidth: 0
Flags: HW
HStem: -19 94 982 92
LayerCount: 2
Fore
SplineSet
805 458 m 261
 792 263 692 160 549 160 c 260
 406 160 338 259 336 458 c 261
 805 458 l 261
530 1104 m 260
 363 1104 217 1054 130 983 c 261
 190 832 l 261
 205 832 l 261
 291 884 382 922 499 922 c 260
 667 922 793 823 808 612 c 261
 119 612 l 261
 119 612 109 554 109 495 c 260
 109 186 253 -20 560 -20 c 260
 863 -20 1081 191 1081 544 c 260
 1081 890 855 1104 530 1104 c 260
EndSplineSet
EndChar
